<?xml version="1.0" encoding="utf-8"?>
<!-- Generator: Adobe Illustrator 16.0.0, SVG Export Plug-In . SVG Version: 6.00 Build 0)  -->
<!DOCTYPE svg PUBLIC "-//W3C//DTD SVG 1.1//EN" "http://www.w3.org/Graphics/SVG/1.1/DTD/svg11.dtd">
<svg version="1.1" id="Calque_1" xmlns="http://www.w3.org/2000/svg" xmlns:xlink="http://www.w3.org/1999/xlink" x="0px" y="0px"
	 width="948px" height="856.736px" viewBox="0 0 948 856.736" enable-background="new 0 0 948 856.736" xml:space="preserve">
<g id="btn-previous-next">
	<g>
		<g>
			<g>
				<path fill="#84D2E0" d="M273.072,50.425c0,0.543,0,0.814,0,1.357c0,0.695-0.327,1.114-0.979,1.254
					c-1.689,0.371-3.096,0.675-4.409,0.956s-2.533,0.54-3.847,0.814s-2.721,0.567-4.41,0.912c-0.344,0.098-0.689,0.072-1.034-0.077
					c-0.408-0.177-0.776-0.508-1.101-0.993c-0.325-0.484-0.487-0.972-0.487-1.467c0-0.646,0.235-1.017,0.707-1.115
					c1.58-0.325,2.897-0.6,4.126-0.859s2.369-0.502,3.597-0.767s2.544-0.549,4.124-0.897c-1.185-1.261-2.222-2.362-3.185-3.382
					s-1.853-1.96-2.741-2.899s-1.777-1.876-2.74-2.891s-2-2.105-3.186-3.349c-0.469-0.525-0.703-1.11-0.703-1.756
					c0-0.495,0.162-0.846,0.487-1.055s0.693-0.231,1.101-0.063c0.319,0.132,0.664,0.399,1.034,0.799
					c1.267,1.33,2.375,2.496,3.405,3.58s1.98,2.089,2.931,3.094s1.902,2.011,2.932,3.103s2.138,2.27,3.405,3.619
					C272.748,49.007,273.072,49.701,273.072,50.425z"/>
			</g>
		</g>
		<polygon fill="none" stroke="#84D2E0" stroke-width="4" stroke-miterlimit="10" points="249.53,22.493 278.345,33.769 
			278.345,73.013 249.53,61.181 		"/>
	</g>
	<g>
		<polygon fill="none" stroke="#84D2E0" stroke-width="4" stroke-miterlimit="10" points="242.482,58.753 213.667,47.478 
			213.667,8.233 242.482,20.065 		"/>
		<g>
			<g>
				<path fill="#84D2E0" d="M218.941,30.82c0-0.543,0-0.814,0-1.357c0-0.695,0.326-1.114,0.979-1.253
					c1.689-0.371,3.095-0.675,4.408-0.956s2.535-0.539,3.849-0.814s2.72-0.568,4.409-0.913c0.344-0.098,0.691-0.072,1.035,0.077
					c0.408,0.177,0.774,0.507,1.1,0.993c0.325,0.484,0.488,0.973,0.488,1.468c0,0.646-0.235,1.016-0.708,1.114
					c-1.58,0.325-2.896,0.602-4.125,0.86s-2.369,0.501-3.598,0.766s-2.545,0.55-4.125,0.897c1.185,1.261,2.223,2.361,3.186,3.382
					s1.852,1.96,2.74,2.899s1.779,1.876,2.742,2.89s1.998,2.106,3.183,3.35c0.469,0.525,0.704,1.109,0.704,1.754
					c0,0.495-0.163,0.847-0.488,1.057s-0.691,0.231-1.1,0.062c-0.319-0.132-0.665-0.399-1.035-0.799
					c-1.267-1.33-2.375-2.497-3.405-3.581s-1.98-2.088-2.931-3.093s-1.9-2.011-2.93-3.103s-2.138-2.27-3.405-3.619
					C219.266,32.239,218.941,31.545,218.941,30.82z"/>
			</g>
		</g>
	</g>
</g>
<g id="btn-gear">
	<path fill="#84D2E0" d="M282.494,797.575v-5.537l-7.979,1.43c-0.459-2.09-1.335-3.905-2.539-5.394l5.046-7.687l-3.915-2.798
		l-6.245,6.83c-1.711-0.635-3.628-0.924-5.684-0.816l-0.842-7.7l-5.537,1.581l-0.823,7.989c-2.396,1.113-4.624,2.656-6.583,4.502
		l-6.245-3.264l-3.915,5.032l5.046,4.805c-1.204,2.178-2.08,4.493-2.539,6.845l-7.979,3.123v5.537l7.979-1.43
		c0.459,2.089,1.336,3.905,2.54,5.394l-5.047,7.686l3.915,2.799l6.245-6.828c1.951,0.724,4.168,0.997,6.553,0.748l0.853,7.795
		l5.537-1.58l0.873-8.475c2.043-1.064,3.95-2.442,5.653-4.046l6.245,3.264l3.915-5.033l-5.046-4.803
		c1.204-2.177,2.08-4.494,2.539-6.845L282.494,797.575z M257.127,811.895c-5.533,1.579-10.019-1.627-10.019-7.16
		c0-5.534,4.486-11.298,10.019-12.877c5.533-1.58,10.019,1.626,10.019,7.159S262.661,810.315,257.127,811.895z"/>
	<polygon fill="none" stroke="#84D2E0" stroke-width="4" stroke-miterlimit="10" points="288.472,826.888 225.23,846.024 
		225.23,772.775 288.472,758.328 	"/>
</g>
<linearGradient id="SVGID_1_" gradientUnits="userSpaceOnUse" x1="272.6396" y1="801.9922" x2="506.4399" y2="159.631">
	<stop  offset="0" style="stop-color:#D1D3D4"/>
	<stop  offset="1" style="stop-color:#58595B"/>
</linearGradient>
<path fill="url(#SVGID_1_)" d="M719.796,637.175c0,12.057-3.613,22.575-8.125,23.506l-509.839,110.48
	c-14.812,3.058-55.026-12.041-55.026-34.43V77.838c0-22.39,40.214-34.843,55.026-29.071l509.839,208.622
	c4.512,1.758,8.125,12.939,8.125,24.995V637.175z"/>
<linearGradient id="SVGID_2_" gradientUnits="userSpaceOnUse" x1="287.6709" y1="804.8848" x2="520.7073" y2="164.6223">
	<stop  offset="0" style="stop-color:#F1F2F2"/>
	<stop  offset="1" style="stop-color:#939598"/>
</linearGradient>
<path fill="url(#SVGID_2_)" d="M724.218,636.924c0,12.032-3.454,22.53-7.768,23.459L202.357,771.161
	c-14.16,3.052-25.894-12.534-25.894-34.879V78.693c0-22.345,11.734-35.686,25.894-29.926L716.45,257.889
	c4.313,1.754,7.768,12.914,7.768,24.945V636.924z"/>
<path fill="#414042" d="M704.778,621.031c0,11.135-3.197,20.851-7.189,21.71c0,0-127.182,30.689-127.182,10.011L197.869,104.427
	c0-20.679,10.859-33.025,23.962-27.694L697.589,270.26c3.992,1.624,7.189,11.951,7.189,23.085V621.031z"/>
<g id="screen-right">
	<path fill="#3D78BD" d="M692.792,623.57c0,10.829-3.119,20.278-7.013,21.113L493.655,685.96V204.295l192.124,78.145
		c3.894,1.579,7.013,11.622,7.013,22.451V623.57z"/>
	<polygon fill="#263B8B" points="686.392,528.837 540.418,526.608 540.418,254.098 686.392,306.343 	"/>
</g>
<path fill="#BDE5EF" d="M493.655,685.96L221.72,744.382c-12.781,2.746-23.373-11.281-23.373-31.393c0,0-0.478-602.236-0.478-610.57
	s3.923-16.84,3.923-16.84l291.863,118.716V685.96z"/>
<polygon fill="#263B8B" points="463.715,672.5 238.747,708.294 238.747,375.777 463.715,410.758 "/>
<polygon opacity="0.85" fill="#32A4DD" points="457.354,550.116 250.32,553.61 250.32,390.03 457.354,416.845 "/>
<polygon fill="#273C8A" points="448.736,407.856 254.329,379.013 254.329,173.223 448.736,238.993 "/>
<polygon fill="none" stroke="#84D2E0" stroke-width="4" stroke-miterlimit="10" points="435.668,391.123 275.766,364.896 
	275.766,205.477 435.668,255.753 "/>
<g>
	<g>
		<path fill="#84D2E0" d="M318.777,298.94c0-2.119,0-3.178,0-5.296c0-2.713,0.435-4.78,1.303-6.195
			c5.562-9.103,11.146-18.188,16.841-27.209c0.458-0.833,0.916-1.186,1.374-1.058c0.542,0.151,1.03,0.954,1.463,2.405
			c0.432,1.448,0.649,3.134,0.649,5.048c0,2.504-0.313,4.253-0.941,5.26c-5.32,8.462-10.57,16.969-15.753,25.516
			c5.193,10.96,10.448,21.891,15.76,32.793c0.623,1.41,0.934,3.363,0.934,5.867c0,1.918-0.216,3.501-0.649,4.749
			s-0.921,1.819-1.464,1.714c-0.424-0.083-0.882-0.652-1.374-1.708c-5.689-11.657-11.301-23.352-16.849-35.077
			C319.208,304.035,318.777,301.764,318.777,298.94z"/>
		<path fill="#84D2E0" d="M371.709,268.866c-5.876,28.695-11.662,57.408-17.359,86.139c-0.271,1.318-0.704,1.923-1.297,1.814
			c-0.559-0.103-1.081-0.787-1.563-2.059c-0.483-1.272-0.724-2.831-0.724-4.673c0-1.629,0.169-3.333,0.509-5.109
			c5.702-28.737,11.487-57.457,17.372-86.157c0.288-1.331,0.734-1.907,1.342-1.73c0.541,0.157,1.052,0.859,1.533,2.106
			c0.481,1.247,0.723,2.766,0.723,4.568C372.244,265.464,372.065,267.162,371.709,268.866z"/>
		<path fill="#84D2E0" d="M403.9,313.971c0,1.947,0,2.919,0,4.866c0,2.542-0.414,4.443-1.241,5.706
			c-5.698,8.568-11.314,17.191-16.852,25.864c-0.493,0.817-0.958,1.183-1.399,1.097c-0.543-0.105-1.032-0.811-1.464-2.117
			s-0.648-2.907-0.648-4.79c0-2.448,0.321-4.162,0.963-5.151c5.172-8.126,10.416-16.206,15.729-24.24
			c-5.304-10.468-10.549-20.967-15.731-31.497c-0.641-1.395-0.961-3.319-0.961-5.774c0-1.887,0.216-3.384,0.648-4.49
			s0.92-1.583,1.463-1.432c0.424,0.118,0.892,0.704,1.4,1.758c5.546,11.335,11.162,22.637,16.848,33.903
			C403.484,309.329,403.9,311.425,403.9,313.971z"/>
	</g>
</g>
<radialGradient id="SVGID_3_" cx="336.0576" cy="265.6748" r="45.035" gradientUnits="userSpaceOnUse">
	<stop  offset="0" style="stop-color:#88D3E1"/>
	<stop  offset="0.3465" style="stop-color:#D2EDF1;stop-opacity:0.3771"/>
	<stop  offset="0.85" style="stop-color:#FFFFFF;stop-opacity:0"/>
</radialGradient>
<path opacity="0.5" fill="url(#SVGID_3_)" d="M372.016,274.726c0,27.567-15.204,46.89-34.644,43.024
	c-20.241-4.025-37.272-31.456-37.272-61.115c0-29.659,17.032-48.521,37.272-42.362C356.812,220.187,372.016,247.159,372.016,274.726
	z"/>
<path fill="#84D2E0" d="M513.754,654.224c0,3.312-1.994,6.29-4.469,6.655c-2.489,0.367-4.518-2.047-4.518-5.395
	s2.028-6.332,4.518-6.663C511.76,648.492,513.754,650.911,513.754,654.224z"/>
<path fill="#84D2E0" d="M539.293,320.531c0,3.102-1.739,5.155-3.896,4.583c-2.17-0.575-3.937-3.583-3.937-6.717
	c0-3.133,1.767-5.178,3.937-4.571C537.554,314.429,539.293,317.43,539.293,320.531z"/>
<polygon opacity="0.9" fill="#FED9B1" points="470.971,540.822 263.938,544.316 263.938,380.736 470.971,407.551 "/>
<g id="text_3_">
	<polygon fill="#84D2E0" points="444.599,568.598 409.746,569.766 409.787,574.869 444.639,573.507 	"/>
	<polygon fill="#84D2E0" points="266.797,574.558 266.844,580.454 372.46,576.327 372.418,571.017 	"/>
	<polygon fill="#84D2E0" points="444.955,598.351 267.253,610.284 267.205,604.388 444.916,593.443 	"/>
	<polygon fill="#84D2E0" points="267.436,653.902 267.483,659.799 384.99,646.432 384.947,641.188 	"/>
	<polygon fill="#84D2E0" points="445.131,634.675 391.724,640.454 391.766,645.66 445.171,639.585 	"/>
	<polygon fill="#84D2E0" points="268.091,620.421 268.138,626.313 326.178,621.536 326.133,615.966 	"/>
	<polygon fill="#84D2E0" points="368.059,612.749 368.102,618.086 416.275,614.122 416.234,609.052 	"/>
	<polygon fill="#84D2E0" points="445.548,606.802 424.354,608.429 424.394,613.453 445.588,611.709 	"/>
	<polygon fill="#84D2E0" points="267.385,589.563 267.432,595.458 322.839,592.51 322.794,586.923 	"/>
	<polygon fill="#84D2E0" points="445.023,581.097 331.466,586.509 331.511,592.048 445.063,586.005 	"/>
	<polygon fill="#84D2E0" points="267.917,635.804 267.964,641.697 402.454,628.682 402.412,623.535 	"/>
</g>
<radialGradient id="SVGID_4_" cx="534.6982" cy="317.6372" r="24.772" gradientUnits="userSpaceOnUse">
	<stop  offset="0" style="stop-color:#88D3E1"/>
	<stop  offset="0.3465" style="stop-color:#D2EDF1;stop-opacity:0.3771"/>
	<stop  offset="0.85" style="stop-color:#FFFFFF;stop-opacity:0"/>
</radialGradient>
<path opacity="0.65" fill="url(#SVGID_4_)" d="M554.473,321.866c0,15.361-8.474,26.346-19.22,24.484
	c-11.084-1.919-20.329-16.691-20.329-32.938s9.245-27.066,20.329-24.248C545.999,291.897,554.473,306.505,554.473,321.866z"/>
<polyline fill="none" stroke="#84D2E0" stroke-width="4" stroke-miterlimit="10" points="536.021,319.757 521.788,315.708 
	521.788,335.416 521.788,632.1 521.788,654.161 508.766,655.27 "/>
<line id="middle-stick" fill="none" stroke="#263B8B" stroke-width="4" stroke-miterlimit="10" x1="493.857" y1="236.484" x2="493.857" y2="685.96"/>
<g id="btn-next">
	<polygon opacity="0.9" fill="#3D78BD" points="493.236,681.706 449.725,688.994 449.725,633.151 493.236,628.627 	"/>
	<polygon fill="none" stroke="#84D2E0" stroke-width="4" stroke-miterlimit="10" points="501.646,682.977 455.205,690.755 
		455.205,631.153 501.646,626.325 	"/>
	<g>
		<g>
			<path fill="#84D2E0" d="M492.128,655.297c0,0.815,0,1.223,0,2.038c0,1.066-0.51,1.975-1.535,2.727
				c-1.39,1.014-2.664,1.951-3.86,2.835s-2.317,1.713-3.398,2.52s-2.122,1.588-3.165,2.373s-2.085,1.574-3.167,2.396
				s-2.201,1.679-3.397,2.598s-2.471,1.904-3.86,2.984c-0.608,0.492-1.187,0.784-1.732,0.876c-0.671,0.112-1.274-0.05-1.809-0.486
				s-0.803-1.061-0.803-1.875c0-1.053,0.397-1.886,1.191-2.492c1.557-1.208,2.958-2.286,4.266-3.288s2.52-1.926,3.703-2.822
				s2.336-1.766,3.52-2.652c1.184-0.887,2.397-1.791,3.705-2.76s2.709-2,4.266-3.139c-1.557-0.709-2.958-1.358-4.266-1.967
				s-2.523-1.18-3.707-1.74c-1.184-0.561-2.334-1.111-3.518-1.682s-2.397-1.159-3.705-1.801c-1.308-0.642-2.709-1.335-4.266-2.113
				c-0.792-0.438-1.189-1.188-1.189-2.244c0-0.812,0.27-1.512,0.803-2.094c0.535-0.584,1.138-0.911,1.809-0.98
				c0.525-0.055,1.103,0.082,1.732,0.407c1.667,0.846,3.168,1.599,4.569,2.294s2.702,1.333,3.969,1.951s2.501,1.213,3.769,1.819
				c1.268,0.607,2.568,1.225,3.969,1.883s2.902,1.358,4.569,2.125C491.616,653.465,492.128,654.234,492.128,655.297z"/>
		</g>
	</g>
	<radialGradient id="SVGID_5_" cx="509.4805" cy="654.8535" r="26.0272" gradientUnits="userSpaceOnUse">
		<stop  offset="0" style="stop-color:#88D3E1"/>
		<stop  offset="0.4043" style="stop-color:#B1E1EA;stop-opacity:0.65"/>
		<stop  offset="0.4334" style="stop-color:#BCE5ED;stop-opacity:0.6023"/>
		<stop  offset="0.5288" style="stop-color:#D9F0F5;stop-opacity:0.4466"/>
		<stop  offset="0.6232" style="stop-color:#EEF8FA;stop-opacity:0.2926"/>
		<stop  offset="0.7153" style="stop-color:#FBFDFE;stop-opacity:0.1423"/>
		<stop  offset="0.8024" style="stop-color:#FFFFFF;stop-opacity:0"/>
	</radialGradient>
	<path opacity="0.5" fill="url(#SVGID_5_)" d="M528.486,652.223c0,16.613-7.953,31.75-18.186,33.896
		c-10.733,2.25-19.826-10.526-19.826-28.639c0-18.11,9.093-33.404,19.826-34.12C520.533,622.675,528.486,635.608,528.486,652.223z"
		/>
</g>
<g id="header">
	<path fill="#214096" d="M692.792,308.753L197.89,130.754c0,0-0.021-23-0.021-31.334s3.923-13.838,3.923-13.838l483.987,193.856
		c3.894,1.579,7.013,11.622,7.013,22.451V308.753z"/>
	<path fill="#84D2E0" d="M607.02,266.78c-0.02,2.818-0.997,4.751-2.188,4.318l-236.266-86.133c-2.293-0.835-4.138-4.706-4.111-8.64
		l0.077-11.035c0.027-3.935,1.917-6.388,4.208-5.486l236.218,93.123c1.189,0.469,2.137,3.133,2.116,5.951L607.02,266.78z"/>
</g>
<g id="hover-left">
	<radialGradient id="SVGID_6_" cx="428.4106" cy="436.3916" r="93.2883" gradientUnits="userSpaceOnUse">
		<stop  offset="0" style="stop-color:#84D2E0;stop-opacity:0"/>
		<stop  offset="0.1452" style="stop-color:#8DD5E2;stop-opacity:0.1089"/>
		<stop  offset="0.3823" style="stop-color:#A5DEE8;stop-opacity:0.2867"/>
		<stop  offset="0.6817" style="stop-color:#CDEDF2;stop-opacity:0.5113"/>
		<stop  offset="1" style="stop-color:#FFFFFF;stop-opacity:0.75"/>
	</radialGradient>
	<polygon fill="url(#SVGID_6_)" stroke="#84D2E0" stroke-width="4" stroke-miterlimit="10" points="531.928,514.688 
		324.894,518.182 324.894,354.602 531.928,381.416 	"/>
	<g id="text_2_">
		<polygon fill="#FFDA71" points="342.213,459.229 342.213,502.216 353.195,502.29 353.195,459.767 		"/>
		<polygon fill="#84D2E0" points="521.247,425.954 341.481,407.977 341.3,395.163 521.096,415.292 		"/>
		<polygon fill="#84D2E0" points="341.594,373.221 341.594,386.036 491.052,403.12 491.052,392.097 		"/>
		<polygon fill="#84D2E0" points="521.088,395.89 497.873,392.958 498.086,403.924 521.088,406.553 		"/>
	</g>
</g>
<g id="hover-right-top">
	<polygon opacity="0.75" fill="#7CABDB" points="698.073,522.124 552.1,519.896 552.1,247.386 698.073,299.63 	"/>
	<polygon fill="#214096" points="752.357,502.606 609.801,496.482 609.801,239.756 752.357,296.155 	"/>
	<polygon opacity="0.85" fill="#31A5DE" points="762.997,503.716 618.981,497.528 618.981,238.174 762.997,295.151 	"/>
	<g id="text_1_">
		<polygon fill="#FED9B1" points="643.932,386.549 643.932,392.318 711.021,405.415 711.021,400.203 		"/>
		<polygon fill="#FED9B1" points="643.779,266.175 643.779,271.987 709.351,295.979 709.351,290.711 		"/>
		<polygon fill="#FED9B1" points="744.573,303.891 732.88,299.516 732.88,304.588 744.573,308.866 		"/>
		<polygon fill="#FED9B1" points="643.778,279.103 643.778,284.872 677.407,296.642 677.407,291.151 		"/>
		<polygon fill="#FED9B1" points="744.369,344.336 643.868,313.271 643.868,307.5 744.369,339.402 		"/>
		<polygon fill="#FED9B1" points="744.497,328.396 665.42,301.823 665.42,307.413 744.497,333.328 		"/>
		<polygon fill="#FED9B1" points="643.693,322.634 643.693,328.405 711.048,347.751 711.048,342.539 		"/>
		<polygon fill="#FED9B1" points="744.241,352.349 714.075,343.434 714.075,348.621 744.241,357.285 		"/>
		<polygon fill="#FED9B1" points="643.472,351.384 643.472,357.158 677.929,365.624 677.929,360.137 		"/>
		<polygon fill="#FED9B1" points="744.08,376.942 680.946,360.904 680.946,366.366 744.08,381.879 		"/>
		<polygon fill="#FED9B1" points="643.868,337.095 643.868,342.865 695.745,356.688 695.745,351.349 		"/>
		<polygon fill="#FED9B1" points="643.472,366.126 643.472,371.899 702.408,384.96 702.408,379.677 		"/>
		<polygon fill="#FED9B1" points="744.08,389.258 704.743,380.213 704.743,385.477 744.08,394.194 		"/>
		<polygon fill="#FED9B1" points="744.204,419.787 729.361,417.093 729.361,422.15 744.204,424.721 		"/>
		<polygon fill="#FED9B1" points="643.72,401.551 643.72,407.32 658.393,409.86 658.393,404.213 		"/>
		<polygon fill="#FED9B1" points="726.656,416.603 660.7,404.632 660.7,410.261 726.656,421.682 		"/>
	</g>
	<path fill="#077CB6" d="M729.716,466.715c0,8.014-2.323,14.34-5.215,14.128l-57.789-4.239c-3.497-0.257-6.359-7.705-6.359-16.635
		l0,0c0-8.93,2.862-15.821,6.359-15.397l57.789,7.002C727.393,451.923,729.716,458.701,729.716,466.715L729.716,466.715z"/>
	<path fill="#BDE5EF" d="M744.968,465.837c0,8.601-2.494,15.39-5.598,15.162l-62.02-4.549c-3.754-0.276-6.826-8.27-6.826-17.854l0,0
		c0-9.583,3.072-16.979,6.826-16.524l62.02,7.515C742.474,449.962,744.968,457.236,744.968,465.837L744.968,465.837z"/>
	<radialGradient id="SVGID_7_" cx="676.9463" cy="458.8696" r="38.575" gradientUnits="userSpaceOnUse">
		<stop  offset="0" style="stop-color:#84D2E0;stop-opacity:0.8"/>
		<stop  offset="0.2097" style="stop-color:#A8DDE8;stop-opacity:0.75"/>
		<stop  offset="0.8" style="stop-color:#FFFFFF;stop-opacity:0"/>
	</radialGradient>
	<path opacity="0.35" fill="url(#SVGID_7_)" d="M707.325,460.246c0,24.101-12.832,43.768-29.25,43.935
		c-17.105,0.175-31.508-20.725-31.508-46.685c0-25.961,14.402-45.556,31.508-43.833
		C694.493,415.316,707.325,436.145,707.325,460.246z"/>
	<path opacity="0.75" fill="#FFFFFF" d="M739.831,481.164l-62.021-4.549c-3.753-0.276-6.825-8.27-6.825-17.854l0,0
		c0-9.583,2.762-16.353,6.825-16.525C673.142,471.557,668.874,479.063,739.831,481.164z"/>
</g>
<g id="hover-right-bottom">
	<polygon fill="#BDE5EF" points="686.392,637.54 539.688,659.858 539.688,538.739 686.392,538.742 	"/>
	<polygon opacity="0.75" fill="#33A5DE" points="697.056,630.527 550.352,652.846 550.352,531.727 697.056,531.729 	"/>
	<polygon fill="#214096" points="755.231,610.674 614.781,629.597 614.781,517.311 755.231,520.828 	"/>
	<polygon fill="#84D2E0" points="761.76,611.089 618.392,630.405 618.392,515.787 761.76,519.378 	"/>
	<polygon fill="#263B8B" points="757.017,606.99 624.463,624.041 624.463,522.866 757.017,526.036 	"/>
	<g id="text_4_">
		<polygon fill="#84D2E0" points="751.044,564.658 699.958,566.138 699.958,571.416 751.044,569.512 		"/>
		<polygon fill="#84D2E0" points="751.279,592.667 634.575,602.234 634.575,596.404 751.279,587.807 		"/>
		<polygon fill="#84D2E0" points="635.026,536.58 635.026,548.719 715.005,548.152 715.005,537.401 		"/>
		<polygon fill="#84D2E0" points="751.595,537.776 725.53,537.509 725.53,548.078 751.595,547.894 		"/>
		<polygon fill="#84D2E0" points="634.465,581.733 634.465,587.563 715.005,582.877 715.005,577.715 		"/>
		<polygon fill="#84D2E0" points="634.673,568.027 634.673,573.851 695.772,571.572 695.772,566.259 		"/>
	</g>
</g>
<g id="btn-close">
	<path fill="#FBB359" d="M555.741,383.228c0,13.678-8.312,23.373-18.812,21.612c-10.783-1.808-19.741-14.945-19.741-29.299
		c0-14.353,8.958-23.919,19.741-21.426C547.43,356.542,555.741,369.551,555.741,383.228z"/>
	<g>
		<g>
			<path fill="#FFFFFF" d="M536.77,383.863c-3.162,4.641-4.583,6.834-5.271,8.734c-0.092,0.358-0.322,0.307-0.769-0.092
				c-0.4-0.359-0.844-0.858-1.369-1.458s-0.996-1.14-1.356-1.664c-0.32-0.465-0.46-0.78-0.412-0.949
				c0.532-1.934,2.247-4.656,5.518-9.765c-3.697-4.983-5.568-7.848-6.441-10.005c-0.103-0.235-0.025-0.55,0.211-0.966
				c0.279-0.492,0.691-1.008,1.191-1.587s0.935-1.041,1.35-1.341c0.471-0.341,0.752-0.35,0.905,0.011
				c0.898,2.115,2.384,4.441,5.769,9.177c2.977-4.288,4.332-6.258,5.032-8.08c0.104-0.29,0.334-0.243,0.741,0.102
				c0.362,0.307,0.781,0.772,1.297,1.362s0.967,1.125,1.307,1.65c0.329,0.509,0.474,0.833,0.438,0.951
				c-0.503,1.885-2.042,4.354-5.092,9.141c3.997,5.413,6.134,8.544,6.898,10.73c0.084,0.183-0.006,0.475-0.256,0.889
				c-0.339,0.561-0.8,1.11-1.321,1.701s-0.943,1.047-1.306,1.335c-0.429,0.34-0.674,0.357-0.825-0.027
				C542.156,391.557,540.465,388.988,536.77,383.863z"/>
		</g>
	</g>
	<path fill="#FBB359" d="M801.683,526.146c0,10.143-5.758,18.398-13.023,18.44c-7.455,0.044-13.643-8.533-13.643-19.157
		c0-10.625,6.188-18.869,13.643-18.425C795.925,507.438,801.683,516.003,801.683,526.146z"/>
	<g>
		<g>
			<path fill="#FFFFFF" d="M788.39,528.957c-2.163,3.35-3.204,4.978-3.668,6.371c-0.063,0.26-0.211,0.244-0.497-0.008
				c-0.258-0.226-0.543-0.552-0.882-0.949s-0.645-0.76-0.876-1.121c-0.206-0.321-0.291-0.545-0.257-0.671
				c0.384-1.445,1.621-3.35,3.983-7.2c-2.222-3.541-3.326-5.241-3.796-6.688c-0.057-0.157,0.008-0.374,0.177-0.663
				c0.199-0.341,0.482-0.702,0.821-1.108c0.338-0.405,0.628-0.731,0.897-0.947c0.306-0.246,0.481-0.261,0.567-0.023
				c0.502,1.397,1.437,2.892,3.454,6.006c2.03-3.096,2.986-4.57,3.454-5.907c0.069-0.212,0.219-0.196,0.481,0.019
				c0.233,0.191,0.503,0.493,0.837,0.881s0.628,0.747,0.847,1.107c0.212,0.35,0.301,0.577,0.276,0.665
				c-0.36,1.401-1.464,3.104-3.663,6.71c2.412,3.835,3.664,5.768,4.054,7.25c0.046,0.124-0.026,0.325-0.205,0.612
				c-0.242,0.389-0.561,0.773-0.914,1.187s-0.634,0.731-0.87,0.936c-0.278,0.242-0.429,0.26-0.511,0.004
				C791.64,533.99,790.574,532.339,788.39,528.957z"/>
		</g>
	</g>
</g>
<g id="btn-reduce-hide-close">
	<path fill="none" stroke="#3D78BD" stroke-width="4" stroke-miterlimit="10" d="M677.95,218.901c0,8.152-3.477,13.483-7.797,11.896
		c-4.358-1.601-7.918-9.62-7.918-17.896c0-8.277,3.56-13.575,7.918-11.85C674.474,202.764,677.95,210.75,677.95,218.901z"/>
	<polygon fill="none" stroke="#3D78BD" stroke-width="2" stroke-miterlimit="10" points="673.257,217.496 668.974,215.811 
		668.974,207.823 673.257,209.553 	"/>
	<polygon fill="none" stroke="#3D78BD" stroke-width="2" stroke-miterlimit="10" points="671.115,223.452 666.831,221.767 
		666.831,213.779 671.115,215.509 	"/>
	<path fill="none" stroke="#84D2E0" stroke-width="4" stroke-miterlimit="10" d="M655.371,209.546
		c0,8.293-3.537,13.717-7.932,12.102c-4.435-1.629-8.056-9.787-8.056-18.207s3.621-13.811,8.056-12.054
		C651.834,193.13,655.371,201.254,655.371,209.546z"/>
	
		<line fill="none" stroke="#84D2E0" stroke-width="2" stroke-miterlimit="10" x1="642.772" y1="208.821" x2="651.983" y2="213.116"/>
	<path fill="none" stroke="#FBB359" stroke-width="4" stroke-miterlimit="10" d="M701.569,229.459
		c0,8.293-3.537,13.717-7.933,12.102c-4.435-1.629-8.056-9.786-8.056-18.206c0-8.42,3.621-13.811,8.056-12.054
		C698.032,213.043,701.569,221.167,701.569,229.459z"/>
	<g>
		<g>
			<path fill="#FBB359" d="M693.75,228.636c-0.957,2.395-1.416,3.448-1.454,4.486c0.003,0.192-0.047,0.201-0.178,0.057
				c-0.118-0.129-0.264-0.328-0.453-0.589s-0.372-0.515-0.523-0.781c-0.135-0.237-0.202-0.41-0.203-0.517
				c-0.005-0.613,0.194-1.343,0.446-2.165s0.578-1.768,1.075-3.061c-0.642-1.235-1.081-2.182-1.425-3.024s-0.624-1.611-0.717-2.263
				c-0.022-0.143,0.017-0.318,0.113-0.529c0.113-0.25,0.271-0.49,0.45-0.741c0.179-0.25,0.325-0.432,0.449-0.537
				c0.141-0.119,0.212-0.098,0.239,0.089c0.154,1.094,0.646,2.256,1.809,4.632c0.906-2.198,1.326-3.148,1.38-4.126
				c0.007-0.155,0.059-0.16,0.178-0.036c0.105,0.11,0.24,0.293,0.422,0.545c0.181,0.251,0.354,0.499,0.495,0.761
				c0.138,0.255,0.204,0.427,0.204,0.5c0.007,0.584-0.171,1.263-0.398,2.025s-0.523,1.65-0.981,2.866
				c0.694,1.34,1.183,2.34,1.558,3.261s0.679,1.76,0.749,2.44c0.018,0.117-0.028,0.282-0.13,0.493
				c-0.138,0.287-0.314,0.542-0.501,0.795c-0.186,0.252-0.324,0.431-0.434,0.531c-0.129,0.119-0.183,0.099-0.205-0.104
				c-0.064-0.567-0.314-1.272-0.623-2.05S694.386,229.927,693.75,228.636z"/>
		</g>
	</g>
</g>
</svg>
