<?xml version="1.0" encoding="utf-8"?>
<!-- Generator: Adobe Illustrator 16.0.0, SVG Export Plug-In . SVG Version: 6.00 Build 0)  -->
<!DOCTYPE svg PUBLIC "-//W3C//DTD SVG 1.1//EN" "http://www.w3.org/Graphics/SVG/1.1/DTD/svg11.dtd">
<svg version="1.1" id="Calque_1" xmlns="http://www.w3.org/2000/svg" xmlns:xlink="http://www.w3.org/1999/xlink" x="0px" y="0px"
	 width="850px" height="850px" viewBox="0 0 850 850" enable-background="new 0 0 850 850" xml:space="preserve">
<linearGradient id="SVGID_1_" gradientUnits="userSpaceOnUse" x1="438.627" y1="191.166" x2="546.3389" y2="191.166">
	<stop  offset="0" style="stop-color:#F1F1F2"/>
	<stop  offset="1" style="stop-color:#939597"/>
</linearGradient>
<path fill="url(#SVGID_1_)" d="M542.574,196.074l-99.408-26.944c-2.502-0.679-4.539,1.833-4.539,5.614v11.028l107.712,27.541
	v-10.008C546.339,199.875,544.655,196.638,542.574,196.074z"/>
<g opacity="0.9">
	<path fill="#34A2DC" d="M438.627,305.937c0,3.78,2.037,7.144,4.539,7.509l99.408,14.576c2.081,0.305,3.765-2.229,3.765-5.659
		V213.313l-107.712-27.541V305.937z"/>
	<linearGradient id="SVGID_2_" gradientUnits="userSpaceOnUse" x1="420.5234" y1="211.627" x2="558.225" y2="308.0466">
		<stop  offset="0" style="stop-color:#BEE6EF"/>
		<stop  offset="0.1952" style="stop-color:#D2EDF3;stop-opacity:0.8048"/>
		<stop  offset="0.4847" style="stop-color:#E9F6F9;stop-opacity:0.5153"/>
		<stop  offset="0.7591" style="stop-color:#F8FCFD;stop-opacity:0.2409"/>
		<stop  offset="1" style="stop-color:#FFFFFF;stop-opacity:0"/>
	</linearGradient>
	<path fill="url(#SVGID_2_)" d="M438.627,305.937c0,3.78,2.037,7.144,4.539,7.509l99.408,14.576
		c2.081,0.305,3.765-2.229,3.765-5.659v-109.05l-107.712-27.541V305.937z"/>
</g>
<g>
	<polygon fill="#FED9B1" points="460.365,300.934 447.045,298.805 447.045,294.013 460.365,296.197 	"/>
	<polygon fill="#FED9B1" points="470.028,302.478 462.207,301.227 462.207,296.499 470.028,297.782 	"/>
	<polygon fill="#FED9B1" points="470.028,291.523 447.045,287.629 447.045,279.264 470.028,283.324 	"/>
</g>
<path fill="#253E88" d="M454.032,221.106c3.148,0.97,6.277,6.989,9.054,17.372c0.215,1.229,2.291,12.438,6.84,15.774
	c2.085,1.527,4.313,1.169,6.617-1.059l0.059-0.063c0.027-0.035,2.8-3.377,5.781-1.419c2.64,1.731,4.803,7.281,6.256,15.986
	c3.086,22.123,8.335,36.743,13.397,37.561c0.067,0.01,0.138,0.02,0.206,0.025c5.001,0.44,8.711-12.56,10.75-37.502
	c0.01-0.098,0.906-9.881,2.391-19.549c2.613-17.028,4.703-18.912,5.479-18.933c0.665-0.016,1.48,1.515,2.291,4.314
	c0.254,1.07,3.447,14.19,8.854,17.262c2.036,1.156,4.09,0.726,6.125-1.258v-2.884c-1.986,2.387-3.947,3.064-5.831,1.99
	c-4.783-2.723-7.819-15.571-7.851-15.702l-0.024-0.095c-1.161-4.031-2.399-5.977-3.79-5.942c-1.512,0.038-3.847,2.189-6.646,20.411
	c-1.503,9.779-2.412,19.677-2.423,19.791c-2.685,32.788-7.456,35.934-9.392,35.759c-0.048-0.004-0.096-0.01-0.143-0.019
	c-4.206-0.69-9.098-15.15-11.937-35.514c-1.624-9.751-4.073-15.775-7.29-17.893c-3.646-2.405-6.841,1.164-7.213,1.606
	c-1.863,1.781-3.6,2.107-5.158,0.963c-3.925-2.882-5.828-13.892-5.848-14.003l-0.037-0.174
	c-3.074-11.544-6.582-18.024-10.438-19.216c-3.09-0.95-5.642,1.721-7.253,4.172v4.023
	C447.91,224.773,450.673,220.076,454.032,221.106z"/>
<path fill="#FBB359" d="M525.69,229.275c0,4.531-2.267,7.686-5.076,7.045c-2.821-0.646-5.122-4.878-5.122-9.451
	c0-4.575,2.301-7.722,5.122-7.034C523.424,220.52,525.69,224.744,525.69,229.275z"/>
<path opacity="0.75" fill="#FED9B1" d="M531.254,228.275c0,4.531-2.267,7.686-5.076,7.045c-2.821-0.646-5.121-4.878-5.121-9.451
	c0-4.575,2.3-7.722,5.121-7.034C528.987,219.52,531.254,223.744,531.254,228.275z"/>
<g id="loop-back">
	
		<linearGradient id="SVGID_3_" gradientUnits="userSpaceOnUse" x1="83.9116" y1="292.0825" x2="340.7139" y2="292.0825" gradientTransform="matrix(0.9951 -0.0994 0.0994 0.9951 -41.9805 -17.8379)">
		<stop  offset="0" style="stop-color:#939597"/>
		<stop  offset="0" style="stop-color:#D1D2D4"/>
		<stop  offset="1" style="stop-color:#59585B"/>
	</linearGradient>
	<path fill="url(#SVGID_3_)" d="M324.054,224.715c-6.364-35.167-21.057-68.597-42.567-95.957
		c-23.71-30.161-53.41-50.038-84.708-56.293c-7.482-1.925-21.302-2.115-21.521-2.113c-30.091,0.187-57.476,13.855-77.83,39.806
		c-22.535,28.731-33.524,68.742-30.878,112.923c0.013,0.212,0.427,10.114,3.626,28.832c7.671,40.052,25.875,76.952,51.902,105.116
		l71.177,77.025l62.565-3.991l48.098-76.642c17.773-28.319,25.822-64.703,23.246-103.571
		C326.101,237.602,324.079,224.854,324.054,224.715z M286.948,249.79c0.854,23.582-4.315,46.574-16.094,64.679l-49.966,76.8
		l-68.98-76.956c-14.97-16.701-25.394-37.518-30.847-59.317c-0.008-0.225-4.303-30.483-4.311-30.708
		c-0.811-25.707,5.517-50.268,19.318-68.609c11.022-14.65,25.263-23.239,40.605-26.077c0.286-0.054,12.775-1.87,23.566,0.018
		c19.692,3.513,39.505,15.585,55.722,35.691c13.39,16.599,22.536,36.452,27.271,56.802
		C283.262,222.237,286.274,237.338,286.948,249.79z"/>
	
		<linearGradient id="SVGID_4_" gradientUnits="userSpaceOnUse" x1="100.9526" y1="774.6426" x2="326.0665" y2="549.5287" gradientTransform="matrix(0.9951 -0.0994 0.0994 0.9951 -41.9805 -17.8379)">
		<stop  offset="0" style="stop-color:#939597"/>
		<stop  offset="0" style="stop-color:#D1D2D4"/>
		<stop  offset="1" style="stop-color:#59585B"/>
	</linearGradient>
	<path fill="url(#SVGID_4_)" d="M362.267,599.824c-5.17-38.711-20.342-73.694-43.521-99.559l-62.926-70.203l-62.565,3.991
		l-54.864,84.339c-20.122,30.929-30.782,69.558-30.411,110.044c-0.013,17.207,2.197,29.304,2.27,29.812
		c6.282,43.589,25.011,81.465,52.788,106.988c25.2,23.163,54.889,33.404,84.586,30.075c0.284-0.034,12.81-1.273,21.043-4.681
		c29.676-9.914,55.073-33.094,72.509-65.72c15.755-29.476,23.634-64.085,23.017-99.436
		C364.188,625.187,364.468,612.368,362.267,599.824z M324.358,632.953c-0.706,20.509-5.797,41.033-15.652,58.893
		c-12.031,21.793-29.208,36.084-47.965,41.904c-7.183,2.955-22.993,2.848-23.291,2.828c-15.715-0.978-31.481-7.767-45.275-20.92
		c-17.426-16.621-28.595-40.399-32.813-66.152c-2.086-13.863-1.688-30.934-1.668-31.308c1.21-21.798,7.363-43.183,18.644-61.162
		l52.872-84.258l64.604,69.917c15.23,16.482,24.901,38.584,28.737,61.984C325.216,620.887,324.368,632.664,324.358,632.953z"/>
	<linearGradient id="loop_1_" gradientUnits="userSpaceOnUse" x1="82.4146" y1="429.4551" x2="384.7783" y2="429.4551">
		<stop  offset="0" style="stop-color:#939597"/>
		<stop  offset="1" style="stop-color:#414142"/>
	</linearGradient>
	<path id="loop" fill="url(#loop_1_)" d="M382.79,598.545c-5.245-39.269-20.636-74.759-44.148-100.992l-63.833-71.217l48.791-77.748
		c18.03-28.729,26.194-65.636,23.581-105.064c-1.078-12.424-3.129-25.356-3.154-25.498c-6.458-35.674-21.361-69.584-43.182-97.341
		c-24.053-30.595-54.181-50.758-85.93-57.105c-7.59-1.953-21.61-2.145-21.831-2.142c-30.525,0.188-58.305,14.054-78.952,40.378
		C91.27,130.961,80.124,171.55,82.807,216.368c0.013,0.214,0.434,10.261,3.678,29.248c7.783,40.629,26.249,78.061,52.651,106.632
		l72.203,78.136l-55.655,85.556c-20.412,31.374-31.225,70.562-30.849,111.63c-0.013,17.457,2.229,29.727,2.303,30.242
		c6.373,44.216,25.372,82.641,53.549,108.531c25.563,23.496,55.681,33.884,85.806,30.507c0.289-0.033,12.995-1.29,21.349-4.746
		c30.103-10.057,55.866-33.571,73.554-66.669c15.982-29.899,23.975-65.009,23.349-100.869
		C384.738,624.273,385.022,611.27,382.79,598.545z M169.396,308.916c-15.186-16.942-25.761-38.059-31.292-60.172
		c-0.008-0.229-4.365-30.923-4.372-31.151c-0.823-26.08,5.596-50.994,19.597-69.6c11.182-14.86,25.627-23.573,41.19-26.453
		c0.29-0.054,12.959-1.896,23.905,0.019c19.977,3.563,40.075,15.811,56.526,36.205c13.584,16.838,22.86,36.979,27.665,57.622
		c0.03,0.127,3.085,15.446,3.769,28.078c0.867,23.923-4.377,47.246-16.326,65.61l-50.687,77.908L169.396,308.916z M344.333,632.151
		c-0.716,20.804-5.88,41.625-15.877,59.739c-12.204,22.109-29.628,36.608-48.657,42.513c-7.286,2.996-23.325,2.888-23.626,2.867
		c-15.941-0.991-31.936-7.879-45.928-21.221c-17.678-16.86-29.007-40.981-33.286-67.107c-2.116-14.063-1.712-31.378-1.692-31.758
		c1.228-22.112,7.469-43.806,18.912-62.045l53.634-85.473l65.537,70.926c15.45,16.72,25.259,39.14,29.151,62.877
		C345.205,619.91,344.345,631.859,344.333,632.151z"/>
</g>
<g opacity="0.9">
	<path fill="#263D89" d="M244.26,119.91c19.838,3.54,39.798,15.702,56.136,35.956c13.573,16.826,22.816,36.973,27.562,57.606
		l23.779,29.217l17.333-26.557c-6.373-35.582-21.205-69.416-42.96-97.089c-23.887-30.384-53.806-50.41-85.336-56.712l23.86,29.789
		L244.26,119.91z"/>
	<path fill="#253E88" d="M282.646,731.429c-16.127-0.777-32.352-7.624-46.511-21.126c-17.556-16.743-28.808-40.699-33.057-66.643
		l-21.051,34.339l-28.642-27.071c6.105,44.558,25.086,83.311,53.396,109.321c25.629,23.558,55.869,33.849,86.071,30.195
		l17.737-32.071L282.646,731.429z"/>
	<path fill="#253E88" d="M338.53,536.056c15.343,16.605,25.084,38.87,28.95,62.443l16.951-30.037l23.061,25.146
		c-5.209-38.999-20.494-74.242-43.844-100.297l-63.394-70.724l-35.192-39.083l-69.492-77.529
		c-15.082-16.825-25.584-37.796-31.077-59.758l-29.05-32.727l-22.213,29.622c7.729,40.35,26.067,77.523,52.288,105.897
		l71.706,77.596l36.222,39.013L338.53,536.056z"/>
	
		<linearGradient id="SVGID_5_" gradientUnits="userSpaceOnUse" x1="264.6646" y1="440.1523" x2="396.194" y2="308.6229" gradientTransform="matrix(0.9951 -0.0994 0.0994 0.9951 -41.9805 -17.8379)">
		<stop  offset="0" style="stop-color:#1D2C59"/>
		<stop  offset="0.0365" style="stop-color:#1F2F60"/>
		<stop  offset="0.1212" style="stop-color:#22356F"/>
		<stop  offset="0.2211" style="stop-color:#24397A"/>
		<stop  offset="0.3448" style="stop-color:#243C82"/>
		<stop  offset="0.5183" style="stop-color:#253E87"/>
		<stop  offset="1" style="stop-color:#253E88"/>
	</linearGradient>
	<path fill="url(#SVGID_5_)" d="M348.709,345.375c17.904-28.53,26.014-65.184,23.417-104.341l-17.799,27.604l-22.715-27.665
		c0.861,23.758-4.347,46.921-16.212,65.159l-50.339,77.372l35.192,39.083L348.709,345.375z"/>
	
		<linearGradient id="SVGID_6_" gradientUnits="userSpaceOnUse" x1="119.8159" y1="651.6143" x2="267.547" y2="503.8831" gradientTransform="matrix(0.9951 -0.0994 0.0994 0.9951 -41.9805 -17.8379)">
		<stop  offset="0" style="stop-color:#253E88"/>
		<stop  offset="0.4778" style="stop-color:#253E87"/>
		<stop  offset="0.6522" style="stop-color:#243C82"/>
		<stop  offset="0.777" style="stop-color:#24397A"/>
		<stop  offset="0.8781" style="stop-color:#22356F"/>
		<stop  offset="0.9638" style="stop-color:#1F2F60"/>
		<stop  offset="1" style="stop-color:#1D2C59"/>
	</linearGradient>
	<path fill="url(#SVGID_6_)" d="M201.34,613.252c1.066-22.353,7.28-44.326,18.84-62.748l53.265-84.886l-36.222-39.013
		l-55.271,84.968c-20.271,31.158-31.01,70.076-30.637,110.861l27.823,26.616L201.34,613.252z"/>
	<path fill="#233F87" d="M369.327,626.11c-0.594,20.95-5.726,41.958-15.795,60.203c-12.12,21.956-29.424,36.355-48.322,42.216
		l25.644,25.022l-17.657,32.28c29.895-9.985,55.48-33.34,73.047-66.208c16.001-29.938,23.937-65.134,23.17-101.046l-22.394-24.176
		L369.327,626.11z"/>
	<path fill="#233F87" d="M160.174,215.962c-0.952-26.147,5.413-51.161,19.438-69.8c11.312-15.034,25.986-23.732,41.772-26.424
		l22.265-29.962l-23.897-29.574c-30.573-0.009-58.414,13.77-79.068,40.104c-22.813,29.083-33.878,69.64-31.067,114.402
		l22.934-30.168L160.174,215.962z"/>
</g>
<g id="loop-front">
	<g>
		<g>
			<path fill="#84D1DD" d="M289.1,58.556c11.387,3.534,22.542,8.916,33.289,16.071c14.32,9.534,27.563,21.979,39.363,36.989
				c21.216,26.984,35.863,59.79,42.412,94.96l-13.679,20.96l-20.031-24.611c-5.188-21.957-15.021-42.345-28.473-59.018
				c-14.988-18.581-33.641-31.348-53.088-36.467l17-23.185l1.813-2.473l-1.917-2.393L289.1,58.556 M278.512,51.735l24.155,30.155
				l-20.626,28.13c20.083,3.582,40.288,15.895,56.827,36.398c13.741,17.032,23.097,37.427,27.901,58.314l24.072,29.577
				l17.545-26.883c-6.45-36.02-21.464-70.27-43.489-98.283C340.717,78.386,310.428,58.114,278.512,51.735L278.512,51.735z"/>
		</g>
		<g>
			<path fill="#84D1DD" d="M381.178,205.189l13.197,0.854l-5.564,8.524L381.178,205.189 M376.734,202.897l12.254,15.057
				l8.933-13.686C376.734,202.897,376.734,202.897,376.734,202.897L376.734,202.897z"/>
		</g>
	</g>
	<path opacity="0.9" fill="#34A2DC" d="M377.469,531.283c15.533,16.81,25.394,39.349,29.306,63.211l17.16-30.407l23.343,25.456
		c-5.272-39.479-20.745-75.154-44.382-101.529l-64.174-71.594l-35.625-39.564l-70.346-78.481
		c-15.267-17.032-25.899-38.262-31.459-60.493l-29.407-33.131l-22.486,29.987c7.825,40.846,26.389,78.476,52.931,107.198
		l72.587,78.551l36.667,39.492L377.469,531.283z"/>
	<path opacity="0.8" fill="#BEE6EF" d="M408.646,622.444c-0.603,21.207-5.797,42.475-15.99,60.942
		c-12.27,22.228-29.787,36.803-48.917,42.737l25.959,25.329l-17.875,32.677c30.263-10.107,56.162-33.749,73.946-67.021
		c16.198-30.304,24.233-65.934,23.455-102.288l-22.667-24.472L408.646,622.444z"/>
	<g>
		<path fill="#84D1DD" d="M191.813,656.729c0,0,21.741,19.233,29.953,27.19l20.218-34.613c0,0,2.297,17.1,6.566,25.927
			l-18.002,35.694c0,0-21.09-12.37-30.396-20.791C200.153,690.137,194.743,671.948,191.813,656.729z"/>
		<path fill="#84D1DD" d="M187.904,618.777l28.394,26.472l21.504-36.171c0,0-0.578,16.37,2.241,30.484l-20.363,34.754
			c0,0-19.992-18.593-29.298-27.014C190.381,647.303,188.129,633.077,187.904,618.777z"/>
	</g>
</g>
<g>
	
		<radialGradient id="SVGID_7_" cx="92.5732" cy="668.5938" r="15.9301" gradientTransform="matrix(0.9951 -0.0994 0.0994 0.9951 -41.9805 -17.8379)" gradientUnits="userSpaceOnUse">
		<stop  offset="0.081" style="stop-color:#84D1DD"/>
		<stop  offset="1" style="stop-color:#FED9B1;stop-opacity:0"/>
	</radialGradient>
	<path opacity="0.75" fill="url(#SVGID_7_)" d="M130.974,635.658c0.932,9.336-4.65,18.132-12.541,19.657
		c-7.971,1.54-15.262-4.908-16.211-14.418c-0.95-9.509,4.816-18.336,12.804-19.705C122.934,619.838,130.041,626.319,130.974,635.658
		z"/>
	<g>
		
			<radialGradient id="SVGID_8_" cx="93.3481" cy="668.6992" r="5.0793" gradientTransform="matrix(0.9951 -0.0994 0.0994 0.9951 -42.7256 -17.8379)" gradientUnits="userSpaceOnUse">
			<stop  offset="0" style="stop-color:#84D1DD"/>
			<stop  offset="0.3341" style="stop-color:#82CEDD;stop-opacity:0.7996"/>
			<stop  offset="0.551" style="stop-color:#79C7DC;stop-opacity:0.6694"/>
			<stop  offset="0.7346" style="stop-color:#68BCDB;stop-opacity:0.5593"/>
			<stop  offset="0.8987" style="stop-color:#4FADDA;stop-opacity:0.4608"/>
			<stop  offset="1" style="stop-color:#34A1DB;stop-opacity:0.4"/>
		</radialGradient>
		<path fill="url(#SVGID_8_)" d="M121.176,637.467c0.3,2.995-1.494,5.794-4.014,6.256c-2.534,0.461-4.842-1.615-5.144-4.635
			c-0.302-3.022,1.519-5.826,4.055-6.262C118.598,632.393,120.878,634.473,121.176,637.467z"/>
	</g>
</g>
<g>
	
		<radialGradient id="SVGID_9_" cx="93.5483" cy="696.9053" r="22.0883" gradientTransform="matrix(0.9951 -0.0994 0.0994 0.9951 -41.9805 -17.8379)" gradientUnits="userSpaceOnUse">
		<stop  offset="0.081" style="stop-color:#FBB359"/>
		<stop  offset="1" style="stop-color:#FED9B1;stop-opacity:0"/>
	</radialGradient>
	<path opacity="0.75" fill="url(#SVGID_9_)" d="M140.316,662.721c1.292,12.945-6.449,25.141-17.39,27.257
		c-11.053,2.136-21.162-6.807-22.479-19.991c-1.316-13.186,6.678-25.426,17.754-27.323
		C129.167,640.785,139.023,649.771,140.316,662.721z"/>
	<g>
		<path fill="#FBB359" d="M119.991,673.457c-2.718,0-5.014-2.463-5.34-5.729c-0.371-3.712,1.836-7.163,4.92-7.691
			c0.263-0.046,0.529-0.068,0.791-0.068c2.717,0,5.012,2.463,5.338,5.729c0.367,3.679-1.819,7.126-4.874,7.685
			C120.549,673.432,120.268,673.457,119.991,673.457z"/>
		<path fill="#F3A958" d="M120.362,660.468L120.362,660.468c2.459,0,4.541,2.269,4.841,5.278c0.342,3.426-1.662,6.631-4.465,7.144
			c-0.249,0.045-0.5,0.067-0.747,0.067c-2.46,0-4.542-2.27-4.842-5.279c-0.345-3.456,1.677-6.664,4.508-7.149
			C119.891,660.488,120.128,660.468,120.362,660.468 M120.362,659.468c-0.288,0-0.581,0.024-0.875,0.075
			c-3.336,0.572-5.73,4.26-5.333,8.234c0.36,3.601,2.886,6.18,5.837,6.18c0.305,0,0.614-0.027,0.926-0.084
			c3.317-0.606,5.674-4.287,5.281-8.227C125.84,662.056,123.319,659.468,120.362,659.468L120.362,659.468z"/>
	</g>
</g>
<g id="gear">
	<path fill="#84D1DD" d="M111.954,439.521v5.165c2.177,1.027,3.589,1.362,4.288,3.418c0.707,2.08-0.153,3.445-1.125,5.857
		l3.034,3.765c2.071-1.095,3.221-2.048,4.903-1.139c1.672,0.9,1.891,2.581,2.658,5.209l4.238,0.165
		c0.761-2.556,0.98-4.211,2.646-4.98c1.643-0.759,2.757,0.27,4.808,1.534l2.956-3.464c-0.964-2.498-1.78-3.9-1.096-5.866
		c0.677-1.962,2.048-2.166,4.152-2.971v-5.069c-2.126-1.028-3.475-1.357-4.152-3.387c-0.682-2.034,0.131-3.343,1.096-5.761
		l-2.956-3.762c-2.027,1.049-3.16,1.979-4.818,1.051c-1.656-0.928-1.875-2.602-2.636-5.238l-4.238-0.261
		c-0.765,2.54-0.986,4.205-2.658,4.942c-1.679,0.739-2.815-0.319-4.903-1.635l-3.034,3.462c0.989,2.552,1.826,3.979,1.125,5.969
		C115.543,438.518,114.134,438.706,111.954,439.521z M127.833,436.109c3.103,0.168,5.608,3.334,5.608,7.071
		s-2.506,6.651-5.608,6.509c-3.113-0.144-5.646-3.311-5.646-7.073S124.72,435.94,127.833,436.109z"/>
	<path fill="#84D1DD" d="M127.833,404.975c-6.793-0.495-13.129,1.667-18.358,5.735l-4.616-7.444l-5.229,18.958l17.651,1.084
		l-4.533-7.312c4.313-3.31,9.507-5.079,15.085-4.693c14.346,0.99,25.812,15.738,25.812,32.927c0,17.19-11.465,30.789-25.812,30.342
		c-14.594-0.455-26.633-15.23-26.633-32.969c0-3.358,0.437-6.573,1.239-9.572l-5.636-0.314c-0.672,3.054-1.031,6.276-1.031,9.614
		c0,21.354,14.517,39.049,32.062,39.53c17.185,0.471,30.878-15.813,30.878-36.377C158.711,423.918,145.018,406.226,127.833,404.975z
		"/>
</g>
<g id="cloud">
	<path fill="#84D1DD" d="M511.753,500.669c5.056-0.141,8.603,6.192,8.132,15.367c2.529-0.205,6.403,1.464,6.403,8.258
		c0,4.416-2.261,8.13-5.05,8.278l-19.113,1.015c-2.887,0.153-5.245-3.399-5.245-7.917c0-6.549,3.72-9.124,6.636-8.979
		C503.267,506.876,506.795,500.807,511.753,500.669z M511.753,496.04c-5.917,0.144-10.774,7.591-11.091,16.825
		c-3.855,1.228-6.798,6.604-6.798,12.945c0,7.128,3.712,12.698,8.261,12.44l19.113-1.084c4.385-0.248,7.917-6.072,7.917-13.007
		c0-6.17-2.797-11.186-6.501-12.108C522.35,502.993,517.615,495.898,511.753,496.04z M505.844,551.992v-4.65l4.438-0.284v-4.635
		l2.939-0.178v4.625l4.387-0.28v4.608L505.844,551.992z M519.063,546.496v4.604l4.346-0.293v-4.588L519.063,546.496z
		 M504.359,547.437l-4.477,0.286v4.672l4.477-0.302V547.437z"/>
	<g>
		<path fill="#84D1DD" d="M530.522,491.053v65.13l-38.455,2.928v-67.417L530.522,491.053 M535.522,485.969l-48.455,0.808v77.729
			l48.455-3.689V485.969L535.522,485.969z"/>
	</g>
</g>
<g id="wire">
	<polyline fill="none" stroke="#84D1DD" stroke-width="4" stroke-miterlimit="10" points="554.96,541.538 589,541.575 589,755.958 
		697.728,771.47 	"/>
	<path fill="#84D1DD" d="M562.005,542.415c0-5.472-3.126-9.919-7.005-9.936c-3.902-0.015-7.084,4.462-7.084,9.995
		s3.182,9.979,7.084,9.932C558.879,552.359,562.005,547.886,562.005,542.415z"/>
</g>
<path fill="#939597" d="M748.639,778.475c-4.955,1.65-15.844,1.65-24.19,0c-8.257-1.632-10.777-4.24-5.759-5.827
	c4.966-1.571,15.531-1.571,23.725,0C750.695,774.234,753.539,776.843,748.639,778.475z"/>
<linearGradient id="SVGID_10_" gradientUnits="userSpaceOnUse" x1="716.1113" y1="771.585" x2="751.043" y2="771.585">
	<stop  offset="0" style="stop-color:#B8B8B9"/>
	<stop  offset="0.25" style="stop-color:#F1F1F2"/>
	<stop  offset="1" style="stop-color:#939597"/>
</linearGradient>
<path fill="url(#SVGID_10_)" d="M751.043,776.704v-11.108l-34.932-2.079v11.021c1.056,3.915,17.463,5.044,17.463,5.044
	S749.75,780.368,751.043,776.704z"/>
<g>
	<path fill="#939597" d="M748.639,767.596c-4.955,1.65-15.844,1.65-24.19,0c-8.257-1.632-10.777-4.24-5.759-5.827
		c4.966-1.571,15.531-1.571,23.725,0C750.695,763.355,753.539,765.964,748.639,767.596z"/>
	<path fill="#84D1DD" d="M740.521,766.521c1.316,0.253,2.448,0.539,3.4,0.844c0.547-0.114,1.051-0.241,1.488-0.386
		c3.852-1.282,1.617-3.333-4.89-4.579c-6.438-1.235-14.739-1.235-18.642,0c-3.199,1.011-2.497,2.552,1.349,3.782
		C727.48,765.303,734.746,765.413,740.521,766.521z"/>
	<path fill="#34A2DC" d="M743.922,767.364c-0.952-0.305-2.084-0.591-3.4-0.844c-5.775-1.107-13.041-1.218-17.294-0.339
		c0.893,0.287,1.954,0.555,3.177,0.797C732.225,768.128,739.61,768.256,743.922,767.364z"/>
</g>
<linearGradient id="SVGID_11_" gradientUnits="userSpaceOnUse" x1="734.582" y1="512.0557" x2="734.582" y2="767.9902">
	<stop  offset="0" style="stop-color:#939597;stop-opacity:0"/>
	<stop  offset="0.7196" style="stop-color:#84D1DD"/>
	<stop  offset="1" style="stop-color:#34A2DC"/>
</linearGradient>
<path opacity="0.7" fill="url(#SVGID_11_)" d="M771.436,512.056h-73.708l22.128,252.147c3.372,3.746,13.727,3.746,13.727,3.746
	s13.104,0.544,13.719-2.353L771.436,512.056z"/>
<g id="rocket">
	<path fill="#98D9EF" d="M775.258,500.859c-0.059-5.636-1.531-17.512-21.384-30.146l3.688-3.688
		c18.256,6.768,29.431,26.877,30.435,46.54c-20.857-1.056-40.613-12.047-47.451-29.511l3.644-3.662
		C756.676,499.28,769.443,500.788,775.258,500.859z"/>
	<path fill="#98D9EF" d="M761.348,451.732c-2.488-6.585-5.818-13.295-10.07-19.696c7.846-0.042,17.697,4.206,25.207,11.722
		c2.863,2.862,5.388,6.212,7.334,9.963C777.039,448.594,769.811,446.986,761.348,451.732z"/>
	<path fill="#98D9EF" d="M728.121,509.438c-3.756-1.943-7.1-4.468-9.971-7.343c-7.533-7.53-11.79-17.402-11.713-25.258
		c6.949,4.538,13.779,7.816,19.691,10.126C721.381,495.439,722.982,502.665,728.121,509.438z"/>
	<path fill="#98D9EF" d="M678.24,403.738c1.89-0.13,3.741-0.193,5.563-0.193c39.421,0,61.861,30.066,70.024,54.244l-21.67,21.682
		c-24.876-8.922-54.154-30.54-54.154-69.549v-0.266C678.013,407.731,678.092,405.757,678.24,403.738z M717.074,449.168
		c1.795,1.795,4.695,1.786,6.482,0c1.793-1.795,1.793-4.688,0-6.482c-1.791-1.795-4.688-1.795-6.482,0
		C715.285,444.48,715.285,447.373,717.074,449.168z M697.638,436.203c3.576,3.576,9.381,3.576,12.956,0
		c3.581-3.576,3.581-9.383,0-12.964c-3.575-3.578-9.38-3.578-12.956,0C694.057,426.82,694.057,432.627,697.638,436.203z"/>
</g>
<path fill="#84D1DD" d="M709.845,774.105c-4.528,1.509-14.482,1.509-22.112,0c-7.548-1.491-9.852-3.876-5.264-5.326
	c4.539-1.437,14.197-1.437,21.687,0C711.725,770.229,714.325,772.614,709.845,774.105z"/>
</svg>
