<?xml version="1.0" encoding="utf-8"?>
<!-- Generator: Adobe Illustrator 16.0.0, SVG Export Plug-In . SVG Version: 6.00 Build 0)  -->
<!DOCTYPE svg PUBLIC "-//W3C//DTD SVG 1.1//EN" "http://www.w3.org/Graphics/SVG/1.1/DTD/svg11.dtd">
<svg version="1.1" id="Calque_1" xmlns="http://www.w3.org/2000/svg" xmlns:xlink="http://www.w3.org/1999/xlink" x="0px" y="0px"
	 width="1920px" height="788px" viewBox="0 0 1920 788" enable-background="new 0 0 1920 788" xml:space="preserve">
<linearGradient id="SVGID_1_" gradientUnits="userSpaceOnUse" x1="-274.02" y1="174.9531" x2="1044.7656" y2="174.9531" gradientTransform="matrix(0.9921 0.125 -0.125 0.9921 11.0206 -79.7255)">
	<stop  offset="0" style="stop-color:#84D2E0"/>
	<stop  offset="0.294" style="stop-color:#87D3E0;stop-opacity:0.706"/>
	<stop  offset="0.4709" style="stop-color:#91D6E2;stop-opacity:0.5291"/>
	<stop  offset="0.6167" style="stop-color:#A0DBE6;stop-opacity:0.3833"/>
	<stop  offset="0.7457" style="stop-color:#B6E2EA;stop-opacity:0.2543"/>
	<stop  offset="0.8635" style="stop-color:#D1ECF1;stop-opacity:0.1365"/>
	<stop  offset="0.9718" style="stop-color:#F1F9FA;stop-opacity:0.0282"/>
	<stop  offset="1" style="stop-color:#FDFDFE;stop-opacity:0"/>
</linearGradient>
<path fill="none" stroke="url(#SVGID_1_)" stroke-width="2" stroke-miterlimit="10" d="M-276.022,8.353
	c0,0,919.684-90.486,1287.43,324.185"/>
<g>
	<linearGradient id="SVGID_2_" gradientUnits="userSpaceOnUse" x1="868.7969" y1="550.4648" x2="2191.2813" y2="550.4648">
		<stop  offset="0" style="stop-color:#FDFDFE;stop-opacity:0"/>
		<stop  offset="0.0282" style="stop-color:#F1F9FA;stop-opacity:0.0282"/>
		<stop  offset="0.1365" style="stop-color:#D1ECF1;stop-opacity:0.1365"/>
		<stop  offset="0.2543" style="stop-color:#B6E2EA;stop-opacity:0.2543"/>
		<stop  offset="0.3833" style="stop-color:#A0DBE6;stop-opacity:0.3833"/>
		<stop  offset="0.5291" style="stop-color:#91D6E2;stop-opacity:0.5291"/>
		<stop  offset="0.706" style="stop-color:#87D3E0;stop-opacity:0.706"/>
		<stop  offset="1" style="stop-color:#84D2E0"/>
	</linearGradient>
	<path fill="url(#SVGID_2_)" d="M868.797,372.773c0,0,2.73,5.167,8.492,14.475c5.738,9.318,14.541,22.761,26.632,39.229
		c6.047,8.232,12.975,17.174,20.694,26.764c7.805,9.52,16.402,19.688,25.947,30.236c19.111,21.064,41.813,43.834,68.352,66.668
		c13.29,11.383,27.422,22.922,42.64,34.077c1.891,1.41,3.788,2.827,5.694,4.249c1.942,1.372,3.893,2.75,5.851,4.134
		c3.93,2.746,7.84,5.59,11.874,8.318c4.054,2.698,8.14,5.417,12.254,8.155c1.029,0.684,2.061,1.369,3.093,2.056
		c1.052,0.658,2.104,1.317,3.159,1.977c2.11,1.32,4.228,2.645,6.353,3.975c2.124,1.329,4.256,2.662,6.396,4
		c2.123,1.364,4.346,2.58,6.524,3.884c4.383,2.567,8.794,5.15,13.231,7.749c9.049,4.89,18.083,10.074,27.534,14.711
		c2.346,1.191,4.698,2.386,7.057,3.584l3.542,1.799l3.605,1.693c4.812,2.262,9.648,4.536,14.508,6.821
		c2.413,1.18,4.913,2.182,7.382,3.27c2.477,1.069,4.958,2.142,7.446,3.216c2.487,1.075,4.98,2.151,7.479,3.231
		c2.514,1.042,5.065,2.009,7.604,3.021c5.09,1.995,10.2,4,15.33,6.012c5.191,1.848,10.403,3.702,15.635,5.563l3.926,1.397
		c1.306,0.479,2.622,0.93,3.955,1.337c2.654,0.845,5.313,1.691,7.977,2.539c2.664,0.848,5.332,1.697,8.004,2.548
		c2.674,0.847,5.339,1.734,8.059,2.456c5.417,1.521,10.85,3.048,16.297,4.579l4.089,1.148c1.369,0.363,2.751,0.68,4.128,1.021
		c2.756,0.673,5.516,1.346,8.279,2.021c2.763,0.674,5.529,1.349,8.3,2.024l4.157,1.013l4.195,0.869
		c5.597,1.16,11.206,2.321,16.827,3.486l4.218,0.87l4.25,0.725c2.834,0.483,5.671,0.968,8.511,1.452
		c2.84,0.485,5.682,0.97,8.525,1.455l4.269,0.729l4.293,0.585c11.461,1.507,22.928,3.249,34.51,4.208l8.674,0.854l4.341,0.427
		c1.446,0.152,2.894,0.287,4.347,0.358c5.808,0.364,11.618,0.728,17.433,1.092l8.723,0.547l8.74,0.237l17.486,0.476
		c2.914,0.126,5.83,0.03,8.745,0.028l8.746-0.062l8.743-0.063c2.914-0.038,5.829,0.013,8.738-0.157
		c5.821-0.244,11.64-0.489,17.453-0.734l8.717-0.366c2.905-0.12,5.798-0.417,8.696-0.616c5.792-0.445,11.578-0.89,17.357-1.334
		l4.334-0.333l2.165-0.166l2.159-0.238c2.876-0.319,5.751-0.64,8.624-0.96c5.746-0.64,11.483-1.278,17.21-1.915l4.293-0.488
		l4.271-0.622c2.846-0.414,5.689-0.828,8.53-1.242c45.478-6.471,89.747-16.041,131.963-27.516
		c5.267-1.476,10.512-2.945,15.733-4.408c5.216-1.482,10.44-2.849,15.547-4.524c10.256-3.208,20.414-6.385,30.464-9.527
		c19.914-6.847,39.471-13.354,58.153-20.668c18.855-6.859,36.796-14.55,54.283-21.652c1.092-0.447,2.182-0.895,3.268-1.34
		c1.075-0.474,2.148-0.946,3.219-1.418c2.14-0.946,4.27-1.888,6.391-2.825c4.241-1.876,8.445-3.734,12.61-5.576
		c4.165-1.841,8.29-3.665,12.376-5.472c2.039-0.911,4.083-1.785,6.09-2.713c1.998-0.947,3.986-1.89,5.964-2.827
		c31.733-14.81,60.451-29.175,85.611-42.465c6.271-3.359,12.341-6.612,18.2-9.751c2.93-1.57,5.806-3.111,8.629-4.624
		c2.817-1.521,5.608-2.965,8.27-4.513c10.712-6.074,20.551-11.653,29.438-16.692c4.435-2.535,8.668-4.872,12.587-7.182
		c3.904-2.336,7.564-4.524,10.97-6.561c6.811-4.074,12.604-7.539,17.302-10.349c9.395-5.618,14.405-8.615,14.405-8.615
		s-4.994,3.022-14.359,8.69c-4.684,2.835-10.459,6.33-17.249,10.439c-3.395,2.055-7.044,4.263-10.937,6.619
		c-3.907,2.33-8.129,4.69-12.551,7.248c-8.862,5.087-18.674,10.719-29.355,16.85c-2.654,1.563-5.438,3.021-8.248,4.558
		c-2.815,1.528-5.686,3.085-8.607,4.67c-5.844,3.171-11.898,6.456-18.154,9.851c-25.096,13.434-53.752,27.96-85.476,42.847
		c-1.977,0.944-3.963,1.893-5.96,2.847c-2.005,0.935-4.048,1.815-6.086,2.732c-4.083,1.82-8.206,3.658-12.368,5.513
		c-4.163,1.855-8.364,3.728-12.604,5.617c-2.12,0.944-4.249,1.894-6.388,2.847c-1.07,0.475-2.142,0.951-3.217,1.429
		c-1.086,0.449-2.175,0.899-3.266,1.35c-17.48,7.16-35.416,14.911-54.27,21.833c-18.68,7.376-38.239,13.948-58.158,20.862
		c-10.056,3.166-20.222,6.367-30.484,9.599c-5.111,1.684-10.343,3.058-15.564,4.546c-5.228,1.471-10.479,2.947-15.751,4.431
		c-42.266,11.532-86.599,21.163-132.156,27.689c-2.846,0.418-5.694,0.835-8.546,1.253l-4.279,0.627l-4.3,0.493
		c-5.738,0.645-11.486,1.29-17.243,1.937c-2.878,0.323-5.759,0.646-8.641,0.971l-2.163,0.24l-2.17,0.169l-4.342,0.338
		c-5.791,0.45-11.59,0.901-17.394,1.354c-2.904,0.202-5.803,0.503-8.714,0.626l-8.736,0.376c-5.827,0.251-11.657,0.502-17.491,0.753
		c-2.916,0.173-5.838,0.125-8.758,0.166l-8.765,0.071l-8.767,0.07c-2.922,0.003-5.845,0.106-8.766-0.025l-17.528-0.492l-8.761-0.247
		l-8.744-0.557c-5.828-0.371-11.653-0.741-17.475-1.112c-1.456-0.073-2.908-0.209-4.357-0.363l-4.351-0.432l-8.695-0.864
		c-11.609-0.973-23.104-2.729-34.592-4.252l-4.304-0.591l-4.278-0.734c-2.851-0.489-5.699-0.979-8.546-1.467
		c-2.846-0.488-5.689-0.977-8.531-1.464l-4.26-0.731l-4.228-0.876c-5.634-1.173-11.256-2.344-16.866-3.511l-4.205-0.876l-4.167-1.02
		c-2.776-0.68-5.55-1.359-8.319-2.038s-5.535-1.355-8.298-2.033c-1.38-0.344-2.765-0.662-4.138-1.027l-4.098-1.156
		c-5.46-1.54-10.904-3.075-16.333-4.606c-2.726-0.727-5.397-1.618-8.077-2.47c-2.678-0.855-5.352-1.709-8.021-2.563
		c-2.669-0.853-5.334-1.703-7.994-2.553c-1.336-0.409-2.654-0.863-3.963-1.344l-3.936-1.404c-5.241-1.872-10.465-3.736-15.668-5.594
		c-5.141-2.021-10.262-4.036-15.361-6.041c-2.545-1.017-5.102-1.988-7.62-3.036c-2.504-1.084-5.002-2.166-7.495-3.245
		c-2.492-1.08-4.979-2.157-7.461-3.231c-2.474-1.093-4.979-2.101-7.396-3.285c-4.868-2.297-9.714-4.582-14.534-6.856l-3.608-1.708
		l-3.546-1.813c-2.36-1.207-4.714-2.411-7.062-3.612c-9.46-4.675-18.499-9.897-27.553-14.824c-4.439-2.618-8.852-5.22-13.236-7.805
		c-2.18-1.313-4.403-2.538-6.527-3.91c-2.139-1.348-4.271-2.69-6.396-4.028s-4.242-2.671-6.354-4
		c-1.055-0.664-2.107-1.328-3.159-1.99c-1.033-0.69-2.063-1.38-3.093-2.068c-4.114-2.756-8.199-5.491-12.254-8.207
		c-4.033-2.745-7.942-5.605-11.871-8.368c-1.957-1.393-3.907-2.778-5.849-4.159c-1.905-1.43-3.803-2.854-5.692-4.272
		c-15.211-11.219-29.332-22.818-42.608-34.257c-3.295-2.889-6.557-5.746-9.782-8.573c-3.162-2.897-6.29-5.763-9.382-8.596
		c-3.121-2.802-6.072-5.714-9.038-8.537c-2.947-2.844-5.904-5.604-8.696-8.461c-2.819-2.828-5.603-5.62-8.348-8.375
		c-2.691-2.808-5.346-5.577-7.963-8.308c-1.304-1.37-2.598-2.73-3.883-4.08c-1.26-1.374-2.511-2.736-3.752-4.09
		c-2.472-2.716-4.956-5.346-7.308-8.017c-9.499-10.607-18.051-20.829-25.812-30.396c-7.675-9.637-14.559-18.619-20.566-26.887
		c-12.012-16.539-20.746-30.03-26.437-39.381C871.5,377.954,868.797,372.773,868.797,372.773z"/>
</g>
</svg>
