<?xml version="1.0" encoding="utf-8"?>
<!-- Generator: Adobe Illustrator 16.0.0, SVG Export Plug-In . SVG Version: 6.00 Build 0)  -->
<!DOCTYPE svg PUBLIC "-//W3C//DTD SVG 1.1//EN" "http://www.w3.org/Graphics/SVG/1.1/DTD/svg11.dtd">
<svg version="1.1" id="Calque_1" xmlns="http://www.w3.org/2000/svg" xmlns:xlink="http://www.w3.org/1999/xlink" x="0px" y="0px"
	 width="1920px" height="788px" viewBox="0 0 1920 788" enable-background="new 0 0 1920 788" xml:space="preserve">
<linearGradient id="SVGID_1_" gradientUnits="userSpaceOnUse" x1="1.7651" y1="155.6113" x2="1320.5527" y2="155.6113" gradientTransform="matrix(0.9854 0.17 -0.17 0.9854 18.9926 -92.5404)">
	<stop  offset="0" style="stop-color:#84D2E0"/>
	<stop  offset="0.294" style="stop-color:#87D3E0;stop-opacity:0.706"/>
	<stop  offset="0.4709" style="stop-color:#91D6E2;stop-opacity:0.5291"/>
	<stop  offset="0.6167" style="stop-color:#A0DBE6;stop-opacity:0.3833"/>
	<stop  offset="0.7457" style="stop-color:#B6E2EA;stop-opacity:0.2543"/>
	<stop  offset="0.8635" style="stop-color:#D1ECF1;stop-opacity:0.1365"/>
	<stop  offset="0.9718" style="stop-color:#F1F9FA;stop-opacity:0.0282"/>
	<stop  offset="1" style="stop-color:#FDFDFE;stop-opacity:0"/>
</linearGradient>
<path fill="none" stroke="url(#SVGID_1_)" stroke-width="2" stroke-miterlimit="10" d="M3.284,10.201
	c0,0,922.85-48.513,1271.333,382.473"/>
<g>
	<linearGradient id="SVGID_2_" gradientUnits="userSpaceOnUse" x1="1462.6338" y1="684.5137" x2="1916.9309" y2="684.5137">
		<stop  offset="0" style="stop-color:#FDFDFE;stop-opacity:0"/>
		<stop  offset="0.0282" style="stop-color:#F1F9FA;stop-opacity:0.0282"/>
		<stop  offset="0.1365" style="stop-color:#D1ECF1;stop-opacity:0.1365"/>
		<stop  offset="0.2543" style="stop-color:#B6E2EA;stop-opacity:0.2543"/>
		<stop  offset="0.3833" style="stop-color:#A0DBE6;stop-opacity:0.3833"/>
		<stop  offset="0.5291" style="stop-color:#91D6E2;stop-opacity:0.5291"/>
		<stop  offset="0.706" style="stop-color:#87D3E0;stop-opacity:0.706"/>
		<stop  offset="1" style="stop-color:#84D2E0"/>
	</linearGradient>
	<path fill="url(#SVGID_2_)" d="M1463.539,589.972c0,0,3.536,7.399,11.258,19.446c3.866,6.016,8.772,13.187,14.8,21.111
		c3.019,3.959,6.291,8.125,9.877,12.404c3.564,4.296,7.401,8.738,11.534,13.258c8.24,9.061,17.66,18.425,28.155,27.732
		c5.287,4.607,10.765,9.291,16.59,13.796c1.436,1.151,2.902,2.28,4.396,3.39c1.483,1.121,2.975,2.249,4.473,3.382
		c3.057,2.183,6.085,4.469,9.26,6.601c6.259,4.397,12.845,8.537,19.558,12.644c3.41,1.963,6.78,4.045,10.288,5.923
		c1.742,0.961,3.488,1.924,5.239,2.889c1.774,0.919,3.553,1.841,5.335,2.765c14.261,7.384,29.3,13.795,44.666,19.255
		c15.355,5.497,31.071,9.998,46.77,13.391c15.693,3.421,31.344,5.822,46.566,7.355c3.812,0.331,7.584,0.734,11.333,0.997
		c3.75,0.241,7.465,0.48,11.14,0.717c3.681,0.14,7.321,0.277,10.918,0.413c3.597,0.138,7.154,0.1,10.661,0.158
		c14.031,0.03,27.308-0.405,39.521-1.39c12.224-0.866,23.387-2.163,33.27-3.401c4.938-0.645,9.54-1.386,13.808-1.997
		c2.135-0.296,4.173-0.642,6.118-0.989c1.947-0.338,3.803-0.66,5.564-0.967c7.062-1.158,12.554-2.36,16.317-3.086
		c3.76-0.749,5.765-1.148,5.765-1.148s-1.999,0.43-5.746,1.234c-3.753,0.782-9.229,2.066-16.274,3.331
		c-1.759,0.333-3.611,0.683-5.554,1.05c-1.941,0.378-3.976,0.754-6.107,1.082c-4.261,0.676-8.857,1.487-13.791,2.206
		c-2.471,0.338-5.02,0.687-7.645,1.045c-2.626,0.351-5.321,0.762-8.105,1.037c-5.563,0.591-11.405,1.302-17.531,1.726
		c-12.231,1.09-25.536,1.639-39.609,1.727c-3.519-0.028-7.088,0.038-10.697-0.068c-3.61-0.106-7.265-0.214-10.959-0.323
		c-3.689-0.217-7.419-0.436-11.186-0.657c-3.764-0.253-7.553-0.647-11.38-0.969c-15.288-1.497-31.015-3.864-46.791-7.258
		c-15.782-3.367-31.593-7.84-47.044-13.332c-15.434-5.532-30.535-12.021-44.849-19.482c-1.789-0.933-3.574-1.864-5.355-2.793
		c-1.757-0.976-3.509-1.947-5.258-2.918c-3.521-1.898-6.902-3.999-10.324-5.981c-6.734-4.146-13.341-8.323-19.617-12.76
		c-12.655-8.727-24.195-18.131-34.696-27.507c-10.459-9.432-19.832-18.907-28.021-28.064c-8.225-9.126-15.235-17.955-21.153-25.983
		c-5.921-8.031-10.728-15.284-14.508-21.364C1466.964,597.422,1463.539,589.972,1463.539,589.972z"/>
</g>
</svg>
