<?xml version="1.0" encoding="utf-8"?>
<!-- Generator: Adobe Illustrator 16.0.0, SVG Export Plug-In . SVG Version: 6.00 Build 0)  -->
<!DOCTYPE svg PUBLIC "-//W3C//DTD SVG 1.1//EN" "http://www.w3.org/Graphics/SVG/1.1/DTD/svg11.dtd">
<svg version="1.1" id="Calque_1" xmlns="http://www.w3.org/2000/svg" xmlns:xlink="http://www.w3.org/1999/xlink" x="0px" y="0px"
	 width="850px" height="850px" viewBox="0 0 850 850" enable-background="new 0 0 850 850" xml:space="preserve">
<g id="left-shirt">
	<path fill="#FFFFFF" d="M536.193,278.067c0,0-14.188,22.047-15.786,23.112l4.116,12.255c0,0-33.289,23.578-48.342,44.226
		c-7.157,22.912-10.523,47.289-14.919,155.189c0,0-2.398,60.61-5.595,152.26v14.387l23.978,6.395h6.394
		c0,0,9.374-189.762,40.563-323.302c3.388-14.513,8.158-27.539,10.587-41.006c0,0,5.397-12.943,5.397-28.929
		C539.589,283.062,536.193,278.067,536.193,278.067z"/>
	<g>
		<path fill="#939597" d="M528.934,328.354c0.01,0.006,0.061-0.099,0.071-0.307c0.007-0.209-0.012-0.515-0.073-0.9
			c-0.109-0.772-0.395-1.852-0.753-3.14c-0.348-1.292-0.843-2.774-1.352-4.368c-0.517-1.592-1.091-3.283-1.691-4.965
			c-0.565-1.694-1.178-3.374-1.732-4.954c-0.56-1.58-1.082-3.054-1.529-4.317c-0.896-2.528-1.467-4.224-1.467-4.224
			s0.708,1.643,1.729,4.125c0.495,1.247,1.079,2.699,1.674,4.268c0.575,1.576,1.211,3.248,1.797,4.939
			c0.581,1.693,1.135,3.396,1.633,4.999c0.492,1.605,0.9,3.119,1.21,4.428c0.318,1.306,0.497,2.417,0.564,3.201
			c0.035,0.391,0.033,0.702,0.012,0.911C529.001,328.259,528.942,328.36,528.934,328.354z"/>
	</g>
	<path opacity="0.5" fill="#D1D2D4" d="M536.193,278.067c0,0-14.188,22.047-15.786,23.112l4.116,12.255
		c0,0-33.289,23.578-48.342,44.226c-7.157,22.912-10.523,47.289-14.919,155.189c0,0-2.398,60.61-5.595,152.26v14.387l23.978,6.395
		h6.394c0,0,9.374-189.762,40.563-323.302c3.388-14.513,8.158-27.539,10.587-41.006c0,0,5.397-12.943,5.397-28.929
		C539.589,283.062,536.193,278.067,536.193,278.067z"/>
	<path fill="#FFFFFF" d="M460.424,670.738l25.705,12.365c0,0,32.256-321.303,46.444-348.751c0,0-3.694-14.436-10.567-33.173
		c0,0,8.605-10.931,13.361-21.718c0,0-12.829,19.054-14.96,21.718l4.116,12.255c0,0-15.479,11.869-31.985,26.57
		c5.09-4.59-23.018,41.633-15.023,70.94c-0.37,10.593-0.284,37.745-3.747,48.75c0,7.705-0.517,64.89-4.779,81.264
		c0,0-0.107,88.447-5.216,131.376"/>
</g>
<g id="neck">
	<path fill="#FEE1C9" d="M605.071,166.287c-8.158,8.113-5.521,25.523-5.521,25.523c2.397,25.976,0,29.373,0,29.373
		c-13.388,21.979-43.56,44.359-43.56,44.359c-8.655,8.342-15.416,12.343-20.623,13.918c6.109,11.925,5.743,31.907-1.556,54.531
		c7.292,2.864,9.241-12.299,9.241-12.299l49.833-25.576l39.685-49.288C614.151,223.194,605.973,172.229,605.071,166.287z"/>
	<path fill="#FEE1C9" d="M599.55,221.183c0,0,2.397-3.397,0-29.373c0,0-2.637-17.41,5.521-25.523
		c-0.057-0.374-0.088-0.583-0.088-0.583l-0.025-0.025c-3.118-1.011-5.424-3.105-5.424-3.105c-8.992,7.793-6.194,26.175-6.194,26.175
		c2.397,25.977,0,29.373,0,29.373c-13.388,21.98-43.56,44.359-43.56,44.359c-6.871,6.622-12.541,10.501-17.194,12.611l-0.013,0.015
		c1.051,1.294,1.976,2.759,2.794,4.354c5.207-1.576,11.968-5.577,20.623-13.918C555.99,265.542,586.162,243.163,599.55,221.183z"/>
	<path fill="#FEE1C9" d="M605.071,166.287c-8.158,8.113-5.521,25.523-5.521,25.523c2.397,25.976,0,29.373,0,29.373
		c-13.388,21.979-43.56,44.359-43.56,44.359c-8.655,8.342-15.416,12.343-20.623,13.918c6.109,11.925,5.743,31.907-1.556,54.531
		c7.292,2.864,9.241-12.299,9.241-12.299l49.833-25.576l39.685-49.288C614.151,223.194,605.973,172.229,605.071,166.287z"/>
	<path opacity="0.5" fill="#CB7D29" d="M599.55,221.183c0,0,2.397-3.397,0-29.373c0,0-2.637-17.41,5.521-25.523
		c-0.057-0.374-0.088-0.583-0.088-0.583l-0.025-0.025c-3.118-1.011-5.424-3.105-5.424-3.105c-8.992,7.793-6.194,26.175-6.194,26.175
		c2.397,25.977,0,29.373,0,29.373c-13.388,21.98-43.56,44.359-43.56,44.359c-6.871,6.622-12.541,10.501-17.194,12.611l-0.013,0.015
		c1.051,1.294,1.976,2.759,2.794,4.354c5.207-1.576,11.968-5.577,20.623-13.918C555.99,265.542,586.162,243.163,599.55,221.183z"/>
</g>
<path id="face_1_" fill="#FEE2C9" d="M605.507,165.858c-3.4-0.922-5.973-3.285-5.973-3.285c-8.992,7.793-6.194,26.175-6.194,26.175
	c2.397,25.977,0,29.373,0,29.373c-13.388,21.98-43.56,44.359-43.56,44.359c-13.491,13.001-22.379,15.472-27.95,14.614
	c-5.818-0.896-8.017-5.422-8.017-5.422c-3.597-6.594-38.564-46.557-47.956-57.347c-9.391-10.79-9.991-21.181-9.991-21.181
	c-0.799-25.976-8.959-27.84-8.959-27.84c-6.957-1.932-9.024-10.657-9.024-10.657c0.8-13.32-4.063-26.376-4.063-26.376
	c-3.463-10.924,5.063-32.511,5.063-32.511c0.799-39.171,61.277-49.28,61.277-49.28c19.77-2.51,34.429,1.641,44.964,7.6
	c16.298,9.218,22.706,22.772,22.706,22.772l21.047,72.733c-2.852-10.394-2.173-18.146-1.219-22.61
	c0.605-2.832,1.321-4.352,1.321-4.352c12.376-19.982,19.371-12.768,20.981-10.555c0.24,0.33,0.364,0.551,0.364,0.551
	c6.793,10.39,5.657,32.579,5.657,32.579c-3.797,16.385-3.298,17.886-5.858,20.772c-1.341,0.347-2.668,0.311-3.908,0.062
	L605.507,165.858z"/>
<g id="hairs">
	<path id="hair-back" fill="#FAA761" d="M440.511,47.857c0,0,57.117-56.127,128.452-12.967c0,0,8.446,15.277,22.578,34.168
		c0,0,6.519,13.6,10.915,40.175c0,0-21.404,8.68-13.579,40.351l-3.996,5.063c0,0-9.058-28.507-9.857-33.303c0,0,0-1.865-7.46-1.598
		c0,0-9.192-44.759-19.981-48.222c0,0-7.283-1.041-8.369-5.383c0,0-14.716-16.164-56.277,1.554l-47.912,3.961L440.511,47.857z"/>
	<path fill="#A55F26" d="M543.985,67.86l-6.593-8.192c-23.18-34.306-39.364-22.779-39.364-22.779
		c-0.8-1.598,5.194-5.195,5.194-5.195c-62.342,1.199-62.342,23.978-62.342,23.978c-3.197-1.199,2.66-9.4,2.66-9.4
		c-15.448,7.002-18.246,23.387-18.246,23.387c-4.795-1.199-7.193-11.189-7.193-11.189c-8.792,27.175,20.781,37.291,20.781,37.291
		s20.429-8.092,41.341-25.729c0.002,0,0.002,0.001,0.003,0.001c24.296-14.361,44.284-9.925,44.284-9.925
		C532.107,62.965,539.085,66.421,543.985,67.86z"/>
</g>
<g id="oreille_1_">
	<path opacity="0.5" fill="#C87C2A" d="M608.198,134.358c-3.878-11.384-9.507-3.753-9.507-3.753c-1.627,5.878-4.152,7.84-4.152,7.84
		c1,3.377,2.373,3.479,2.373,3.479c6.531,1.439,4.799,5.675,4.799,5.675c-2.483,5.986-1.948,8.53-1.327,8.53
		c0.618,0,0.934-1.382,2.937-5.009c2.001-3.627,6.222-6.481,5.847-7.483C609.167,143.637,609.781,137.042,608.198,134.358z"/>
	<g>
		<path fill="#C87C2A" d="M594.539,138.445c0.176-0.073,0.321-0.19,0.449-0.327c0.139-0.124,0.26-0.264,0.366-0.419
			c0.238-0.286,0.425-0.61,0.606-0.936c0.196-0.316,0.357-0.653,0.515-0.992c0.154-0.341,0.337-0.666,0.467-1.017l0.405-1.046
			c0.131-0.35,0.285-0.69,0.396-1.049l0.722-2.127l0.014-0.04l0.021-0.027c0.621-0.821,1.386-1.501,2.293-1.994
			c0.223-0.127,0.474-0.207,0.709-0.312c0.248-0.076,0.507-0.125,0.76-0.185c0.263-0.006,0.527-0.025,0.788-0.014
			c0.257,0.053,0.519,0.096,0.77,0.163l0.703,0.338c0.217,0.136,0.408,0.31,0.611,0.463c0.214,0.145,0.371,0.343,0.537,0.533
			c0.163,0.192,0.339,0.374,0.489,0.573l0.397,0.635c0.122,0.216,0.277,0.413,0.373,0.644l0.613,1.35l-0.741-1.276
			c-0.113-0.218-0.283-0.399-0.422-0.6l-0.431-0.589c-0.155-0.185-0.334-0.349-0.498-0.524c-0.168-0.173-0.327-0.355-0.533-0.477
			c-0.197-0.131-0.382-0.285-0.586-0.398l-0.644-0.27c-0.224-0.053-0.452-0.084-0.677-0.13c-0.229-0.004-0.458,0.019-0.688,0.023
			c-0.224,0.061-0.451,0.105-0.671,0.177c-0.212,0.101-0.435,0.172-0.637,0.293c-0.198,0.128-0.412,0.229-0.596,0.382
			c-0.191,0.141-0.38,0.284-0.553,0.449c-0.358,0.309-0.702,0.661-0.985,1.026l0.034-0.067l-0.767,2.134
			c-0.246,0.714-0.595,1.392-0.894,2.085c-0.149,0.347-0.354,0.671-0.527,1.007c-0.178,0.335-0.355,0.669-0.589,0.974
			c-0.213,0.314-0.43,0.625-0.699,0.898c-0.121,0.146-0.254,0.282-0.412,0.392C594.887,138.291,594.718,138.396,594.539,138.445z"/>
	</g>
	<g id="oreille">
		<path fill="#C87C2A" d="M607.261,126.939c-0.06-1.441-0.194-2.878-0.405-4.303c-0.211-1.422-0.505-2.839-0.985-4.184
			c-0.247-0.667-0.545-1.322-0.975-1.869c-0.417-0.546-1.034-0.959-1.704-0.867c-0.663,0.066-1.271,0.464-1.81,0.902
			c-0.522,0.472-1.01,0.989-1.448,1.551c-0.877,1.116-1.699,2.323-2.551,3.48c-0.433,0.579-0.821,1.182-1.224,1.777
			c-0.388,0.603-0.826,1.178-1.174,1.802c-0.341,0.625-0.753,1.223-1.037,1.868l-0.417,0.971c-0.16,0.319-0.173,0.671-0.269,1.004
			c-0.105,0.333-0.1,0.683-0.104,1.03c-0.023,0.344-0.003,0.698,0.038,1.056l0.183,2.16v0.006v0.017
			c-0.012,0.916,0.083,1.86,0.25,2.774c0.089,0.458,0.192,0.912,0.328,1.357c0.134,0.444,0.283,0.886,0.479,1.305
			c0.102,0.208,0.179,0.429,0.303,0.624l0.346,0.6c0.264,0.377,0.532,0.752,0.859,1.076c0.146,0.178,0.325,0.322,0.503,0.467
			c0.179,0.142,0.343,0.307,0.547,0.413l0.584,0.362l0.637,0.29l-0.093-0.017c0.555-0.005,1.074,0.094,1.582,0.276
			c0.252,0.097,0.495,0.209,0.72,0.365c0.243,0.123,0.417,0.345,0.626,0.515c0.15,0.223,0.348,0.421,0.454,0.668
			c0.097,0.249,0.254,0.48,0.288,0.747c0.045,0.261,0.144,0.517,0.141,0.781l0.029,0.788l-0.085,0.777
			c-0.021,0.26-0.062,0.517-0.134,0.766c-0.125,0.502-0.225,1.012-0.422,1.49c-0.185,0.481-0.322,0.98-0.553,1.441l-0.638,1.403
			l0.004-0.008c-0.101,0.318-0.132,0.66-0.192,0.993c-0.044,0.336-0.033,0.678-0.052,1.017c0.002,0.169-0.031,0.341,0.001,0.509
			l0.061,0.507l0.121,1.017l-0.153-1.013l-0.076-0.508c-0.038-0.168-0.01-0.341-0.018-0.512c0.009-0.342-0.014-0.687,0.02-1.028
			c0.052-0.34,0.071-0.683,0.166-1.021l0.001-0.001l0.003-0.007l0.589-1.415c0.215-0.464,0.335-0.963,0.503-1.443
			c0.178-0.479,0.261-0.981,0.378-1.474c0.066-0.246,0.101-0.496,0.117-0.748l0.069-0.751l-0.041-0.748
			c0-0.251-0.101-0.483-0.145-0.725c-0.033-0.249-0.185-0.451-0.273-0.677c-0.099-0.223-0.281-0.392-0.416-0.592
			c-0.192-0.145-0.344-0.343-0.566-0.448c-0.201-0.135-0.424-0.233-0.653-0.317c-0.457-0.157-0.961-0.239-1.432-0.227l-0.051,0.001
			l-0.042-0.018l-0.661-0.288l-0.631-0.376c-0.219-0.114-0.395-0.287-0.587-0.438c-0.19-0.153-0.382-0.307-0.539-0.495
			c-0.351-0.344-0.637-0.738-0.918-1.136c-0.13-0.205-0.245-0.419-0.368-0.628c-0.131-0.206-0.214-0.435-0.32-0.652
			c-0.208-0.438-0.366-0.896-0.508-1.356c-0.144-0.46-0.253-0.93-0.348-1.402c-0.178-0.948-0.28-1.898-0.274-2.877v0.022
			l-0.194-2.15c-0.042-0.36-0.067-0.726-0.045-1.103c0.004-0.375,0.004-0.749,0.116-1.111c0.103-0.358,0.128-0.749,0.295-1.078
			l0.442-1.014c0.301-0.672,0.718-1.268,1.071-1.906c0.359-0.634,0.801-1.208,1.197-1.815c0.409-0.598,0.807-1.206,1.24-1.78
			c0.867-1.159,1.669-2.34,2.591-3.48c0.459-0.567,0.972-1.094,1.528-1.578c0.578-0.451,1.236-0.882,2.024-0.95
			c0.809-0.094,1.537,0.427,1.965,1.019c0.452,0.598,0.744,1.28,0.985,1.966c0.464,1.384,0.701,2.819,0.873,4.253
			C607.156,124.054,607.246,125.497,607.261,126.939z"/>
	</g>
</g>
<g id="left-eye">
	<path fill="#FFFFFF" d="M449.973,163.381c0,0,7.793-6.208,17.15-6.868c0,0,1.865,1.573,1.732,4.982c0,0,0.531,3.276,2.663,6.073
		c0,0-8.125,5.195-16.118,7.327c0,0-1.774-0.799-3.907-6.527C451.493,168.368,450.696,167.21,449.973,163.381z"/>
	<linearGradient id="SVGID_1_" gradientUnits="userSpaceOnUse" x1="465.4805" y1="162.0635" x2="458.1851" y2="169.3589">
		<stop  offset="0" style="stop-color:#BEE6EF"/>
		<stop  offset="0.2485" style="stop-color:#B8E3ED"/>
		<stop  offset="0.5736" style="stop-color:#A7DDE8"/>
		<stop  offset="0.9397" style="stop-color:#8AD3DF"/>
		<stop  offset="1" style="stop-color:#84D1DD"/>
	</linearGradient>
	<path fill="url(#SVGID_1_)" stroke="#939597" stroke-width="0.5" stroke-miterlimit="10" d="M461.574,172.731
		c0,0-5.607-4.763-3.609-12.955c0,0,3.496-3.897,5.695,1.099l0.998,2.298c0,0-0.229,1.158,1.199,2.357l1.568,4.394L461.574,172.731z
		"/>
	<path opacity="0.5" fill="#C87C2A" d="M476.093,156.513c0,0-18.128-3.198-26.47,7.06c-5.012,0.666-6.689-0.426-9.3-3.442
		c4.554-5.482,27.989-12.738,33.522-6.846L476.093,156.513z"/>
	<circle fill="#FFFFFF" cx="464.47" cy="163.35" r="1.354"/>
</g>
<g id="right-eye">
	<path fill="#FFFFFF" d="M511.415,144.79c0,0,1.144,5.721,3.197,10.79c0,0,24.778-13.787,31.771-14.187c0,0-0.463-7.993-8.124-9.191
		c-7.66-1.199-13.389,1.599-18.185,4.596L511.415,144.79z"/>
	<g>
		<linearGradient id="SVGID_2_" gradientUnits="userSpaceOnUse" x1="533.9609" y1="135.9727" x2="525.7263" y2="144.2073">
			<stop  offset="0" style="stop-color:#BEE6EF"/>
			<stop  offset="0.3726" style="stop-color:#BBE5EE"/>
			<stop  offset="0.5967" style="stop-color:#B3E1EC"/>
			<stop  offset="0.7814" style="stop-color:#A4DCE7"/>
			<stop  offset="0.9438" style="stop-color:#8ED4E0"/>
			<stop  offset="1" style="stop-color:#84D1DD"/>
		</linearGradient>
		<path fill="url(#SVGID_2_)" d="M529.27,147.677c-0.805-0.637-5.625-4.841-4.514-13.204c0.455-0.293,2.547-1.565,4.572-1.565
			c1.877,0,3.165,1.095,3.828,3.253l0,0c-0.004,0,0.504,4.101,2.976,8.341L529.27,147.677z"/>
		<path fill="#939597" d="M529.328,133.158c1.768,0,2.938,0.993,3.577,3.036c0.063,0.483,0.604,4.199,2.874,8.197l-6.477,2.996
			c-1.056-0.855-5.321-4.846-4.314-12.765C525.574,134.255,527.482,133.158,529.328,133.158 M529.328,132.658
			c-2.386,0-4.805,1.669-4.805,1.669c-1.306,9.42,4.715,13.64,4.715,13.64l7.25-3.354c-2.598-4.329-3.093-8.525-3.093-8.525
			C532.583,133.443,530.963,132.658,529.328,132.658L529.328,132.658z"/>
	</g>
	<path opacity="0.5" fill="#C87C2A" d="M507.086,135.998c3.53,4.315,4.329,8.792,4.329,8.792
		c5.929-8.526,19.382-18.117,29.954-11.574c0,0-2.498-4.559-3.11-9.473C538.259,123.743,522.538,120.912,507.086,135.998z"/>
	<g opacity="0.75">
		<path fill="#FEE1C9" d="M513.352,136.788c0,0,1.426-1.583,3.953-3.539c1.272-0.959,2.803-2.032,4.556-2.994
			c1.757-0.953,3.713-1.834,5.759-2.463c1.029-0.289,2.069-0.551,3.112-0.703c1.039-0.18,2.077-0.252,3.08-0.275
			c2.011-0.042,3.877,0.28,5.414,0.716c0.781,0.182,1.453,0.493,2.063,0.71c0.587,0.278,1.106,0.499,1.517,0.718
			c0.81,0.454,1.272,0.714,1.272,0.714s-0.476-0.232-1.31-0.638c-0.42-0.194-0.95-0.383-1.545-0.625
			c-0.618-0.179-1.295-0.445-2.068-0.606c-1.528-0.391-3.368-0.611-5.334-0.554c-0.981,0.033-1.997,0.115-3.013,0.301
			c-1.021,0.159-2.037,0.429-3.045,0.721c-2.015,0.596-3.951,1.442-5.696,2.366c-1.74,0.933-3.306,1.918-4.596,2.839
			C514.882,135.308,513.352,136.788,513.352,136.788z"/>
	</g>
	<circle fill="#FFFFFF" cx="533.403" cy="137.604" r="1.516"/>
</g>
<path fill="#A45F26" d="M438.09,152.781c0,0,13.645-8.166,26.633-5.968c0,0,2.807,2.074,1.083,4.238c0,0-14.681,0.547-25.482,9.079
	C440.323,160.13,437.681,156.786,438.09,152.781z"/>
<path fill="#A45F26" d="M507.086,135.998c0,0,12.256-13.986,31.173-12.255c0,0,0.066-1.754-0.934-6.528
	c0,0-24.396,0.259-40.812,15.796C496.514,133.011,504.156,134.932,507.086,135.998z"/>
<g>
	<path fill="#CA7C29" d="M474.767,153.886c1.557,1.937,2.917,4.032,4.089,6.229c0.595,1.096,1.098,2.24,1.544,3.405
		c0.212,0.587,0.424,1.174,0.59,1.777c0.194,0.595,0.307,1.212,0.455,1.82l-0.016-0.044c0.454,0.915,0.744,1.858,1.034,2.812
		c0.267,0.957,0.51,1.92,0.704,2.894c0.1,0.486,0.202,0.971,0.28,1.461c0.08,0.489,0.18,0.976,0.244,1.467
		c0.147,0.98,0.28,1.963,0.384,2.948c0.226,1.969,0.36,3.946,0.469,5.924c0.092,1.979,0.134,3.959,0.151,5.939l-0.02-0.093
		c0.262,0.527,0.644,1.043,1.056,1.497c0.416,0.459,0.882,0.874,1.389,1.232c1.011,0.721,2.166,1.23,3.374,1.535
		c2.428,0.613,5.01,0.432,7.464-0.118l-0.13,0.086c0.875-1.197,1.789-2.356,2.758-3.476c0.483-0.562,0.988-1.105,1.517-1.628
		c0.532-0.52,1.083-1.028,1.745-1.425l0.044-0.026h0.047c1.362,0.006,2.698,0.131,4.034,0.301c1.335,0.162,2.658,0.402,3.979,0.656
		l-0.079,0.004c0.562-0.205,1.097-0.592,1.533-1.037c0.444-0.448,0.802-0.979,1.084-1.548c0.56-1.143,0.816-2.424,0.878-3.705
		c0.074-1.284-0.051-2.575-0.254-3.849c-0.202-1.276-0.504-2.536-0.863-3.78l0.003,0.008c-0.064-0.125-0.21-0.236-0.359-0.303
		c-0.158-0.06-0.329-0.085-0.503-0.094c-0.35,0.005-0.704,0.073-1.042,0.191c-0.341,0.105-0.672,0.254-0.994,0.414
		c-0.322,0.161-0.641,0.332-0.946,0.526c-0.619,0.372-1.216,0.785-1.792,1.223c-0.588,0.424-1.139,0.896-1.704,1.349
		c0.557-0.464,1.099-0.947,1.679-1.383c0.568-0.449,1.158-0.875,1.773-1.261c0.303-0.201,0.62-0.379,0.942-0.548
		c0.323-0.168,0.654-0.325,1.002-0.44c0.344-0.127,0.709-0.206,1.083-0.218c0.367,0.001,0.794,0.096,1.018,0.479l0.001,0.002
		l0.002,0.006c0.761,2.479,1.344,5.063,1.229,7.691c-0.055,1.306-0.307,2.626-0.883,3.823c-0.289,0.595-0.661,1.156-1.129,1.634
		c-0.47,0.477-1.003,0.884-1.662,1.129l-0.034,0.013l-0.046-0.009c-1.313-0.244-2.631-0.474-3.957-0.625
		c-1.323-0.161-2.663-0.274-3.981-0.271l0.091-0.026c-0.604,0.365-1.144,0.866-1.659,1.377c-0.515,0.516-1.01,1.056-1.483,1.615
		c-0.951,1.114-1.855,2.277-2.711,3.464l-0.049,0.068l-0.081,0.019c-2.494,0.575-5.142,0.786-7.681,0.165
		c-1.265-0.304-2.479-0.848-3.538-1.616c-0.531-0.381-1.02-0.822-1.456-1.309c-0.437-0.493-0.823-1.01-1.125-1.627l-0.02-0.04
		v-0.053c-0.005-1.974-0.033-3.948-0.112-5.92c-0.095-1.971-0.216-3.941-0.428-5.903c-0.097-0.982-0.222-1.96-0.362-2.936
		c-0.061-0.49-0.156-0.973-0.232-1.46c-0.075-0.487-0.173-0.97-0.27-1.453c-0.186-0.968-0.422-1.924-0.679-2.874
		c-0.276-0.938-0.569-1.894-0.989-2.754l-0.012-0.022l-0.005-0.022c-0.142-0.6-0.245-1.209-0.433-1.798
		c-0.157-0.597-0.362-1.18-0.567-1.763c-0.438-1.155-0.916-2.298-1.471-3.406C477.57,157.99,476.27,155.863,474.767,153.886z"/>
</g>
<path id="mouse" fill="#FFFFFF" d="M497.628,223.917c0,0,6.595,6.594,12.389,15.586c0,0,9.991,5.794,24.377-12.189
	c0,0,7.794-8.976,19.582-20.964v-2.014c0,0-20.78,13.987-43.159,15.386C510.816,219.72,503.023,221.119,497.628,223.917z"/>
<path opacity="0.5" fill="#AEADAE" d="M540.556,211.552c0,0,3.097,1.908,0,4.438c0,0,4.43-2.864,2.932,1.447l10.488-11.088v-2.014
	C553.976,204.334,545.484,209.83,540.556,211.552z"/>
<path opacity="0.5" fill="#AEADAE" d="M498.525,223.561c0,0,4.765,7.315,8.953,9.704c0,0-0.659,0.376,3.43,6.61l-0.892-0.373
	c0,0-8.58-12.252-12.389-15.586L498.525,223.561z"/>
<path opacity="0.5" fill="#C97C29" d="M553.976,204.334c0,0-19.182,12.688-43.159,15.386c0,0-6.928,1.665-13.188,4.196
	c0,0-1.398-4.196,1.799-7.326c1.933,0.051,6.859,1.598,13.521-3.402C512.948,213.188,528.799,213.326,553.976,204.334z"/>
<path id="right-arm" fill="#FCE0C9" d="M705.053,811.485c0,0-81.54,16.142-299.626,1.177l68.921-46.071l125.187-46.6l45.025-9.59
	l62.343,67.404L705.053,811.485z"/>
<g id="right-shirt">
	<path fill="#FFFFFF" d="M636.396,712.439c0,0,11.894,7.552,37.204,58.972c0,0,29.307,46.359,41.562,45.293
		c1.865-0.267,1.332-7.193,10.39-9.591c0,0,11.191-6.663,18.117-14.921c0,0,7.727-5.595,11.456-28.63
		c6.927-10.514,14.12-53.161,14.12-53.161c9.325-63.675,3.73-84.456,3.73-84.456c2.13-19.981,5.063-29.306,5.195-44.759
		c0.132-15.452-0.399-30.372-0.399-30.372c12.388-63.541,14.386-104.702,14.386-104.702c-1.998-63.542-25.243-99.937-25.243-99.937
		c-19.739-32.92-119.423-78.033-119.423-78.033c-7.193-5.062-8.792-14.387-8.792-14.387c-0.268-11.456-4.88-13.364-4.88-13.364
		s-46.22,55.525-84.438,56.457c0,0-1.998,13.188-10.591,27.375c0,0-11.389,12.388-27.375,98.909c0,0-9.623,55.064-17.384,132.678
		c0,0-5.328,46.957-7.992,130.08c0,0,38.098,51.151,67.138,54.349C584.081,723.457,621.543,716.702,636.396,712.439"/>
	<g>
		<path fill="#929496" d="M675.997,354.463l-6.832,13.209l-3.417,6.605c-0.572,1.099-1.146,2.198-1.659,3.326l-1.589,3.361
			l-3.177,6.721c-1.042,2.248-2.155,4.463-3.138,6.737l-2.973,6.813c-0.492,1.137-1.006,2.265-1.479,3.409l-1.404,3.438
			l-0.009,0.021l-0.024,0.033l-0.553,0.761c-0.192,0.248-0.369,0.507-0.503,0.795c-0.301,0.554-0.6,1.109-0.805,1.711
			c-0.25,0.582-0.439,1.187-0.607,1.8c-0.196,0.604-0.321,1.229-0.46,1.85c-0.152,0.618-0.241,1.25-0.352,1.878
			c-0.116,0.626-0.188,1.261-0.273,1.894c-0.167,1.265-0.292,2.537-0.402,3.811l-0.641,7.656c-0.122,1.277-0.275,2.552-0.452,3.825
			l-0.321,1.902l-0.416,1.889l-0.002,0.009l-0.01,0.025l-1.521,3.929l-1.254,4.024l-1.04,4.088c-0.321,1.369-0.574,2.754-0.865,4.13
			c-0.288,1.377-0.474,2.774-0.716,4.16c-0.251,1.385-0.393,2.787-0.588,4.181c-0.201,1.393-0.328,2.796-0.476,4.195
			c-0.159,1.399-0.264,2.803-0.374,4.207c-0.228,2.806-0.372,5.619-0.477,8.434c-0.102,2.813-0.152,5.63-0.136,8.445
			c0.002,1.399,0.028,2.835,0.074,4.201l0.207,2.104l0.104,1.052c0.04,0.35,0.129,0.683,0.19,1.024
			c0.15,0.677,0.236,1.369,0.438,2.031c0.225,0.654,0.389,1.336,0.661,1.968c0.297,0.619,0.545,1.271,0.947,1.82l0.275,0.43
			l0.329,0.379c0.202,0.258,0.477,0.488,0.695,0.643l0.209,0.148l-0.06,0.212l-1.484,5.24c-0.433,1.762-0.92,3.512-1.307,5.284
			c-0.384,1.773-0.806,3.539-1.109,5.328l-0.488,2.676l-0.402,2.69c-0.276,1.792-0.447,3.598-0.633,5.399
			c-0.144,1.807-0.282,3.613-0.32,5.426c-0.046,0.904-0.047,1.81-0.041,2.715c0.003,0.906-0.013,1.812,0.04,2.716
			c0.05,1.811,0.19,3.615,0.365,5.417l0.335,2.694l0.439,2.679c0.34,1.777,0.727,3.547,1.19,5.297
			c0.47,1.749,0.979,3.487,1.568,5.202c0.568,1.721,1.21,3.418,1.857,5.113l2.001,5.074c0.657,1.698,1.321,3.397,1.877,5.141
			c0.553,1.741,1.057,3.509,1.354,5.324c0.299,1.813,0.422,3.656,0.342,5.497l-0.001,0.039l-0.017,0.046l-0.866,2.518
			c-0.28,0.841-0.599,1.672-0.847,2.522l-0.709,2.563c-0.113,0.429-0.246,0.853-0.345,1.284l-0.257,1.302
			c-0.147,0.871-0.396,1.729-0.461,2.61c-0.081,0.878-0.218,1.754-0.253,2.634c0.014,0.88-0.057,1.764,0.023,2.64
			c0.094,0.875,0.132,1.757,0.333,2.617c0.143,0.868,0.37,1.724,0.599,2.578c0.228,0.859,0.505,1.701,0.719,2.575
			c0.252,0.859,0.405,1.75,0.564,2.639c0.068,0.445,0.074,0.9,0.114,1.351c0.043,0.451,0.065,0.901,0.021,1.353l-0.076,1.353
			c-0.025,0.451-0.144,0.889-0.211,1.333l-0.238,1.329c-0.111,0.434-0.246,0.862-0.368,1.294c-0.254,0.859-0.474,1.732-0.826,2.556
			l-0.965,2.505l0.009-0.024l-1.389,5.1c-0.224,0.853-0.381,1.72-0.575,2.578l-0.557,2.583c-0.158,0.866-0.277,1.738-0.419,2.607
			c-0.123,0.871-0.3,1.736-0.38,2.613l-0.25,2.628c-0.105,0.875-0.127,1.754-0.149,2.634c-0.013,0.879-0.086,1.759-0.051,2.637
			l0.094,2.637c0.06,0.876,0.175,1.748,0.259,2.622c0.073,0.877,0.284,1.733,0.42,2.601c0.135,0.869,0.407,1.706,0.604,2.562
			c0.255,0.837,0.516,1.678,0.837,2.491l0.504,1.213l0.587,1.174c0.433,0.751,0.875,1.527,1.438,2.161l0.044,0.05l0.003,0.043
			l0.043,0.774c0.004,0.257-0.072,0.508-0.105,0.763c-0.021,0.261-0.159,0.484-0.236,0.727c-0.078,0.246-0.209,0.463-0.338,0.681
			c-0.124,0.222-0.25,0.44-0.412,0.634c-0.156,0.196-0.294,0.409-0.468,0.59c-0.335,0.373-0.685,0.729-1.062,1.055
			c-0.372,0.332-0.762,0.642-1.162,0.934c-0.398,0.297-0.813,0.569-1.229,0.84c-0.841,0.525-1.704,1.006-2.607,1.428l0.033-0.021
			c-0.309,0.278-0.611,0.563-0.862,0.896c-0.249,0.33-0.476,0.683-0.644,1.064c-0.181,0.374-0.32,0.772-0.416,1.179
			c-0.111,0.404-0.166,0.822-0.213,1.239c-0.153,1.68,0.104,3.382,0.516,5.023c0.416,1.647,1.004,3.249,1.678,4.811
			c0.678,1.56,1.445,3.086,2.309,4.55l0.064,0.109l-0.128,0.004c-1.719,0.051-3.459,0.413-5.003,1.191
			c-0.77,0.39-1.472,0.92-2.025,1.58c-0.276,0.328-0.522,0.688-0.703,1.079c-0.1,0.192-0.188,0.389-0.249,0.596
			c-0.074,0.203-0.143,0.408-0.179,0.622c-0.107,0.419-0.14,0.853-0.164,1.283c-0.006,0.434,0.008,0.866,0.068,1.296
			c0.033,0.433,0.151,0.854,0.229,1.279c0.125,0.415,0.217,0.841,0.369,1.248c0.153,0.406,0.278,0.823,0.463,1.217
			c0.178,0.396,0.332,0.804,0.537,1.187c0.374,0.785,0.807,1.539,1.236,2.295c-0.436-0.752-0.873-1.504-1.253-2.286
			c-0.208-0.383-0.365-0.789-0.546-1.185c-0.188-0.393-0.316-0.81-0.473-1.216c-0.155-0.406-0.251-0.833-0.38-1.248
			c-0.08-0.428-0.201-0.85-0.237-1.284c-0.064-0.432-0.082-0.867-0.078-1.305c0.021-0.435,0.05-0.873,0.155-1.298
			c0.035-0.217,0.104-0.425,0.177-0.631c0.061-0.211,0.148-0.411,0.248-0.606c0.182-0.398,0.429-0.767,0.707-1.104
			c0.56-0.675,1.27-1.219,2.047-1.619c1.561-0.8,3.306-1.176,5.054-1.24l-0.063,0.113c-0.88-1.468-1.658-2.99-2.352-4.554
			c-0.688-1.563-1.292-3.17-1.723-4.829c-0.427-1.654-0.703-3.376-0.559-5.103c0.045-0.43,0.099-0.86,0.211-1.28
			c0.096-0.422,0.238-0.838,0.424-1.23c0.174-0.4,0.408-0.773,0.669-1.123c0.262-0.353,0.577-0.655,0.901-0.95l0.011-0.01
			l0.022-0.011c0.878-0.417,1.735-0.901,2.559-1.426c0.408-0.269,0.814-0.54,1.203-0.835c0.392-0.29,0.772-0.597,1.133-0.923
			c0.366-0.32,0.702-0.669,1.023-1.031c0.167-0.176,0.297-0.38,0.446-0.568c0.156-0.186,0.273-0.394,0.39-0.603
			c0.122-0.206,0.246-0.411,0.315-0.639c0.069-0.225,0.202-0.435,0.218-0.672c0.027-0.232,0.101-0.462,0.096-0.695l-0.041-0.7
			l0.047,0.093c-0.614-0.689-1.05-1.461-1.499-2.233l-0.601-1.194l-0.515-1.231c-0.329-0.825-0.596-1.676-0.855-2.523
			c-0.202-0.864-0.479-1.713-0.618-2.59c-0.14-0.876-0.354-1.742-0.431-2.626c-0.087-0.882-0.205-1.763-0.268-2.646l-0.101-2.657
			c-0.038-0.886,0.032-1.771,0.044-2.657c0.021-0.886,0.04-1.771,0.144-2.651l0.245-2.646c0.079-0.883,0.254-1.752,0.376-2.629
			c0.14-0.874,0.258-1.752,0.415-2.622l0.553-2.597c0.192-0.863,0.349-1.735,0.571-2.592l1.382-5.125l0.001-0.005l0.008-0.02
			l0.949-2.482c0.348-0.818,0.561-1.677,0.81-2.524c0.119-0.425,0.251-0.848,0.359-1.274l0.229-1.301
			c0.064-0.435,0.181-0.864,0.204-1.303l0.069-1.314c0.044-0.438,0.021-0.876-0.022-1.313c-0.04-0.436-0.046-0.876-0.114-1.309
			c-0.157-0.864-0.307-1.729-0.559-2.58c-0.212-0.855-0.493-1.706-0.724-2.567c-0.233-0.865-0.467-1.73-0.614-2.62
			c-0.208-0.878-0.25-1.782-0.348-2.677c-0.084-0.896-0.017-1.799-0.031-2.698c0.034-0.897,0.17-1.787,0.25-2.681
			c0.066-0.898,0.313-1.764,0.462-2.647l0.257-1.318c0.099-0.437,0.23-0.864,0.345-1.297l0.708-2.587
			c0.249-0.858,0.566-1.694,0.847-2.542l0.866-2.536l-0.018,0.085c0.072-1.796-0.052-3.595-0.349-5.37
			c-0.294-1.776-0.795-3.517-1.346-5.237c-0.554-1.721-1.218-3.41-1.877-5.102l-2.015-5.071c-0.654-1.7-1.304-3.405-1.88-5.136
			c-0.597-1.725-1.116-3.477-1.594-5.239c-0.473-1.765-0.866-3.549-1.214-5.343l-0.451-2.703l-0.345-2.719
			c-0.181-1.818-0.326-3.64-0.382-5.466c-0.055-0.912-0.042-1.825-0.047-2.738c-0.011-0.913-0.006-1.826,0.043-2.738
			c0.043-1.826,0.187-3.646,0.336-5.464c0.191-1.814,0.368-3.632,0.649-5.434l0.412-2.704l0.497-2.689
			c0.311-1.798,0.738-3.57,1.128-5.351c0.394-1.779,0.887-3.534,1.325-5.303l1.502-5.255l0.149,0.36
			c-0.361-0.242-0.621-0.484-0.86-0.775l-0.362-0.422l-0.295-0.46c-0.432-0.598-0.688-1.273-0.998-1.926
			c-0.282-0.662-0.45-1.361-0.681-2.04c-0.207-0.686-0.295-1.401-0.448-2.101c-0.164-0.704-0.234-1.406-0.292-2.107l-0.202-2.105
			c-0.048-1.451-0.066-2.836-0.066-4.256c-0.011-2.824,0.048-5.647,0.156-8.469c0.112-2.821,0.264-5.642,0.499-8.455
			c0.113-1.407,0.223-2.814,0.385-4.218c0.152-1.404,0.282-2.81,0.487-4.208c0.2-1.397,0.346-2.804,0.601-4.193
			c0.247-1.391,0.437-2.792,0.729-4.175c0.295-1.381,0.553-2.771,0.879-4.146l1.056-4.106l1.272-4.048l1.543-3.957l-0.012,0.034
			l0.414-1.861l0.322-1.884c0.179-1.263,0.335-2.529,0.46-3.802l0.658-7.651c0.113-1.276,0.243-2.553,0.413-3.826
			c0.087-0.636,0.161-1.273,0.281-1.906c0.112-0.633,0.204-1.27,0.359-1.896c0.142-0.628,0.27-1.26,0.471-1.875
			c0.173-0.623,0.367-1.238,0.624-1.834c0.212-0.613,0.521-1.186,0.833-1.757c0.138-0.295,0.321-0.564,0.522-0.823l0.579-0.791
			l-0.033,0.054l1.416-3.442c0.478-1.145,0.994-2.272,1.489-3.409l3.012-6.802c1-2.269,2.13-4.479,3.188-6.72l3.227-6.702
			l1.613-3.351c0.521-1.125,1.103-2.219,1.683-3.314l3.464-6.581L675.997,354.463z"/>
	</g>
	<path fill="none" stroke="#929496" stroke-width="0.7" stroke-miterlimit="10" d="M633.637,713.997c0,0-10.924-13.055,4.796-15.585
		c0,0-9.386-16.641-1.863-19.177c0,0,7.124-3.169,6.925-7.997c0,0-10.184-11.85,0.004-43.757"/>
	<path fill="none" stroke="#919395" stroke-width="0.7" stroke-miterlimit="10" d="M543.386,316.211c0,0-5.039,10.013-6.46,11.076
		c0,0-6.041,11.77-8.382,21.737c0,0-14.931,50.33-21.985,104.988c0,0-11.801,87.352-11.83,94.941c0,0-5.758,51.415-8.689,137.868"/>
	<path opacity="0.5" fill="#D1D2D4" d="M616.053,581.721c13.89-4.93,6.16-18.518,6.16-18.518c-3.996-9.99,0-23.044,0-23.044
		c8.792-10.924,3.197-30.107,3.197-30.107c0.466-8.387,8.995-14.329,11.129-15.688c0.716,6.255,2.676,8.734,3.664,9.601
		c-10.862,36.372-3.768,54.156,1.42,67.156c2.46,6.166,4.587,11.495,4.309,17.362c-5.43,14.627-3.83,20.106-2.419,24.938
		c1.196,4.101,2.23,7.641-1.551,16.558c-8.527,28.595-0.319,39.947,1.072,41.605c0.305,3.138-4.937,6.234-7.029,7.184l-0.18,0.112
		c-5.584,4.612-0.363,15.313,1.578,18.828c-1.911,0.239-5.375,1.064-6.99,3.919c-1.611,2.844-0.898,6.861,2.097,11.932
		l-22.541,5.652c10.791-5.994,11.723-15.204,10.124-17.336c-16.252-21.181,2.021-24.478,6.416-31.138
		c4.396-6.659-6.693-6.429-13.487-12.423c-7.593-12.389,4.396-14.394,3.597-19.582c1.998-8.792-11.955-25.775-3.363-33.568
		C613.255,605.165,608.893,584.519,616.053,581.721z"/>
	<g>
		<path fill="#929496" d="M549.381,297.049c0,0-0.352,2.033-1.083,5.042c-0.385,1.499-0.827,3.251-1.401,5.1
			c-0.563,1.852-1.22,3.811-1.939,5.748c-0.349,0.973-0.772,1.917-1.15,2.861c-0.391,0.939-0.828,1.842-1.223,2.727
			c-0.419,0.875-0.868,1.698-1.276,2.487c-0.451,0.766-0.878,1.49-1.271,2.158c-0.408,0.659-0.839,1.229-1.196,1.746
			c-0.347,0.526-0.715,0.936-1.004,1.284c-0.579,0.692-0.91,1.087-0.91,1.087s0.307-0.414,0.844-1.139
			c0.267-0.363,0.607-0.79,0.922-1.334c0.323-0.537,0.714-1.125,1.104-1.789c0.369-0.676,0.769-1.409,1.19-2.184
			c0.384-0.795,0.788-1.633,1.206-2.5c0.382-0.884,0.807-1.784,1.185-2.723c0.366-0.943,0.775-1.886,1.114-2.857
			c0.736-1.918,1.411-3.862,1.993-5.701c0.59-1.836,1.12-3.558,1.544-5.042c0.414-1.487,0.78-2.723,1.002-3.597
			C549.253,297.548,549.381,297.049,549.381,297.049z"/>
	</g>
	<g>
		<path fill="#D1D2D4" d="M568.896,302.777c0,0-0.123,0.158-0.339,0.435c-0.116,0.131-0.229,0.313-0.414,0.477
			c-0.175,0.173-0.374,0.37-0.602,0.576c-0.475,0.377-1.04,0.808-1.699,1.189c-0.66,0.374-1.392,0.722-2.143,1.019
			c-0.755,0.285-1.52,0.545-2.252,0.727c-0.728,0.199-1.423,0.317-2.014,0.427c-1.19,0.193-1.994,0.213-1.994,0.213
			s0.782-0.181,1.935-0.489c0.577-0.152,1.243-0.351,1.951-0.575c0.71-0.219,1.457-0.48,2.191-0.769
			c0.739-0.28,1.453-0.613,2.115-0.939c0.324-0.177,0.637-0.349,0.934-0.511c0.285-0.182,0.556-0.354,0.805-0.514
			c0.228-0.182,0.446-0.341,0.641-0.484c0.203-0.133,0.342-0.3,0.475-0.413C568.746,302.911,568.896,302.777,568.896,302.777z"/>
	</g>
	<g id="pcoket">
		<path id="pocket" fill="none" stroke="#919395" stroke-width="0.5" stroke-miterlimit="10" d="M542.587,416.539
			c0,0,71.734,11.988,79.327,12.787c0,0-9.325,76.197-9.857,110.833c0,0-13.722,8.657-50.487,13.453c0,0-22.242-8.932-39.563-27.636
			C522.006,525.977,528.399,460.498,542.587,416.539z"/>
		<path fill="none" stroke="#D1D2D4" stroke-width="0.5" stroke-miterlimit="10" d="M619.793,447.541
			c0,0-48.633-4.427-81.695-15.696"/>
		<path fill="none" stroke="#D1D2D4" stroke-width="0.5" stroke-miterlimit="10" d="M619.793,445.738
			c0,0-48.633-4.427-81.695-15.695"/>
	</g>
</g>
<path id="side-keyboard" d="M606.794,744.968c0,0,1.266,5.063-3.529,10.459c0,0-150.324,47.195-265.888,74.331
	c0,0-11.19,1.698-21.88-6.594c-10.69-8.293-42.271-67.51-42.271-67.51l274.357-10.687H606.794z"/>
<linearGradient id="keyboard-frame_1_" gradientUnits="userSpaceOnUse" x1="545.5039" y1="639.9766" x2="284.7055" y2="790.5485">
	<stop  offset="0" style="stop-color:#F1F1F2"/>
	<stop  offset="1" style="stop-color:#939597"/>
</linearGradient>
<path id="keyboard-frame" fill="url(#keyboard-frame_1_)" d="M224.28,685.891c0,0,156.316-43.921,183.431-39.564
	c0,0,95.512,42.361,198.218,98.311c0,0-23.979,10.39-265.355,72.086c0,0-13.188,4.243-27.974-4.949L224.28,685.891z"/>
<path id="screen" fill="#5F798E" d="M324.588,828.159L121.975,528.558c0,0-2.797-4.317-12.189-7.914c0,0-50.903-24.129-50.42-22.181
	c0.017,0.3-1.133,0.549,1.865,7.443l107.101,165.997c0,0,72.6,113.895,85.92,117.891c0,0,58.214,39.165,59.013,39.432
	C313.266,829.226,316.995,832.688,324.588,828.159z"/>
<path id="side-screen" fill="#414142" d="M324.588,828.159l-7.993,2.332c-1.998-3.53-205.81-306.451-205.81-306.451
	s3.996-3.797,11.189,4.518L324.588,828.159z"/>
<polygon id="keyboard" fill="#231F20" points="248.125,690.953 349.63,665.672 487.904,763.152 369.213,793.258 "/>
<polygon id="touch-pad" fill="#EAF7FE" points="416.237,696.014 468.456,684.292 524.29,714.792 465.791,727.984 "/>
<g id="left-hand">
	<path fill="#FCE0C9" d="M460.047,544.437c0,0-17.168,23.962-29.557,34.353c-12.788,11.125-27.975,11.125-50.354,28.374
		c0,0-13.987,7.593-24.777,7.992c0,0-7.193,8.393-32.77,44.358c0,0-10.391,31.972-16.385,45.159c0,0-3.597,9.591,11.589,3.197
		c0,0,2.398-0.399,0,7.193c0,0,13.188,9.591,21.98-13.987c0,0,7.061-45.158,22.379-51.153c0,0-1.199,1.998-6.394,11.989
		c0,0,3.197,19.982,0,50.354c0,0,17.184,11.589,18.782-35.966c0,0,7.593-35.169,21.34-35.201c0,0,4.038,5.326,11.43,7.226
		c0,0,0.991-1.198-2.701,17.584c0,0-15.814,12.654,1.09,27.811c0,0,4.445,1.84,5.607,0.831c3.567-4.963,10.258-15.758,13.987-21.447
		c0,0,1.066-15.986,6.395-19.717c5.327-3.728,6.928-8.071,8.259-14.024c1.332-5.957,3.197-11.018,5.063-12.882
		c1.864-1.866,10.511-9.816,12.316-8.239L460.047,544.437z"/>
	<g>
		<path fill="#C97C29" d="M318.993,709.868c0.797-2.371,1.571-4.75,2.314-7.138c0.739-2.39,1.445-4.788,2.142-7.189
			c1.395-4.803,2.684-9.637,3.832-14.502c0.578-2.432,1.107-4.875,1.581-7.327c0.239-1.226,0.449-2.456,0.643-3.688
			c0.184-1.233,0.337-2.47,0.425-3.706c0.04-1.219,0.003-2.502,0.202-3.763c0.171-1.257,0.489-2.482,0.857-3.688
			c0.745-2.412,1.767-4.716,2.986-6.928l0.022-0.04l0.04-0.03c2.789-2.122,5.437-4.436,7.897-6.935
			c2.469-2.493,4.766-5.154,6.91-7.935c2.131-2.789,4.12-5.688,5.931-8.698c0.906-1.504,1.775-3.03,2.592-4.585
			c0.818-1.553,1.615-3.121,2.309-4.731l0.019-0.043l0.047-0.009l1.216-0.236c0.405-0.082,0.802-0.204,1.204-0.304
			c0.803-0.205,1.59-0.468,2.38-0.719c1.576-0.519,3.131-1.101,4.671-1.72c-1.529,0.645-3.075,1.254-4.644,1.8
			c-0.787,0.265-1.571,0.542-2.373,0.761c-0.401,0.107-0.797,0.237-1.204,0.327l-1.224,0.259l0.065-0.052
			c-1.356,3.256-3.017,6.37-4.815,9.398s-3.777,5.95-5.899,8.763c-2.136,2.803-4.426,5.49-6.894,8.01
			c-2.459,2.527-5.108,4.87-7.905,7.023l0.062-0.07c-1.185,2.174-2.175,4.478-2.931,6.839c-0.369,1.183-0.688,2.386-0.862,3.609
			c-0.199,1.214-0.172,2.441-0.221,3.722c-0.097,1.258-0.26,2.504-0.452,3.744c-0.202,1.237-0.421,2.472-0.668,3.699
			c-0.49,2.457-1.035,4.901-1.629,7.333c-1.18,4.865-2.5,9.695-3.925,14.493C322.251,700.404,320.681,705.159,318.993,709.868z"/>
	</g>
	<g>
		<path fill="#C97C29" d="M397.321,622.083c-1.822,0.257-3.625,0.623-5.412,1.051c-1.785,0.434-3.556,0.923-5.302,1.485
			c-1.749,0.554-3.468,1.2-5.152,1.921c-0.847,0.351-1.681,0.729-2.501,1.135c-0.835,0.378-1.622,0.849-2.435,1.268l0.066-0.056
			c-0.997,1.274-1.945,2.602-2.883,3.93c-0.479,0.656-0.923,1.34-1.383,2.01l-1.381,2.013l-2.673,4.087
			c-0.887,1.365-1.725,2.762-2.59,4.142c-0.864,1.38-1.724,2.763-2.545,4.17l-2.502,4.196c-0.426,0.695-0.808,1.415-1.219,2.117
			l-1.216,2.12l-2.432,4.241l2.3-4.314c0.774-1.435,1.516-2.887,2.325-4.303l2.432-4.243c0.8-1.421,1.626-2.827,2.491-4.21
			c0.858-1.387,1.689-2.79,2.57-4.162l2.655-4.111c0.919-1.348,1.822-2.707,2.774-4.033c0.95-1.328,1.904-2.648,2.923-3.936
			l0.029-0.037l0.037-0.019c0.824-0.419,1.623-0.889,2.467-1.265c0.831-0.405,1.674-0.781,2.53-1.129
			c0.849-0.364,1.724-0.663,2.588-0.984c0.875-0.294,1.747-0.595,2.632-0.852C390.041,623.244,393.665,622.493,397.321,622.083z"/>
	</g>
	<path opacity="0.5" fill="#CA7C29" d="M443.283,629.085c7.588-28.716-8.53-43.503-74.07-13.13c0,0-7.38,2.601-9.458,3.063
		c-2.393,1.867-0.399,11.19-25.376,32.504c0,0-4.596,6.194-4.196,13.588c0,0-5.002,28.739-11.189,44.759
		c-0.5-2.198-1.199-1.998-1.199-1.998s-3.796,1.998-5.826-0.898c0,0,9.023-25.21,15.017-48.457c0,0,22.313-33.968,29.707-42.56
		c0,0,11.262-1.389,20.651-7.387c0,0,21.044-15.197,38.895-21.091c0,0,20.646-9.888,32.836-28.67c0,0,9.56-11.96,10.974-14.371
		c-0.782,0.983-2.659,69.695-2.72,73.804C457.327,618.24,453.069,617.953,443.283,629.085z"/>
	<path opacity="0.5" fill="#CA7C29" d="M395.882,641.099c0,0,7.433-4.163,11.229-8.56c0,0,2.798,6.594,0.2,15.785
		C407.312,648.324,399.438,646.262,395.882,641.099z"/>
	<g id="ongles-left">
		<path fill="#FFFFFF" d="M305.833,706.138c0,0,8.349,4.599,9.056-7.624h-6.086L305.833,706.138z"/>
		<path fill="#FFFFFF" d="M318.219,713.617c0,0,11.165,3.376,12.763-10.603c0,0-5.595,0.313-8.592-0.813L318.219,713.617z"/>
		<path fill="#FFFFFF" d="M357.491,700.677c2.264,0.399,8.526-0.8,8.526-0.8c1.865,13.588-10.162,11.453-10.162,11.453
			C355.759,712.266,357.491,700.677,357.491,700.677z"/>
		<path fill="#FFFFFF" d="M412.296,693.142c0,0-10.446-13.226,3.941-21.429c0,0,3.077,10.709,4.748,8.092L412.296,693.142z"/>
	</g>
</g>
<g id="right-hand">
	<g>
		<path fill="#FCE0C9" d="M171.472,672.652c0,0,0.433-0.446,1.235-0.905c-3.695-0.325-5.764,1.842-5.764,1.842
			c4.452,7.24,8.695,29.761,8.695,29.761c5.063,11.454,18.012,30.968,18.012,30.968l4.052-1.661
			c-2.369-3.612-13.047-20.089-17.535-30.244C180.167,702.412,175.924,679.893,171.472,672.652z"/>
		<path fill="#FCE0C9" d="M180.297,675.403c-2.988-2.535-5.536-3.476-7.589-3.656c-0.802,0.459-1.235,0.905-1.235,0.905
			c4.452,7.24,8.695,29.76,8.695,29.76c4.488,10.155,15.167,26.632,17.535,30.244l1.935-0.794L180.297,675.403z"/>
		<path opacity="0.5" fill="#C67C2A" d="M180.297,675.403c-2.988-2.535-5.536-3.476-7.589-3.656c-1.442,0-1.442,0-1.442,0
			c4.452,7.24,8.901,30.665,8.901,30.665c4.488,10.155,15.167,26.632,17.535,30.244l1.935-0.794L180.297,675.403z"/>
	</g>
	<g>
		<path fill="#FCE0C9" d="M186.055,689.384c0,0-0.362-5.396-2.46-12.747c-5.401-2.86-9.8,0.196-9.8,0.196
			c6.394,12.788,7.193,25.043,7.193,25.043c6.522,20.446,18.915,46.089,18.915,46.089c8.259,13.854,28.774,41.696,28.774,41.696
			s0.181-10.65-0.984-20.814c-6.721-9.329-17.332-24.329-22.723-33.372C204.97,735.475,192.578,709.83,186.055,689.384z"/>
		<path fill="#FCE0C9" d="M215.089,740.107c-5.444-18.512-16.251-31.306-16.251-31.306c-4.031-21.328-10.092-29.438-15.243-32.165
			c2.098,7.352,2.46,12.747,2.46,12.747c6.523,20.446,18.916,46.091,18.916,46.091c5.391,9.043,16.002,24.043,22.723,33.372
			c-0.245-2.132,1.37-4.374,0.994-6.36C226.514,751.031,215.089,740.107,215.089,740.107z"/>
		<path opacity="0.5" fill="#C77C2A" d="M215.089,740.107c-5.444-18.512-16.251-31.306-16.251-31.306
			c-4.031-21.328-10.092-29.438-15.243-32.165c2.098,7.352,2.46,12.747,2.46,12.747c6.523,20.446,18.916,46.091,18.916,46.091
			c5.391,9.043,16.002,24.043,22.723,33.372c-0.245-2.132,2.292-3.708,1.917-5.693C227.437,751.698,215.089,740.107,215.089,740.107
			z"/>
	</g>
	<g>
		<path fill="#FCE0C9" d="M240.262,742.25c-6.535-6.981-12.785-2.81-12.785-2.81c-1.598,19.583,0,50.354,0,50.354
			c29.248,11.817,45.748,19.183,45.748,19.183c5.913,3.205,9.551-0.024,9.551-0.024s0.111-4.594-1.315-9.334
			c-6.963-3.021-20.897-8.968-40.663-16.954C240.798,782.664,239.665,760.837,240.262,742.25z"/>
		<path fill="#FCE0C9" d="M268.336,785.123c-5.595-1.998-17.68-6.119-17.68-6.119c-3.997-7.992-2.531-21.18-2.531-21.18
			c-2.385-7.858-5.149-12.673-7.863-15.574c-0.598,18.587,0.536,40.414,0.536,40.414c19.766,7.986,33.699,13.934,40.663,16.954
			c-0.674-2.243-1.689-4.519-3.23-6.36C273.435,787.53,268.336,785.123,268.336,785.123z"/>
		<path opacity="0.5" fill="#C87C2A" d="M268.336,785.123c-5.595-1.998-17.68-6.119-17.68-6.119
			c-3.997-7.992-2.531-21.18-2.531-21.18c-2.385-7.858-5.149-12.673-7.863-15.574c-0.598,18.587,0.536,40.414,0.536,40.414
			c19.766,7.986,33.699,13.934,40.663,16.954c-0.674-2.243-1.689-4.519-3.23-6.36C273.435,787.53,268.336,785.123,268.336,785.123z"
			/>
	</g>
	<path opacity="0.5" fill="#C97C29" d="M705.053,811.485c-6.353-6.318-13.157-13.392-21.54-25.195c0,0-77.813,27.36-239.054,15.668
		l-39.962,10.949C404.497,812.907,571.561,827.892,705.053,811.485z"/>
	<g id="ongles-right">
		<path fill="#FFFFFF" d="M167.192,674.02c0,0,1.945-0.688,4.073,1.396c0,0,3.328,12.474,5.192,18.068c0,0-1.998-1.731-3.064-0.665
			C173.451,694.261,167.192,674.02,167.192,674.02z"/>
		<path fill="#FFFFFF" d="M226.866,758.561c0,0,5.853,0.52,9.85,4.555c0,0,0.097-16.162,0.271-18.881c0,0-3.865-6.939-9.71-1.984
			L226.866,758.561z"/>
		<path fill="#FFFFFF" d="M179.975,695.956c0,0,2.745-0.607,4.477,1.391l-3.78-17.707c0,0-3.222-1.745-6.478-1.741
			C174.592,678.962,179.975,695.956,179.975,695.956z"/>
	</g>
</g>
<!-- <g id="lights">
	<linearGradient id="SVGID_3_" gradientUnits="userSpaceOnUse" x1="636.1738" y1="711.3086" x2="597.9097" y2="749.5728">
		<stop  offset="0" style="stop-color:#BEE6EF;stop-opacity:0"/>
		<stop  offset="0.0518" style="stop-color:#B6E2ED;stop-opacity:0.0518"/>
		<stop  offset="0.2201" style="stop-color:#A0DAE6;stop-opacity:0.2201"/>
		<stop  offset="0.41" style="stop-color:#91D5E1;stop-opacity:0.41"/>
		<stop  offset="0.6371" style="stop-color:#87D2DE;stop-opacity:0.6371"/>
		<stop  offset="1" style="stop-color:#84D1DD"/>
	</linearGradient>
	<path opacity="0.5" fill="url(#SVGID_3_)" d="M601.536,742.25c0,0,31.792,0,52.258-7.239c0,0-14.315-23.209-17.398-22.571
		s-42.286,10.669-59.147,16.472C590.104,736.945,601.536,742.25,601.536,742.25z"/>
	<linearGradient id="SVGID_4_" gradientUnits="userSpaceOnUse" x1="611.7207" y1="319.5991" x2="161.7622" y2="634.6635">
		<stop  offset="0" style="stop-color:#BEE6EF;stop-opacity:0"/>
		<stop  offset="0.3726" style="stop-color:#BBE5EE;stop-opacity:0.3726"/>
		<stop  offset="0.5967" style="stop-color:#B3E1EC;stop-opacity:0.5967"/>
		<stop  offset="0.7814" style="stop-color:#A4DCE7;stop-opacity:0.7814"/>
		<stop  offset="0.9438" style="stop-color:#8ED4E0;stop-opacity:0.9438"/>
		<stop  offset="1" style="stop-color:#84D1DD"/>
	</linearGradient>
	<path fill="url(#SVGID_4_)" d="M627.963,740.467L313.67,811.773L120.045,526.27c0,0-0.933-2.414-51.287-24.43L408.633,29.559
		L627.963,740.467z"/>
	<g id="face">
		<linearGradient id="SVGID_5_" gradientUnits="userSpaceOnUse" x1="476.998" y1="101.2295" x2="500.0125" y2="187.1205">
			<stop  offset="0" style="stop-color:#BEE6EF;stop-opacity:0"/>
			<stop  offset="0.3528" style="stop-color:#A4DCE7;stop-opacity:0.3528"/>
			<stop  offset="0.7446" style="stop-color:#8DD4E0;stop-opacity:0.7446"/>
			<stop  offset="1" style="stop-color:#84D1DD"/>
		</linearGradient>
		<path opacity="0.4" fill="url(#SVGID_5_)" d="M484.466,190.518c0,0,9.001,0.085,10.68-4.373
			c5.954-15.801-11.273-41.918-7.792-49.357c6.793-16.089,44.534-24.023,44.534-24.023c-1.682-6.97-10.469-20.855-20.979-20.622
			c-7.219,12.319-78.725,31.389-78.725,31.389c6.16,12.375,4.553,25.655,5.863,24.436c1.31-1.22,26.007-7.083,29.379-5.853
			C467.426,142.115,486.13,161.146,484.466,190.518z"/>
		<linearGradient id="SVGID_6_" gradientUnits="userSpaceOnUse" x1="497.4268" y1="193.6582" x2="472.3663" y2="247.4005">
			<stop  offset="0" style="stop-color:#BEE6EF;stop-opacity:0"/>
			<stop  offset="1" style="stop-color:#84D1DD"/>
		</linearGradient>
		<path opacity="0.5" fill="url(#SVGID_6_)" d="M455.668,189.041c0,0,20.425-20.393,23.814,6.268c0,0-1.314,7.555-4.716,12.619
			c1.326,15.634,37.583,55.039,33.538,56.232c-9.781-11.001-44.338-50.274-49.067-59.825
			C459.237,204.334,456.118,195.954,455.668,189.041z"/>
		<linearGradient id="SVGID_7_" gradientUnits="userSpaceOnUse" x1="558.9609" y1="153.6943" x2="539.2238" y2="196.0209">
			<stop  offset="0" style="stop-color:#BEE6EF;stop-opacity:0"/>
			<stop  offset="1" style="stop-color:#84D1DD"/>
		</linearGradient>
		<path opacity="0.4" fill="url(#SVGID_7_)" d="M574.388,189.438c5.896-16.707-1.96-29.308-1.96-29.308s-19.76-14.115-55.309,14.467
			c0,0,3.482,4.908,1.62,11.872c4.257,1.338,8.518-1.663,21.059-0.864C548.326,189.816,562.608,199.536,574.388,189.438z"/>
		<linearGradient id="SVGID_8_" gradientUnits="userSpaceOnUse" x1="537.2666" y1="246.9424" x2="522.797" y2="277.9726">
			<stop  offset="0" style="stop-color:#BEE6EF;stop-opacity:0"/>
			<stop  offset="1" style="stop-color:#84D1DD"/>
		</linearGradient>
		<path opacity="0.5" fill="url(#SVGID_8_)" d="M508.305,264.159c2.604,1.615,6.407,10.899,12.103,12.618
			c12.166,2.684,24.382-10.699,31.674-16.06c0.173-6.191-1.614-7.62-1.614-7.62s-28.691,23.473-41.848,10.39
			C508.619,263.488,508.456,262.366,508.305,264.159z"/>
		<linearGradient id="SVGID_9_" gradientUnits="userSpaceOnUse" x1="547.041" y1="299.9556" x2="533.0119" y2="300.2004">
			<stop  offset="0" style="stop-color:#BEE6EF;stop-opacity:0"/>
			<stop  offset="1" style="stop-color:#84D1DD"/>
		</linearGradient>
		<path opacity="0.5" fill="url(#SVGID_9_)" d="M542.587,269.167c0,0,8.261,30.946,2.232,43.002
			c-6.029,12.056-7.804,15.109-10.023,18.646c-2.223,3.538,13.484-35.804-2.223-55.713
			C538.639,271.979,538.639,271.979,542.587,269.167z"/>
	</g>
	<linearGradient id="SVGID_10_" gradientUnits="userSpaceOnUse" x1="502.7998" y1="516.0254" x2="502.7998" y2="313.4346">
		<stop  offset="0" style="stop-color:#BEE6EF;stop-opacity:0"/>
		<stop  offset="1" style="stop-color:#84D1DD"/>
	</linearGradient>
	<path opacity="0.5" fill="url(#SVGID_10_)" d="M474.23,511.805c-2.143-12.588-0.772-30.522-0.772-30.522
		c-0.771-13.918,5.593-57.32,3.933-65.717c-7.178-31.507,15.147-75.562,15.147-75.562c4.918-6.561,31.985-26.57,31.985-26.57
		c4.117,12.255,8.05,23.467,8.05,23.467c-27.276,94.944-29.602,157.463-33.775,176.195
		C487.621,520.91,486.039,510.465,474.23,511.805z"/>
	<linearGradient id="SVGID_11_" gradientUnits="userSpaceOnUse" x1="561.9189" y1="509.3525" x2="635.9177" y2="294.4447">
		<stop  offset="0" style="stop-color:#BEE6EF;stop-opacity:0"/>
		<stop  offset="1" style="stop-color:#84D1DD"/>
	</linearGradient>
	<path opacity="0.5" fill="url(#SVGID_11_)" d="M650.154,408.014c-4.558,16.484-5.861,29.838-5.861,29.838
		c-7.407,9.604-7.754,56.513-7.754,56.513c-15.52,9.697-9.917,21.66-9.917,21.66c-4.011-1.136-13.024-4.898-12.832-7.383
		c0.19-2.484,8.124-79.315,8.124-79.315c-9.791-2.134-79.327-12.787-79.327-12.787c-5.917,8.645-16.604,77.825-16.604,77.825
		c-4.309,2.913-5.576,0-5.576,0c4.309-40.764,10.741-77.825,10.741-77.825c4.783-50.632,27.979-92.697,27.979-92.697
		s28.655-2.72,60.666-34.857c0,0,46.19,13.792,74.043,39.369C666.52,369.328,650.154,408.014,650.154,408.014z"/>
	<linearGradient id="SVGID_12_" gradientUnits="userSpaceOnUse" x1="694.6875" y1="410.4766" x2="649.3774" y2="507.6444">
		<stop  offset="0" style="stop-color:#BEE6EF;stop-opacity:0"/>
		<stop  offset="1" style="stop-color:#84D1DD"/>
	</linearGradient>
	<path opacity="0.5" fill="url(#SVGID_12_)" d="M638.581,459.982c0,0-7.036,33.746,2.249,43.676c0,0,58.362-74.336,74.073-65.768
		c0,0,9.284-18.02,0-17.224C705.619,421.462,647.243,447.797,638.581,459.982z"/>
	<linearGradient id="SVGID_13_" gradientUnits="userSpaceOnUse" x1="677.8545" y1="505.6055" x2="645.8832" y2="574.1682">
		<stop  offset="0" style="stop-color:#BEE6EF;stop-opacity:0"/>
		<stop  offset="1" style="stop-color:#84D1DD"/>
	</linearGradient>
	<path opacity="0.5" fill="url(#SVGID_13_)" d="M680.625,507.876c1.874-2.41,17.854,11.07,17.854,11.07
		c-31.898,48.605-55.768,53.742-55.768,53.742s-6.685-13.456-7.585-33.02C635.126,539.669,648.237,539.643,680.625,507.876z"/>
	<linearGradient id="SVGID_14_" gradientUnits="userSpaceOnUse" x1="676.5703" y1="601.0371" x2="643.5591" y2="671.8298">
		<stop  offset="0" style="stop-color:#BEE6EF;stop-opacity:0"/>
		<stop  offset="1" style="stop-color:#84D1DD"/>
	</linearGradient>
	<path opacity="0.5" fill="url(#SVGID_14_)" d="M643.034,671.585c0,0,26.521-4.448,43.304-47.656s-41.304,1.055-42.84,3.553
		S634.368,657.822,643.034,671.585z"/>
	<linearGradient id="SVGID_15_" gradientUnits="userSpaceOnUse" x1="672.9707" y1="761.1338" x2="642.3557" y2="695.4796">
		<stop  offset="0" style="stop-color:#BEE6EF;stop-opacity:0"/>
		<stop  offset="1" style="stop-color:#84D1DD"/>
	</linearGradient>
	<path opacity="0.5" fill="url(#SVGID_15_)" d="M630.069,706.757c0,0,22.346-1.771,40.914,47.149
		c10.355,6.844,11.427,3.215,14.997-2.499c0,0-24.58-44.228-50.854-52.466C635.126,698.941,629.506,700.314,630.069,706.757z"/>
	<linearGradient id="SVGID_16_" gradientUnits="userSpaceOnUse" x1="681.0273" y1="738.3711" x2="650.4329" y2="672.7611">
		<stop  offset="0" style="stop-color:#BEE6EF;stop-opacity:0"/>
		<stop  offset="1" style="stop-color:#84D1DD"/>
	</linearGradient>
	<path opacity="0.5" fill="url(#SVGID_16_)" d="M635.126,691.096c0,0,24.442-3.571,54.253,38.369c0,0,10.885,6.589,9.1-4.838
		c0,0-35.131-47.727-61.909-45.392C636.569,679.235,630.365,681.369,635.126,691.096z"/>
	<linearGradient id="SVGID_17_" gradientUnits="userSpaceOnUse" x1="358.3857" y1="698.002" x2="328.3778" y2="633.6497">
		<stop  offset="0" style="stop-color:#BEE6EF;stop-opacity:0"/>
		<stop  offset="1" style="stop-color:#84D1DD"/>
	</linearGradient>
	<path opacity="0.5" fill="url(#SVGID_17_)" d="M318.993,712.663c0,0,2.041,4.285,6.999,0c4.959-4.285,11.645-34.282,12.725-50.751
		c2.946-3.883,6.695-8.436,7.767-11.917c0,0,19.085-17.199,22.729-27.912c0,0-4.582,0.633-9.458-3.065
		c0,0-12.409,24.673-24.787,32.585c-0.789,0.454-4.671,7.44-4.657,11.309c0,0,0.015,15.293-11.606,48.542"/>
	<linearGradient id="SVGID_18_" gradientUnits="userSpaceOnUse" x1="383.8799" y1="700.502" x2="355.0601" y2="638.6978">
		<stop  offset="0" style="stop-color:#BEE6EF;stop-opacity:0"/>
		<stop  offset="1" style="stop-color:#84D1DD"/>
	</linearGradient>
	<path opacity="0.5" fill="url(#SVGID_18_)" d="M355.852,662.548c0,0,3.037,34.416,0.004,48.782c0,0,3.82,1.456,7.268-1.462
		c0,0,7.912-16.558,3.091-47.32c0,0,13.568-17.51,18.925-30.009c0,0,0.76-1.868-8.731-3.796
		C376.407,628.743,355.577,659.077,355.852,662.548z"/>
	<linearGradient id="SVGID_19_" gradientUnits="userSpaceOnUse" x1="430.7051" y1="680.9082" x2="409.9419" y2="636.3814">
		<stop  offset="0" style="stop-color:#BEE6EF;stop-opacity:0"/>
		<stop  offset="1" style="stop-color:#84D1DD"/>
	</linearGradient>
	<path opacity="0.5" fill="url(#SVGID_19_)" d="M405.427,678.026c0,0,2.565,6.964,5.422,12.141c0,0,9.462-17.58,11.784-19.948
		c0,0,2.142-20.76,6.606-20.402c0,0,6.427-5.891,5.714-11.962c0,0-5.535-10.708-12.855-7.14c0,0-6.898,9.191-5.859,15.308
		c0,0-3.425,8.365-4.496,18.399C411.839,663.599,406.996,670.077,405.427,678.026z"/>
</g> -->
</svg>
