<?xml version="1.0" encoding="utf-8"?>
<!-- Generator: Adobe Illustrator 16.0.0, SVG Export Plug-In . SVG Version: 6.00 Build 0)  -->
<!DOCTYPE svg PUBLIC "-//W3C//DTD SVG 1.1//EN" "http://www.w3.org/Graphics/SVG/1.1/DTD/svg11.dtd">
<svg version="1.1" id="Calque_1" xmlns="http://www.w3.org/2000/svg" xmlns:xlink="http://www.w3.org/1999/xlink" x="0px" y="0px"
	 width="1920px" height="1080px" viewBox="0 0 1920 1080" enable-background="new 0 0 1920 1080" xml:space="preserve">
<g id="squares">
	<polygon fill="none" stroke="#84D2E0" stroke-width="4" stroke-miterlimit="10" points="418.413,88.734 405.153,91.835 
		403.292,70.704 411.801,68.714 	"/>
	<polygon fill="none" stroke="#84D2E0" stroke-width="4" stroke-miterlimit="10" points="913,982.229 925.857,968.375 943,971.515 
		943,982.229 	"/>
	<polygon fill="none" stroke="#84D2E0" stroke-width="3" stroke-miterlimit="10" points="1018.924,466.026 1027.263,476.466 
		1031.95,472.722 1026.737,459.786 	"/>
	<polygon fill="none" stroke="#84D2E0" stroke-width="2" stroke-miterlimit="10" points="1579,521 1585,526 1579,534 
		1573.385,527.5 	"/>
	<polygon fill="none" stroke="#84D2E0" stroke-width="3" stroke-miterlimit="10" points="135.131,571.736 147.13,558.067 
		153.13,571.736 144.13,580.588 	"/>
	<polygon fill="none" stroke="#84D2E0" stroke-width="4" stroke-miterlimit="10" points="1589.062,834.258 1601.139,819.259 
		1621.67,834.258 1601.004,842.686 	"/>
	<polygon fill="none" stroke="#84D2E0" stroke-width="3" stroke-miterlimit="10" points="502.56,857.801 504.229,880.575 
		514.589,880.575 517.995,857.801 	"/>
	<polygon fill="none" stroke="#84D2E0" stroke-width="3" stroke-miterlimit="10" points="89.398,972.946 92.288,991.514 
		105.133,991.514 105.133,972.946 	"/>
	<polygon fill="none" stroke="#84D2E0" stroke-width="4" stroke-miterlimit="10" points="764.417,169.734 764.417,182.684 
		784.917,182.684 784.917,160.973 	"/>
	<polygon fill="none" stroke="#84D2E0" stroke-width="4" stroke-miterlimit="10" points="1736.548,59.195 1747,78.234 
		1764.768,78.234 1756.102,59.195 	"/>
	<polygon fill="none" stroke="#84D2E0" stroke-width="3" stroke-miterlimit="10" points="1273.149,105.168 1281.939,114.868 
		1286.498,110.018 1281.939,98.656 	"/>
	<polygon fill="none" stroke="#84D2E0" stroke-width="3" stroke-miterlimit="10" points="1821.046,662.904 1830.527,655.404 
		1825.787,638.905 1803.501,650.905 	"/>
	<polygon fill="none" stroke="#84D2E0" stroke-width="3" stroke-miterlimit="10" points="1277.294,803.463 1293.975,807.859 
		1300.333,798.893 1287.271,794.541 	"/>
	<polygon fill="none" stroke="#84D2E0" stroke-width="3" stroke-miterlimit="10" points="1780.157,307.579 1787.079,313.186 
		1801.939,304.444 1786.018,291.411 	"/>
	<polygon fill="none" stroke="#84D2E0" stroke-width="2" stroke-miterlimit="10" points="924,685.546 924,678.295 930.5,678.533 
		930.5,688.111 	"/>
	<polygon fill="none" stroke="#84D2E0" stroke-width="2" stroke-miterlimit="10" points="141.276,155.961 151.489,156.957 
		150.261,166.079 136.771,164.764 	"/>
	<polygon fill="none" stroke="#84D2E0" stroke-width="2" stroke-miterlimit="10" points="1028.131,14.478 1018.018,28.452 
		1024.09,37.615 1032.856,27 	"/>
	<polygon fill="none" stroke="#84D2E0" stroke-width="2" stroke-miterlimit="10" points="1533.442,1065.897 1536.342,1057.474 
		1523.043,1046.503 1516.244,1065.924 	"/>
</g>
</svg>
