<?xml version="1.0" encoding="utf-8"?>
<!-- Generator: Adobe Illustrator 16.0.0, SVG Export Plug-In . SVG Version: 6.00 Build 0)  -->
<!DOCTYPE svg PUBLIC "-//W3C//DTD SVG 1.1//EN" "http://www.w3.org/Graphics/SVG/1.1/DTD/svg11.dtd">
<svg version="1.1" id="Calque_1" xmlns="http://www.w3.org/2000/svg" xmlns:xlink="http://www.w3.org/1999/xlink" x="0px" y="0px"
	 width="1920px" height="1080px" viewBox="0 0 1920 1080" enable-background="new 0 0 1920 1080" xml:space="preserve">
<g id="lines_1_">
	<linearGradient id="SVGID_1_" gradientUnits="userSpaceOnUse" x1="-253.5854" y1="179.7734" x2="1350.7881" y2="179.7734" gradientTransform="matrix(0.9854 0.17 -0.17 0.9854 38.2026 -90.8906)">
		<stop  offset="0" style="stop-color:#84D2E0"/>
		<stop  offset="0.294" style="stop-color:#87D3E0;stop-opacity:0.706"/>
		<stop  offset="0.4709" style="stop-color:#91D6E2;stop-opacity:0.5291"/>
		<stop  offset="0.6167" style="stop-color:#A0DBE6;stop-opacity:0.3833"/>
		<stop  offset="0.7457" style="stop-color:#B6E2EA;stop-opacity:0.2543"/>
		<stop  offset="0.8635" style="stop-color:#D1ECF1;stop-opacity:0.1365"/>
		<stop  offset="0.9718" style="stop-color:#F1F9FA;stop-opacity:0.0282"/>
		<stop  offset="1" style="stop-color:#FDFDFE;stop-opacity:0"/>
	</linearGradient>
	<path fill="none" stroke="url(#SVGID_1_)" stroke-width="2" stroke-miterlimit="10" d="M-231.327-18.814
		c0,0,1122.827-59.025,1546.826,465.353"/>
	<linearGradient id="SVGID_2_" gradientUnits="userSpaceOnUse" x1="1554.7568" y1="795.2842" x2="2045.1846" y2="795.2842">
		<stop  offset="0" style="stop-color:#FDFDFE;stop-opacity:0"/>
		<stop  offset="0.0538" style="stop-color:#DFF1F4;stop-opacity:0.0538"/>
		<stop  offset="0.1217" style="stop-color:#C4E7EE;stop-opacity:0.1217"/>
		<stop  offset="0.1996" style="stop-color:#ADDFE9;stop-opacity:0.1996"/>
		<stop  offset="0.2907" style="stop-color:#9BD9E5;stop-opacity:0.2907"/>
		<stop  offset="0.4033" style="stop-color:#8ED5E2;stop-opacity:0.4033"/>
		<stop  offset="0.5613" style="stop-color:#87D3E0;stop-opacity:0.5613"/>
		<stop  offset="1" style="stop-color:#84D2E0"/>
	</linearGradient>
	<path display="none" fill="none" stroke="url(#SVGID_2_)" stroke-width="2" stroke-miterlimit="10" d="M1555.756,668.379
		c0,0,8.258,201.271,108.258,248.453s170.536-304.743,380.522-126.045"/>
	<g>
		<linearGradient id="SVGID_3_" gradientUnits="userSpaceOnUse" x1="1544.4541" y1="801.541" x2="2096.9514" y2="801.541">
			<stop  offset="0" style="stop-color:#FDFDFE;stop-opacity:0"/>
			<stop  offset="0.0282" style="stop-color:#F1F9FA;stop-opacity:0.0282"/>
			<stop  offset="0.1365" style="stop-color:#D1ECF1;stop-opacity:0.1365"/>
			<stop  offset="0.2543" style="stop-color:#B6E2EA;stop-opacity:0.2543"/>
			<stop  offset="0.3833" style="stop-color:#A0DBE6;stop-opacity:0.3833"/>
			<stop  offset="0.5291" style="stop-color:#91D6E2;stop-opacity:0.5291"/>
			<stop  offset="0.706" style="stop-color:#87D3E0;stop-opacity:0.706"/>
			<stop  offset="1" style="stop-color:#84D2E0"/>
		</linearGradient>
		<path fill="url(#SVGID_3_)" d="M1545.359,686.591c0,0,4.29,9.008,13.667,23.679c4.694,7.326,10.653,16.061,17.976,25.714
			c3.666,4.822,7.642,9.897,11.999,15.11c2.151,2.629,4.438,5.26,6.747,7.977c2.367,2.668,4.739,5.441,7.276,8.171
			c4.99,5.536,10.404,11.103,16.088,16.779c5.712,5.649,11.779,11.322,18.154,16.999c6.431,5.611,13.094,11.318,20.179,16.807
			c0.879,0.694,1.761,1.391,2.644,2.088c0.899,0.679,1.8,1.359,2.703,2.041c1.806,1.366,3.62,2.739,5.443,4.118
			c3.721,2.658,7.405,5.441,11.27,8.038c7.616,5.354,15.633,10.395,23.801,15.396c2.067,1.21,4.141,2.423,6.22,3.64l3.126,1.821
			l3.177,1.752c2.12,1.17,4.246,2.342,6.376,3.518c2.16,1.12,4.325,2.242,6.494,3.367c17.356,8.992,35.66,16.801,54.364,23.452
			c18.693,6.688,37.824,12.16,56.934,16.285c19.103,4.16,38.153,7.077,56.682,8.939c4.639,0.401,9.231,0.892,13.794,1.21
			c4.564,0.291,9.086,0.58,13.559,0.866c4.479,0.166,8.91,0.33,13.287,0.493c2.188,0.107,4.366,0.096,6.529,0.122
			c2.163,0.02,4.313,0.04,6.447,0.06c17.075,0.024,33.231-0.518,48.094-1.728c14.874-1.062,28.457-2.657,40.479-4.182
			c6.007-0.792,11.606-1.702,16.798-2.452c1.296-0.197,2.566-0.39,3.809-0.578c1.239-0.217,2.45-0.429,3.635-0.636
			c2.367-0.414,4.626-0.81,6.77-1.185c8.588-1.422,15.27-2.893,19.848-3.781c4.573-0.918,7.012-1.407,7.012-1.407
			s-2.433,0.52-6.993,1.493c-4.567,0.945-11.232,2.499-19.806,4.026c-2.14,0.401-4.395,0.824-6.758,1.268
			c-1.183,0.223-2.393,0.449-3.629,0.682c-1.241,0.204-2.51,0.412-3.805,0.625c-5.184,0.814-10.777,1.795-16.78,2.661
			c-3.006,0.407-6.108,0.827-9.302,1.259c-3.194,0.422-6.475,0.918-9.861,1.248c-6.769,0.71-13.876,1.572-21.328,2.082
			c-14.88,1.313-31.065,1.969-48.184,2.063c-2.141-0.005-4.295-0.011-6.464-0.016c-2.169-0.011-4.353,0.016-6.548-0.077
			c-4.391-0.133-8.835-0.267-13.328-0.402c-4.488-0.266-9.024-0.535-13.604-0.807c-4.577-0.309-9.187-0.789-13.841-1.182
			c-18.595-1.826-37.72-4.71-56.906-8.842c-19.193-4.1-38.419-9.545-57.208-16.228c-18.771-6.724-37.138-14.608-54.548-23.679
			c-2.176-1.135-4.347-2.267-6.513-3.396c-2.137-1.185-4.269-2.367-6.396-3.546l-3.186-1.767l-3.136-1.836
			c-2.084-1.227-4.163-2.449-6.236-3.669c-8.191-5.04-16.228-10.119-23.862-15.513c-3.873-2.615-7.566-5.418-11.295-8.094
			c-1.825-1.391-3.643-2.773-5.451-4.15c-0.901-0.691-1.801-1.38-2.698-2.067c-0.882-0.707-1.762-1.412-2.64-2.114
			c-7.073-5.558-13.721-11.33-20.133-17.004c-6.356-5.739-12.403-11.471-18.092-17.176c-5.661-5.731-11.051-11.351-16.016-16.935
			c-10.011-11.095-18.553-21.822-25.766-31.579c-7.216-9.76-13.074-18.576-17.683-25.966
			C1549.538,695.65,1545.359,686.591,1545.359,686.591z"/>
	</g>
</g>
<linearGradient id="blue-gradient_1_" gradientUnits="userSpaceOnUse" x1="582.2393" y1="903.4258" x2="647.0361" y2="1051.4763" gradientTransform="matrix(1.584 -0.0367 -0.0367 1.3737 -154.9004 -334.3965)">
	<stop  offset="0.1459" style="stop-color:#D4D3E6;stop-opacity:0.2068"/>
	<stop  offset="0.225" style="stop-color:#84D2E0;stop-opacity:0.8"/>
	<stop  offset="0.8" style="stop-color:#FFFFFF;stop-opacity:0"/>
</linearGradient>
<polygon id="blue-gradient" opacity="0.25" fill="url(#blue-gradient_1_)" points="228.779,1086.78 740.378,1122.567 
	1316.498,842.686 960,840.541 "/>
<g id="white-gradient">
	<g id="lines" opacity="0.25">
		<g>
			<path fill="#FFFFFF" d="M1850.784,741.521c0,0-3.698-1.44-10.633-4.141c-6.917-2.74-17.098-6.676-29.985-11.847
				c-12.896-5.15-28.576-11.36-46.487-18.653c-8.964-3.629-18.501-7.49-28.557-11.561c-10.036-4.113-20.589-8.438-31.601-12.951
				c-11.007-4.523-22.473-9.235-34.34-14.111c-11.869-4.872-24.088-10.027-36.678-15.262c-25.164-10.506-51.724-21.53-79.111-33.14
				c-13.693-5.804-27.616-11.704-41.709-17.678c-14.079-6.007-28.329-12.085-42.693-18.213
				c-28.723-12.267-57.844-24.862-86.973-37.44c-29.095-12.655-58.201-25.284-86.791-37.859
				c-14.293-6.291-28.474-12.531-42.483-18.697c-13.995-6.199-27.82-12.323-41.419-18.347
				c-27.195-12.051-53.406-23.883-78.273-35.072c-12.43-5.604-24.521-11.055-36.216-16.328
				c-11.672-5.327-22.949-10.474-33.774-15.415c-10.822-4.95-21.194-9.693-31.058-14.205c-9.845-4.556-19.184-8.877-27.959-12.939
				c-17.567-8.088-32.82-15.282-45.394-21.176c-12.584-5.872-22.417-10.611-29.145-13.788c-6.711-3.215-10.291-4.93-10.291-4.93
				s3.699,1.439,10.633,4.139c6.918,2.737,17.1,6.672,29.988,11.841c12.899,5.146,28.577,11.358,46.49,18.647
				c8.964,3.627,18.503,7.487,28.559,11.556c10.036,4.114,20.589,8.438,31.601,12.952c11.007,4.522,22.474,9.232,34.342,14.107
				c11.844,4.929,24.089,10.025,36.677,15.264c25.167,10.497,51.722,21.534,79.11,33.14c13.693,5.805,27.615,11.707,41.708,17.682
				c14.078,6.007,28.327,12.088,42.69,18.218c28.724,12.265,57.841,24.871,86.969,37.451c29.095,12.656,58.196,25.294,86.786,37.868
				c14.293,6.293,28.473,12.535,42.481,18.703c13.995,6.2,27.819,12.325,41.418,18.35c27.197,12.048,53.401,23.892,78.273,35.072
				c12.428,5.608,24.544,11.001,36.214,16.331c11.673,5.326,22.95,10.472,33.777,15.411c10.822,4.95,21.193,9.693,31.057,14.205
				c9.846,4.555,19.185,8.874,27.961,12.935c17.568,8.085,32.82,15.28,45.396,21.17c12.585,5.869,22.418,10.607,29.146,13.782
				C1847.205,739.808,1850.784,741.521,1850.784,741.521z"/>
		</g>
		<g>
			<path fill="#FFFFFF" d="M863.813,1064.228c0,0,3.976-4.187,11.431-12.037c7.485-7.82,18.399-19.354,32.416-33.907
				c14-14.57,30.966-32.296,50.558-52.498c9.783-10.114,20.192-20.877,31.166-32.224c11.007-11.313,22.579-23.209,34.655-35.621
				c12.084-12.405,24.671-25.326,37.698-38.7c13.067-13.334,26.577-27.119,40.466-41.29c27.799-28.32,57.074-58.226,87.515-89.006
				c15.221-15.39,30.694-31.036,46.358-46.876c15.689-15.813,31.569-31.819,47.577-47.953
				c32.086-32.195,64.682-64.902,97.278-97.609c32.703-32.599,65.407-65.197,97.6-97.286c16.133-16.008,32.138-31.89,47.95-47.581
				c15.838-15.665,31.484-31.14,46.874-46.361c30.781-30.439,60.678-59.723,89.004-87.516
				c14.171-13.889,27.955-27.399,41.288-40.468c13.375-13.026,26.298-25.613,38.703-37.695
				c12.412-12.076,24.308-23.648,35.621-34.655c11.348-10.973,22.111-21.381,32.228-31.162
				c20.204-19.589,37.929-36.557,52.502-50.553c14.556-14.014,26.089-24.928,33.911-32.411c7.852-7.454,12.039-11.429,12.039-11.429
				s-3.976,4.188-11.429,12.039c-7.483,7.822-18.397,19.355-32.412,33.911c-13.996,14.573-30.964,32.298-50.553,52.502
				c-9.781,10.116-20.189,20.879-31.162,32.227c-11.006,11.313-22.579,23.209-34.655,35.622
				c-12.082,12.406-24.669,25.328-37.695,38.703c-13.068,13.333-26.578,27.117-40.468,41.288
				c-27.793,28.326-57.076,58.223-87.516,89.005c-15.221,15.39-30.695,31.035-46.36,46.874
				c-15.691,15.813-31.572,31.817-47.581,47.95c-32.089,32.193-64.688,64.896-97.285,97.6
				c-32.707,32.597-65.413,65.192-97.609,97.279c-16.134,16.007-32.14,31.887-47.953,47.576
				c-15.839,15.664-31.485,31.139-46.876,46.358c-30.779,30.441-60.686,59.716-89.005,87.516
				c-14.172,13.888-27.956,27.397-41.29,40.466c-13.374,13.027-26.296,25.614-38.7,37.698
				c-12.412,12.076-24.308,23.648-35.621,34.655c-11.347,10.974-22.109,21.383-32.224,31.165
				c-20.203,19.592-37.928,36.558-52.498,50.558c-14.554,14.017-26.087,24.931-33.907,32.416
				C868,1060.252,863.813,1064.228,863.813,1064.228z"/>
		</g>
		<g>
			<path fill="#FFFFFF" d="M954.265-57.566c0,0,3.496,4.595,10.05,13.212c6.52,8.641,16.155,21.263,28.275,37.429
				c12.139,16.154,26.917,35.741,43.719,58.316c8.417,11.276,17.373,23.276,26.814,35.926c9.403,12.677,19.291,26.006,29.608,39.915
				c10.309,13.915,21.046,28.41,32.16,43.412c11.067,15.035,22.51,30.579,34.272,46.559c23.5,31.978,48.329,65.666,73.833,100.645
				c12.753,17.49,25.719,35.271,38.843,53.271c13.096,18.021,26.351,36.26,39.712,54.645
				c26.638,36.831,53.699,74.246,80.761,111.661c26.938,37.504,53.875,75.008,80.392,111.927
				c13.217,18.489,26.328,36.831,39.282,54.954c12.925,18.144,25.693,36.066,38.252,53.695
				c25.114,35.262,49.229,69.464,72.124,101.877c11.439,16.213,22.567,31.983,33.33,47.238
				c10.716,15.29,21.068,30.062,31.008,44.243c9.931,14.188,19.448,27.783,28.5,40.714c9.013,12.959,17.562,25.252,25.596,36.804
				c16.099,23.082,30.007,43.296,41.488,59.924c11.5,16.613,20.426,29.746,26.559,38.666c6.1,8.944,9.353,13.715,9.353,13.715
				s-3.496-4.595-10.052-13.21c-6.522-8.64-16.158-21.261-28.281-37.427c-12.142-16.15-26.918-35.738-43.724-58.312
				c-8.417-11.276-17.375-23.274-26.817-35.923c-9.404-12.678-19.292-26.007-29.608-39.915
				c-10.31-13.915-21.049-28.408-32.164-43.41c-11.067-15.035-22.509-30.58-34.271-46.56
				c-23.507-31.973-48.325-65.668-73.833-100.646c-12.751-17.49-25.716-35.271-38.839-53.272
				c-13.095-18.021-26.348-36.262-39.707-54.647c-26.636-36.833-53.694-74.25-80.752-111.668
				c-26.935-37.506-53.869-75.013-80.383-111.934c-13.215-18.49-26.325-36.833-39.278-54.957
				c-12.924-18.144-25.691-36.068-38.249-53.698c-25.116-35.259-49.221-69.469-72.124-101.877
				c-11.438-16.213-22.564-31.984-33.327-47.24c-10.717-15.289-21.07-30.06-31.011-44.241c-9.931-14.187-19.448-27.783-28.5-40.713
				c-9.014-12.958-17.564-25.25-25.6-36.801c-16.102-23.08-30.009-43.295-41.493-59.92c-11.503-16.611-20.429-29.744-26.563-38.663
				C957.519-52.796,954.265-57.566,954.265-57.566z"/>
		</g>
		<g>
			<path fill="#FFFFFF" d="M1247.854,53.711c0,0,4.637,15.174,12.752,41.729c4.011,13.291,8.881,29.429,14.467,47.941
				c5.533,18.527,11.775,39.43,18.585,62.232c6.78,22.811,14.125,47.523,21.784,73.692c7.682,26.163,15.823,53.741,24.092,82.314
				c4.151,14.281,8.371,28.801,12.645,43.499c4.253,14.704,8.558,29.586,12.896,44.587c8.629,30.017,17.395,60.51,26.161,91.003
				c8.678,30.519,17.354,61.037,25.897,91.078c2.135,7.511,4.261,14.992,6.377,22.436c2.094,7.449,4.177,14.862,6.248,22.229
				c4.142,14.735,8.232,29.292,12.257,43.61c8.083,28.626,15.757,56.338,23.059,82.609c3.646,13.137,7.191,25.916,10.622,38.276
				c3.399,12.37,6.684,24.321,9.837,35.795c6.271,22.956,12.02,44,17.114,62.652c5.042,18.668,9.438,34.941,13.057,48.345
				c7.145,26.831,11.227,42.164,11.227,42.164s-4.639-15.174-12.757-41.727c-4.011-13.291-8.882-29.43-14.47-47.94
				c-5.533-18.527-11.776-39.43-18.588-62.231c-3.387-11.406-6.916-23.288-10.568-35.586c-3.621-12.306-7.366-25.028-11.215-38.106
				c-7.688-26.161-15.82-53.742-24.091-82.314c-4.151-14.282-8.372-28.801-12.646-43.499c-2.136-7.35-4.285-14.743-6.445-22.174
				c-2.139-7.438-4.288-14.911-6.445-22.415c-8.628-30.018-17.393-60.511-26.157-91.005c-8.676-30.519-17.353-61.038-25.894-91.08
				c-4.245-15.028-8.457-29.937-12.619-44.667c-4.142-14.735-8.233-29.292-12.258-43.61c-8.084-28.625-15.75-56.34-23.057-82.609
				c-7.331-26.263-14.158-51.124-20.46-74.071c-6.271-22.957-12.021-44-17.117-62.652c-5.042-18.667-9.438-34.941-13.06-48.344
				C1251.938,69.043,1247.854,53.711,1247.854,53.711z"/>
		</g>
		<g>
			<path fill="#FFFFFF" d="M1548.972,6.107c0,0-1.185,4.232-3.405,12.169c-2.23,7.933-5.502,19.569-9.666,34.378
				c-4.217,14.792-9.338,32.755-15.213,53.359c-5.906,20.594-12.567,43.83-19.953,69.141c-3.678,12.66-7.51,25.848-11.475,39.497
				c-4.002,13.639-8.139,27.738-12.392,42.233c-8.528,28.983-17.47,59.563-26.913,91.138c-4.7,15.794-9.479,31.852-14.315,48.106
				c-4.827,16.258-9.729,32.708-14.74,49.27c-9.98,33.134-20.119,66.795-30.258,100.455
				c-10.249,33.628-20.497,67.255-30.586,100.356c-2.522,8.275-5.036,16.518-7.536,24.719c-2.527,8.193-5.043,16.345-7.543,24.448
				c-4.999,16.205-9.938,32.214-14.796,47.961c-9.674,31.506-19.198,61.908-28.199,90.748c-4.507,14.418-8.892,28.442-13.133,42.008
				c-4.278,13.555-8.413,26.65-12.382,39.223c-7.908,25.153-15.261,48.18-21.783,68.587c-6.552,20.398-12.264,38.183-16.967,52.827
				c-4.759,14.629-8.497,26.123-11.046,33.96c-2.56,7.834-3.924,12.012-3.924,12.012s1.184-4.232,3.403-12.169
				c2.23-7.934,5.5-19.57,9.662-34.379c4.217-14.793,9.336-32.756,15.209-53.36c5.902-20.596,12.567-43.83,19.951-69.143
				c3.677-12.66,7.507-25.849,11.472-39.498c4.002-13.638,8.14-27.737,12.394-42.232c8.52-28.985,17.474-59.561,26.915-91.137
				c4.699-15.795,9.478-31.853,14.313-48.107c2.418-8.128,4.852-16.305,7.296-24.522c2.473-8.21,4.958-16.461,7.452-24.744
				c9.982-33.135,20.122-66.795,30.263-100.454c10.25-33.627,20.501-67.254,30.591-100.355
				c5.024-16.557,10.077-32.961,15.086-49.165c5-16.206,9.938-32.215,14.796-47.961c9.671-31.506,19.206-61.906,28.2-90.748
				c4.509-14.417,8.894-28.442,13.135-42.007c4.278-13.555,8.411-26.651,12.379-39.224c7.906-25.154,15.263-48.179,21.78-68.587
				c6.551-20.399,12.261-38.183,16.964-52.829c4.757-14.629,8.494-26.124,11.042-33.961
				C1547.607,10.286,1548.972,6.107,1548.972,6.107z"/>
		</g>
		<g>
			<path fill="#FFFFFF" d="M1765.356,461.631c0,0-2.926,0.667-8.411,1.919c-5.488,1.237-13.524,3.124-23.779,5.383
				c-10.251,2.278-22.692,5.076-36.987,8.164c-14.289,3.12-30.409,6.642-48.019,10.362c-8.802,1.875-17.971,3.829-27.46,5.851
				c-9.496,1.984-19.314,4.037-29.407,6.146c-20.19,4.196-41.473,8.673-63.526,13.107c-11.022,2.239-22.229,4.516-33.573,6.82
				c-11.343,2.315-22.826,4.64-34.415,6.914c-23.17,4.589-46.708,9.251-70.245,13.913c-23.561,4.549-47.12,9.099-70.312,13.576
				c-5.798,1.119-11.573,2.233-17.319,3.342c-5.752,1.081-11.475,2.156-17.164,3.226c-11.376,2.138-22.615,4.249-33.67,6.326
				c-22.1,4.197-43.498,8.078-63.784,11.789c-10.144,1.849-20.012,3.646-29.556,5.386c-9.553,1.7-18.782,3.344-27.642,4.921
				c-17.715,3.185-33.974,5.997-48.386,8.485c-14.406,2.521-26.984,4.617-37.34,6.365c-10.351,1.769-18.505,3.048-24.056,3.967
				c-5.553,0.906-8.515,1.389-8.515,1.389s2.926-0.668,8.411-1.921c5.487-1.239,13.523-3.126,23.777-5.387
				c10.251-2.281,22.692-5.078,36.987-8.169c14.288-3.123,30.409-6.642,48.018-10.364c8.802-1.877,17.971-3.831,27.459-5.854
				c9.497-1.984,19.315-4.036,29.408-6.145c20.189-4.204,41.474-8.669,63.527-13.104c11.022-2.24,22.229-4.518,33.573-6.822
				c5.672-1.152,11.379-2.313,17.114-3.478c5.74-1.138,11.51-2.28,17.302-3.429c23.171-4.587,46.709-9.248,70.247-13.908
				c23.56-4.547,47.12-9.095,70.312-13.572c11.592-2.259,23.105-4.43,34.484-6.559c11.377-2.138,22.615-4.25,33.67-6.328
				c22.1-4.2,43.501-8.069,63.784-11.787c10.145-1.848,20.013-3.645,29.557-5.383c9.553-1.702,18.781-3.346,27.642-4.924
				c17.714-3.187,33.974-5.996,48.385-8.489c14.405-2.523,26.984-4.618,37.339-6.369c10.351-1.77,18.505-3.049,24.055-3.971
				C1762.395,462.115,1765.356,461.631,1765.356,461.631z"/>
		</g>
	</g>
	<radialGradient id="SVGID_4_" cx="1385.001" cy="541.8076" r="676.5156" gradientUnits="userSpaceOnUse">
		<stop  offset="0" style="stop-color:#FFFFFF"/>
		<stop  offset="0.8529" style="stop-color:#FFFFFF;stop-opacity:0.1471"/>
		<stop  offset="1" style="stop-color:#FFFFFF;stop-opacity:0"/>
	</radialGradient>
	<circle opacity="0.5" fill="url(#SVGID_4_)" cx="1385.001" cy="541.809" r="676.516"/>
	<radialGradient id="SVGID_5_" cx="1386.2305" cy="541.8076" r="408.0103" gradientUnits="userSpaceOnUse">
		<stop  offset="0" style="stop-color:#FFFFFF"/>
		<stop  offset="0.8529" style="stop-color:#FFFFFF;stop-opacity:0.1471"/>
		<stop  offset="1" style="stop-color:#FFFFFF;stop-opacity:0"/>
	</radialGradient>
	<circle opacity="0.75" fill="url(#SVGID_5_)" cx="1386.23" cy="541.809" r="408.011"/>
</g>
<g id="computer">
	<g id="btn-previous-next">
		<g>
			<g>
				<g>
					<path fill="#84D2E0" d="M343.33,182.673c0,0.543,0,0.814,0,1.357c0,0.695-0.327,1.113-0.979,1.253
						c-1.689,0.371-3.095,0.675-4.409,0.957s-2.534,0.54-3.847,0.814s-2.721,0.567-4.41,0.912c-0.344,0.098-0.689,0.072-1.034-0.077
						c-0.408-0.177-0.775-0.507-1.101-0.993c-0.325-0.484-0.488-0.973-0.488-1.468c0-0.646,0.235-1.017,0.707-1.115
						c1.58-0.325,2.897-0.601,4.125-0.86s2.369-0.501,3.598-0.766s2.544-0.55,4.124-0.897c-1.185-1.261-2.221-2.36-3.184-3.381
						s-1.853-1.961-2.742-2.9s-1.777-1.876-2.74-2.891s-2-2.105-3.185-3.349c-0.469-0.525-0.704-1.109-0.704-1.755
						c0-0.495,0.162-0.847,0.487-1.056s0.693-0.231,1.101-0.062c0.319,0.132,0.663,0.4,1.033,0.8c1.267,1.33,2.376,2.496,3.406,3.58
						s1.98,2.088,2.931,3.093s1.9,2.011,2.929,3.103c1.03,1.092,2.139,2.27,3.406,3.619
						C343.005,181.254,343.33,181.948,343.33,182.673z"/>
				</g>
			</g>
			<polygon fill="none" stroke="#84D2E0" stroke-width="4" stroke-miterlimit="10" points="319.789,154.74 348.604,166.016 
				348.604,205.26 319.789,193.428 			"/>
		</g>
		<g>
			<polygon fill="none" stroke="#84D2E0" stroke-width="4" stroke-miterlimit="10" points="312.741,191 283.926,179.725 
				283.926,140.48 312.741,152.313 			"/>
			<g>
				<g>
					<path fill="#84D2E0" d="M289.199,163.067c0-0.543,0-0.814,0-1.357c0-0.695,0.327-1.114,0.979-1.253
						c1.689-0.371,3.094-0.674,4.408-0.956s2.535-0.54,3.849-0.815s2.72-0.567,4.409-0.912c0.344-0.098,0.691-0.072,1.035,0.077
						c0.408,0.177,0.774,0.508,1.1,0.993c0.325,0.484,0.488,0.973,0.488,1.468c0,0.646-0.236,1.016-0.708,1.115
						c-1.58,0.325-2.896,0.601-4.125,0.86s-2.369,0.501-3.597,0.766s-2.545,0.55-4.125,0.897c1.185,1.261,2.223,2.36,3.186,3.381
						s1.852,1.962,2.74,2.901c0.889,0.939,1.779,1.875,2.742,2.89s1.998,2.105,3.183,3.349c0.469,0.525,0.704,1.109,0.704,1.755
						c0,0.495-0.163,0.847-0.488,1.056s-0.691,0.231-1.1,0.062c-0.319-0.132-0.665-0.398-1.035-0.798
						c-1.267-1.33-2.376-2.497-3.405-3.582s-1.98-2.088-2.931-3.093c-0.95-1.004-1.9-2.011-2.929-3.103s-2.139-2.269-3.406-3.618
						C289.524,164.487,289.199,163.792,289.199,163.067z"/>
				</g>
			</g>
		</g>
	</g>
	<g id="btn-gear">
		<path fill="#84D2E0" d="M352.753,929.822v-5.537l-7.979,1.43c-0.459-2.09-1.335-3.905-2.539-5.394l5.046-7.687l-3.915-2.798
			l-6.245,6.83c-1.711-0.635-3.628-0.924-5.684-0.816l-0.842-7.7l-5.537,1.581l-0.823,7.989c-2.396,1.113-4.624,2.656-6.583,4.502
			l-6.245-3.264l-3.915,5.032l5.046,4.805c-1.204,2.178-2.08,4.493-2.539,6.845l-7.979,3.123v5.537l7.979-1.43
			c0.459,2.089,1.336,3.905,2.54,5.394l-5.047,7.686l3.915,2.799l6.245-6.828c1.951,0.724,4.168,0.997,6.553,0.748l0.853,7.795
			l5.537-1.58l0.873-8.475c2.043-1.064,3.95-2.442,5.653-4.046l6.245,3.264l3.915-5.033l-5.046-4.803
			c1.204-2.177,2.08-4.494,2.539-6.845L352.753,929.822z M327.386,944.142c-5.533,1.579-10.019-1.627-10.019-7.16
			c0-5.534,4.486-11.298,10.019-12.877c5.533-1.58,10.019,1.626,10.019,7.159S332.919,942.563,327.386,944.142z"/>
		<polygon fill="none" stroke="#84D2E0" stroke-width="4" stroke-miterlimit="10" points="358.731,959.135 295.489,978.271 
			295.489,905.022 358.731,890.575 		"/>
	</g>
	<g id="computer-frame">
		<linearGradient id="SVGID_6_" gradientUnits="userSpaceOnUse" x1="342.8994" y1="934.2402" x2="576.6996" y2="291.8791">
			<stop  offset="0" style="stop-color:#D1D3D4"/>
			<stop  offset="1" style="stop-color:#58595B"/>
		</linearGradient>
		<path fill="url(#SVGID_6_)" d="M790.055,769.422c0,12.057-3.614,22.575-8.125,23.506l-509.839,110.48
			c-14.812,3.058-55.026-12.041-55.026-34.43V210.085c0-22.39,40.214-34.843,55.026-29.071L781.93,389.636
			c4.512,1.758,8.125,12.939,8.125,24.995V769.422z"/>
		<linearGradient id="SVGID_7_" gradientUnits="userSpaceOnUse" x1="357.9302" y1="937.1328" x2="590.9666" y2="296.8704">
			<stop  offset="0" style="stop-color:#F1F2F2"/>
			<stop  offset="1" style="stop-color:#939598"/>
		</linearGradient>
		<path fill="url(#SVGID_7_)" d="M794.477,769.171c0,12.032-3.455,22.53-7.769,23.459L272.616,903.408
			c-14.16,3.052-25.894-12.534-25.894-34.879V210.94c0-22.345,11.734-35.686,25.894-29.926l514.093,209.122
			c4.314,1.754,7.769,12.914,7.769,24.945V769.171z"/>
		<path fill="#414042" d="M775.038,753.278c0,11.135-3.197,20.851-7.189,21.71c0,0-127.182,30.689-127.182,10.011L268.128,236.674
			c0-20.679,10.859-33.025,23.962-27.694l475.758,193.528c3.992,1.624,7.189,11.951,7.189,23.085V753.278z"/>
		<path display="none" fill="#ADD8A9" d="M792.051,709.817c0,10.829-3.119,20.278-7.013,21.113l-464.06,99.7
			c-12.781,2.747-23.373-11.28-23.373-31.392c0,0-0.478-602.237-0.478-610.57s3.923-16.84,3.923-16.84l483.987,196.858
			c3.894,1.579,7.013,11.622,7.013,22.451V709.817z"/>
	</g>
	<g id="computer-screen">
		<g id="screen-right">
			<path fill="#3D78BD" d="M763.051,755.817c0,10.829-3.119,20.278-7.013,21.113l-192.124,41.276V336.542l192.124,78.145
				c3.894,1.579,7.013,11.622,7.013,22.451V755.817z"/>
			<polygon fill="#263B8B" points="756.65,661.084 610.677,658.855 610.677,386.345 756.65,438.59 			"/>
		</g>
		<g id="screen-left">
			<path fill="#BDE5EF" d="M563.914,818.207l-271.936,58.422c-12.781,2.746-23.373-11.281-23.373-31.393
				c0,0-0.478-602.236-0.478-610.57s3.923-16.84,3.923-16.84l291.863,118.716V818.207z"/>
			<polygon fill="#263B8B" points="533.974,804.747 309.005,840.541 309.005,508.024 533.974,543.005 			"/>
			<polygon opacity="0.85" fill="#32A4DD" points="527.613,682.363 320.579,685.857 320.579,522.277 527.613,549.092 			"/>
			<g id="hmtl-tag">
				<path id="computer-el_x5F__x5F_left-top_x5F__x5F_background" display="none" fill="#BDE5EF" d="M592.914,501.399L297.334,456
					c0,0-0.207-258.999-0.207-267.332s3.923-16.84,3.923-16.84l291.863,118.716V501.399z"/>
				<polygon fill="#273C8A" points="518.995,540.104 324.588,511.26 324.588,305.47 518.995,371.24 				"/>
				<polygon fill="none" stroke="#84D2E0" stroke-width="4" stroke-miterlimit="10" points="505.927,523.37 346.024,497.143 
					346.024,337.724 505.927,388 				"/>
				<text transform="matrix(1 0 0 1 360 901)" display="none" fill="#84D2E0" font-family="'ArialMT'" font-size="40">&lt;/&gt;</text>
					<text transform="matrix(1 0 0 1 353.5879 936.0723)" display="none" fill="#84D2E0" font-family="'MyriadPro-Regular'" font-size="40">&lt;/&gt;</text>
				<g>
					<g>
						<path fill="#84D2E0" d="M389.036,431.188c0-2.119,0-3.177,0-5.296c0-2.713,0.434-4.781,1.302-6.196
							c5.563-9.102,11.146-18.188,16.842-27.208c0.458-0.833,0.916-1.187,1.374-1.059c0.542,0.151,1.03,0.955,1.463,2.406
							c0.432,1.448,0.649,3.134,0.649,5.048c0,2.504-0.313,4.253-0.941,5.26c-5.32,8.462-10.57,16.968-15.753,25.516
							c5.194,10.959,10.447,21.891,15.76,32.793c0.623,1.41,0.934,3.363,0.934,5.867c0,1.918-0.216,3.502-0.649,4.75
							s-0.921,1.82-1.463,1.714c-0.424-0.083-0.882-0.652-1.374-1.709c-5.686-11.658-11.301-23.351-16.849-35.075
							C389.468,436.283,389.036,434.011,389.036,431.188z"/>
						<path fill="#84D2E0" d="M441.968,401.113c-5.877,28.695-11.66,57.408-17.36,86.139c-0.271,1.318-0.704,1.923-1.296,1.814
							c-0.559-0.103-1.081-0.787-1.563-2.059c-0.483-1.272-0.725-2.83-0.725-4.672c0-1.629,0.169-3.333,0.509-5.108
							c5.703-28.737,11.488-57.458,17.372-86.158c0.288-1.331,0.734-1.907,1.343-1.73c0.541,0.157,1.052,0.859,1.533,2.106
							c0.481,1.247,0.723,2.766,0.723,4.568C442.503,397.711,442.324,399.409,441.968,401.113z"/>
						<path fill="#84D2E0" d="M474.159,446.218c0,1.947,0,2.919,0,4.866c0,2.542-0.414,4.443-1.241,5.705
							c-5.698,8.569-11.314,17.191-16.852,25.865c-0.493,0.817-0.959,1.183-1.4,1.097c-0.543-0.105-1.031-0.81-1.464-2.116
							s-0.648-2.907-0.648-4.79c0-2.448,0.321-4.162,0.963-5.151c5.174-8.125,10.416-16.207,15.73-24.241
							c-5.308-10.466-10.548-20.966-15.731-31.494c-0.641-1.395-0.962-3.32-0.962-5.776c0-1.887,0.216-3.384,0.648-4.49
							s0.92-1.584,1.464-1.433c0.424,0.118,0.891,0.705,1.4,1.759c5.547,11.335,11.163,22.637,16.849,33.903
							C473.744,441.576,474.159,443.672,474.159,446.218z"/>
					</g>
				</g>
				<polygon id="copie" display="none" fill="#CAE9EB" points="503.159,452.823 418.036,437.254 418.036,328.965 503.159,353.616 
									"/>
				<radialGradient id="SVGID_8_" cx="406.3164" cy="397.9224" r="45.0345" gradientUnits="userSpaceOnUse">
					<stop  offset="0" style="stop-color:#88D3E1"/>
					<stop  offset="0.3465" style="stop-color:#D2EDF1;stop-opacity:0.3771"/>
					<stop  offset="0.85" style="stop-color:#FFFFFF;stop-opacity:0"/>
				</radialGradient>
				<path opacity="0.5" fill="url(#SVGID_8_)" d="M442.274,406.973c0,27.567-15.203,46.89-34.643,43.024
					c-20.241-4.025-37.272-31.456-37.272-61.115c0-29.659,17.032-48.521,37.272-42.362
					C427.071,352.434,442.274,379.406,442.274,406.973z"/>
			</g>
			<path fill="#84D2E0" d="M584.013,786.471c0,3.312-1.995,6.29-4.469,6.655c-2.489,0.367-4.518-2.047-4.518-5.395
				s2.029-6.332,4.518-6.663C582.018,780.739,584.013,783.158,584.013,786.471z"/>
			<path fill="#84D2E0" d="M609.552,452.778c0,3.102-1.74,5.155-3.896,4.583c-2.169-0.575-3.937-3.583-3.937-6.717
				c0-3.133,1.767-5.178,3.937-4.571C607.812,446.676,609.552,449.677,609.552,452.778z"/>
			<polygon opacity="0.9" fill="#FED9B1" points="541.23,673.069 334.196,676.563 334.196,512.983 541.23,539.798 			"/>
			<g id="text_3_">
				<polygon fill="#84D2E0" points="514.857,700.845 480.004,702.013 480.045,707.116 514.897,705.754 				"/>
				<polygon fill="#84D2E0" points="337.056,706.805 337.103,712.701 442.719,708.574 442.676,703.264 				"/>
				<polygon fill="#84D2E0" points="515.214,730.598 337.512,742.531 337.464,736.635 515.175,725.69 				"/>
				<polygon fill="#84D2E0" points="337.695,786.149 337.742,792.046 455.249,778.679 455.207,773.435 				"/>
				<polygon fill="#84D2E0" points="515.39,766.922 461.982,772.701 462.024,777.907 515.43,771.832 				"/>
				<polygon fill="#84D2E0" points="338.35,752.668 338.397,758.56 396.437,753.783 396.392,748.213 				"/>
				<polygon fill="#84D2E0" points="438.317,744.996 438.36,750.333 486.534,746.369 486.493,741.299 				"/>
				<polygon fill="#84D2E0" points="515.807,739.049 494.612,740.676 494.652,745.7 515.846,743.956 				"/>
				<polygon fill="#84D2E0" points="337.644,721.811 337.691,727.705 393.098,724.757 393.053,719.17 				"/>
				<polygon fill="#84D2E0" points="515.282,713.344 401.725,718.756 401.77,724.295 515.322,718.252 				"/>
				<polygon fill="#84D2E0" points="338.175,768.051 338.223,773.944 472.713,760.929 472.671,755.782 				"/>
			</g>
			<radialGradient id="SVGID_9_" cx="604.957" cy="449.8843" r="24.772" gradientUnits="userSpaceOnUse">
				<stop  offset="0" style="stop-color:#88D3E1"/>
				<stop  offset="0.3465" style="stop-color:#D2EDF1;stop-opacity:0.3771"/>
				<stop  offset="0.85" style="stop-color:#FFFFFF;stop-opacity:0"/>
			</radialGradient>
			<path opacity="0.65" fill="url(#SVGID_9_)" d="M624.731,454.113c0,15.361-8.474,26.346-19.22,24.484
				c-11.084-1.919-20.329-16.691-20.329-32.938s9.245-27.066,20.329-24.248C616.258,424.145,624.731,438.752,624.731,454.113z"/>
			<polyline fill="none" stroke="#84D2E0" stroke-width="4" stroke-miterlimit="10" points="606.28,452.004 592.047,447.955 
				592.047,467.663 592.047,764.347 592.047,786.408 579.024,787.517 			"/>
				<line id="middle-stick" fill="none" stroke="#263B8B" stroke-width="4" stroke-miterlimit="10" x1="564.117" y1="368.731" x2="564.117" y2="818.207"/>
		</g>
		<g id="btn-next">
			<polygon opacity="0.9" fill="#3D78BD" points="563.496,813.953 519.983,821.241 519.983,765.398 563.496,760.874 			"/>
			<polygon fill="none" stroke="#84D2E0" stroke-width="4" stroke-miterlimit="10" points="571.905,815.224 525.464,823.002 
				525.464,763.4 571.905,758.572 			"/>
			<g>
				<g>
					<path fill="#84D2E0" d="M562.387,787.543c0,0.815,0,1.224,0,2.039c0,1.066-0.511,1.975-1.536,2.727
						c-1.39,1.014-2.665,1.951-3.861,2.835s-2.315,1.715-3.396,2.521s-2.124,1.586-3.167,2.371s-2.084,1.573-3.165,2.396
						s-2.201,1.68-3.397,2.599s-2.471,1.901-3.861,2.981c-0.608,0.492-1.186,0.785-1.731,0.877c-0.671,0.112-1.274-0.048-1.81-0.484
						s-0.803-1.063-0.803-1.877c0-1.053,0.397-1.884,1.191-2.49c1.557-1.207,2.958-2.285,4.266-3.287s2.521-1.929,3.704-2.825
						s2.337-1.763,3.521-2.649c1.184-0.887,2.396-1.792,3.704-2.761s2.709-2.001,4.266-3.14c-1.557-0.709-2.959-1.356-4.267-1.965
						s-2.522-1.18-3.705-1.74c-1.184-0.561-2.335-1.112-3.519-1.683s-2.397-1.159-3.705-1.801c-1.308-0.642-2.709-1.335-4.266-2.113
						c-0.792-0.438-1.19-1.187-1.19-2.242c0-0.812,0.27-1.512,0.803-2.094c0.535-0.584,1.138-0.915,1.81-0.984
						c0.524-0.055,1.102,0.084,1.731,0.409c1.667,0.846,3.169,1.598,4.57,2.293s2.702,1.335,3.969,1.953s2.5,1.215,3.767,1.821
						c1.268,0.607,2.569,1.225,3.97,1.883s2.902,1.356,4.569,2.122C561.875,785.712,562.387,786.48,562.387,787.543z"/>
				</g>
			</g>
			<radialGradient id="SVGID_10_" cx="579.7393" cy="787.1016" r="26.0268" gradientUnits="userSpaceOnUse">
				<stop  offset="0" style="stop-color:#88D3E1"/>
				<stop  offset="0.4043" style="stop-color:#B1E1EA;stop-opacity:0.65"/>
				<stop  offset="0.4334" style="stop-color:#BCE5ED;stop-opacity:0.6023"/>
				<stop  offset="0.5288" style="stop-color:#D9F0F5;stop-opacity:0.4466"/>
				<stop  offset="0.6232" style="stop-color:#EEF8FA;stop-opacity:0.2926"/>
				<stop  offset="0.7153" style="stop-color:#FBFDFE;stop-opacity:0.1423"/>
				<stop  offset="0.8024" style="stop-color:#FFFFFF;stop-opacity:0"/>
			</radialGradient>
			<path opacity="0.5" fill="url(#SVGID_10_)" d="M598.746,784.47c0,16.613-7.953,31.75-18.186,33.896
				c-10.734,2.25-19.827-10.526-19.827-28.639c0-18.11,9.093-33.404,19.827-34.12C590.792,754.922,598.746,767.855,598.746,784.47z"
				/>
		</g>
		<g id="header">
			<path fill="#214096" d="M763.051,441L268.148,263.001c0,0-0.021-23-0.021-31.334s3.923-13.838,3.923-13.838l483.987,193.856
				c3.894,1.579,7.013,11.622,7.013,22.451V441z"/>
			<path fill="#84D2E0" d="M677.278,399.027c-0.02,2.818-0.997,4.751-2.188,4.318l-236.266-86.133
				c-2.293-0.835-4.138-4.706-4.111-8.64l0.077-11.035c0.027-3.935,1.917-6.388,4.209-5.486l236.217,93.123
				c1.19,0.469,2.136,3.133,2.116,5.951L677.278,399.027z"/>
		</g>
		<g id="hover-left">
			<radialGradient id="SVGID_11_" cx="498.6689" cy="568.6387" r="93.2883" gradientUnits="userSpaceOnUse">
				<stop  offset="0" style="stop-color:#84D2E0;stop-opacity:0"/>
				<stop  offset="0.1452" style="stop-color:#8DD5E2;stop-opacity:0.1089"/>
				<stop  offset="0.3823" style="stop-color:#A5DEE8;stop-opacity:0.2867"/>
				<stop  offset="0.6817" style="stop-color:#CDEDF2;stop-opacity:0.5113"/>
				<stop  offset="1" style="stop-color:#FFFFFF;stop-opacity:0.75"/>
			</radialGradient>
			<polygon fill="url(#SVGID_11_)" stroke="#84D2E0" stroke-width="4" stroke-miterlimit="10" points="602.186,646.935 
				395.152,650.429 395.152,486.849 602.186,513.663 			"/>
			<g id="text_2_">
				<polygon fill="#FFDA71" points="412.472,591.477 412.472,634.463 423.454,634.537 423.454,592.014 				"/>
				<polygon fill="#84D2E0" points="591.506,558.201 411.74,540.224 411.559,527.41 591.355,547.539 				"/>
				<polygon fill="#84D2E0" points="411.853,505.468 411.853,518.283 561.311,535.367 561.311,524.344 				"/>
				<polygon fill="#84D2E0" points="591.347,528.137 568.131,525.205 568.345,536.171 591.347,538.8 				"/>
			</g>
		</g>
		<g id="hover-right-top">
			<polygon opacity="0.75" fill="#7CABDB" points="768.332,654.371 622.358,652.143 622.358,379.633 768.332,431.877 			"/>
			<polygon fill="#214096" points="822.616,634.854 680.06,628.729 680.06,372.003 822.616,428.402 			"/>
			<polygon opacity="0.85" fill="#31A5DE" points="833.256,635.963 689.24,629.775 689.24,370.421 833.256,427.398 			"/>
			<g id="text_1_">
				<polygon fill="#FED9B1" points="714.19,518.796 714.19,524.565 781.28,537.662 781.28,532.45 				"/>
				<polygon fill="#FED9B1" points="714.038,398.422 714.038,404.234 779.609,428.226 779.609,422.958 				"/>
				<polygon fill="#FED9B1" points="814.833,436.138 803.139,431.763 803.139,436.835 814.833,441.113 				"/>
				<polygon fill="#FED9B1" points="714.038,411.35 714.038,417.119 747.666,428.889 747.666,423.398 				"/>
				<polygon fill="#FED9B1" points="814.628,476.583 714.126,445.518 714.126,439.747 814.628,471.649 				"/>
				<polygon fill="#FED9B1" points="814.756,460.643 735.679,434.07 735.679,439.66 814.756,465.575 				"/>
				<polygon fill="#FED9B1" points="713.952,454.881 713.952,460.652 781.306,479.998 781.306,474.786 				"/>
				<polygon fill="#FED9B1" points="814.5,484.596 784.334,475.681 784.334,480.868 814.5,489.532 				"/>
				<polygon fill="#FED9B1" points="713.731,483.631 713.731,489.405 748.187,497.871 748.187,492.384 				"/>
				<polygon fill="#FED9B1" points="814.339,509.189 751.205,493.151 751.205,498.613 814.339,514.126 				"/>
				<polygon fill="#FED9B1" points="714.126,469.342 714.126,475.112 766.003,488.935 766.003,483.596 				"/>
				<polygon fill="#FED9B1" points="713.731,498.373 713.731,504.146 772.667,517.207 772.667,511.924 				"/>
				<polygon fill="#FED9B1" points="814.339,521.505 775.001,512.46 775.001,517.724 814.339,526.441 				"/>
				<polygon fill="#FED9B1" points="814.463,552.034 799.62,549.34 799.62,554.397 814.463,556.968 				"/>
				<polygon fill="#FED9B1" points="713.979,533.798 713.979,539.567 728.651,542.107 728.651,536.46 				"/>
				<polygon fill="#FED9B1" points="796.915,548.85 730.959,536.879 730.959,542.508 796.915,553.929 				"/>
			</g>
			<path fill="#077CB6" d="M799.975,598.962c0,8.014-2.324,14.34-5.215,14.128l-57.789-4.239c-3.498-0.257-6.36-7.705-6.36-16.635
				l0,0c0-8.93,2.862-15.821,6.36-15.397l57.789,7.002C797.651,584.17,799.975,590.948,799.975,598.962L799.975,598.962z"/>
			<path fill="#BDE5EF" d="M815.227,598.084c0,8.601-2.494,15.39-5.597,15.162l-62.021-4.549c-3.753-0.276-6.825-8.27-6.825-17.854
				l0,0c0-9.583,3.072-16.979,6.825-16.524l62.021,7.515C812.733,582.209,815.227,589.483,815.227,598.084L815.227,598.084z"/>
			<radialGradient id="SVGID_12_" cx="747.2051" cy="591.1172" r="38.5747" gradientUnits="userSpaceOnUse">
				<stop  offset="0" style="stop-color:#84D2E0;stop-opacity:0.8"/>
				<stop  offset="0.2097" style="stop-color:#A8DDE8;stop-opacity:0.75"/>
				<stop  offset="0.8" style="stop-color:#FFFFFF;stop-opacity:0"/>
			</radialGradient>
			<path opacity="0.35" fill="url(#SVGID_12_)" d="M777.584,592.493c0,24.101-12.833,43.768-29.25,43.935
				c-17.105,0.175-31.507-20.725-31.507-46.685c0-25.961,14.402-45.556,31.507-43.833
				C764.751,547.563,777.584,568.392,777.584,592.493z"/>
			<path opacity="0.75" fill="#FFFFFF" d="M810.09,613.411l-62.021-4.549c-3.753-0.276-6.825-8.27-6.825-17.854l0,0
				c0-9.583,2.762-16.353,6.825-16.525C743.4,603.804,739.132,611.311,810.09,613.411z"/>
		</g>
		<g id="hover-right-bottom">
			<polygon fill="#BDE5EF" points="756.65,769.787 609.947,792.105 609.947,670.986 756.65,670.989 			"/>
			<polygon opacity="0.75" fill="#33A5DE" points="767.314,762.774 620.61,785.093 620.61,663.974 767.314,663.977 			"/>
			<polygon fill="#214096" points="825.491,742.921 685.04,761.844 685.04,649.558 825.491,653.075 			"/>
			<polygon fill="#84D2E0" points="832.019,743.336 688.651,762.652 688.651,648.034 832.019,651.625 			"/>
			<polygon fill="#263B8B" points="827.275,739.237 694.722,756.288 694.722,655.113 827.275,658.283 			"/>
			<g id="text_4_">
				<polygon fill="#84D2E0" points="821.302,696.905 770.216,698.385 770.216,703.663 821.302,701.759 				"/>
				<polygon fill="#84D2E0" points="821.538,724.914 704.833,734.481 704.833,728.651 821.538,720.054 				"/>
				<polygon fill="#84D2E0" points="705.285,668.827 705.285,680.966 785.264,680.399 785.264,669.648 				"/>
				<polygon fill="#84D2E0" points="821.853,670.023 795.789,669.756 795.789,680.325 821.853,680.141 				"/>
				<polygon fill="#84D2E0" points="704.724,713.98 704.724,719.811 785.264,715.124 785.264,709.962 				"/>
				<polygon fill="#84D2E0" points="704.932,700.274 704.932,706.098 766.031,703.819 766.031,698.506 				"/>
			</g>
		</g>
		<g id="btn-close">
			<path fill="#FBB359" d="M626,515.475c0,13.678-8.312,23.373-18.812,21.612c-10.784-1.808-19.741-14.945-19.741-29.299
				c0-14.353,8.958-23.919,19.741-21.426C617.688,488.789,626,501.798,626,515.475z"/>
			<g>
				<g>
					<path fill="#FFFFFF" d="M607.028,516.109c-3.161,4.641-4.583,6.835-5.271,8.735c-0.092,0.358-0.324,0.307-0.77-0.092
						c-0.401-0.359-0.843-0.858-1.369-1.458s-0.994-1.141-1.354-1.664c-0.32-0.465-0.458-0.779-0.411-0.949
						c0.533-1.935,2.245-4.655,5.515-9.764c-3.696-4.984-5.569-7.849-6.444-10.006c-0.103-0.235-0.023-0.549,0.213-0.966
						c0.279-0.491,0.692-1.009,1.191-1.587s0.933-1.04,1.349-1.34c0.471-0.341,0.754-0.35,0.908,0.011
						c0.898,2.115,2.383,4.439,5.767,9.175c2.976-4.288,4.333-6.257,5.034-8.079c0.104-0.29,0.333-0.244,0.74,0.102
						c0.362,0.307,0.781,0.77,1.297,1.36s0.968,1.127,1.308,1.652c0.329,0.509,0.472,0.833,0.437,0.95
						c-0.503,1.885-2.04,4.356-5.089,9.143c3.999,5.412,6.133,8.544,6.896,10.73c0.084,0.183-0.006,0.474-0.256,0.888
						c-0.339,0.561-0.801,1.109-1.322,1.701s-0.943,1.047-1.305,1.335c-0.428,0.34-0.674,0.358-0.825-0.026
						C612.416,523.804,610.723,521.234,607.028,516.109z"/>
				</g>
			</g>
			<path fill="#FBB359" d="M871.941,658.393c0,10.143-5.757,18.398-13.023,18.44c-7.456,0.044-13.643-8.533-13.643-19.157
				c0-10.625,6.188-18.869,13.643-18.425C866.184,639.685,871.941,648.25,871.941,658.393z"/>
			<g>
				<g>
					<path fill="#FFFFFF" d="M858.647,661.205c-2.163,3.351-3.204,4.977-3.667,6.371c-0.063,0.26-0.212,0.242-0.498-0.009
						c-0.257-0.226-0.543-0.552-0.882-0.948s-0.643-0.761-0.874-1.121c-0.206-0.321-0.293-0.545-0.259-0.671
						c0.384-1.445,1.622-3.35,3.984-7.2c-2.222-3.54-3.328-5.241-3.796-6.688c-0.056-0.157,0.008-0.372,0.177-0.661
						c0.199-0.341,0.483-0.702,0.822-1.107s0.628-0.732,0.898-0.949c0.305-0.245,0.481-0.263,0.567-0.024
						c0.501,1.397,1.437,2.891,3.454,6.005c2.03-3.096,2.987-4.564,3.456-5.902c0.069-0.212,0.217-0.197,0.479,0.018
						c0.234,0.191,0.504,0.492,0.838,0.881s0.628,0.746,0.847,1.106c0.212,0.35,0.301,0.577,0.276,0.665
						c-0.361,1.401-1.461,3.107-3.661,6.713c2.41,3.835,3.661,5.767,4.05,7.248c0.045,0.124-0.024,0.326-0.203,0.613
						c-0.242,0.389-0.561,0.77-0.914,1.183s-0.634,0.737-0.87,0.941c-0.278,0.241-0.428,0.261-0.51,0.005
						C861.899,666.238,860.832,664.588,858.647,661.205z"/>
				</g>
			</g>
		</g>
		<g id="btn-reduce-hide-close">
			<path fill="none" stroke="#3D78BD" stroke-width="4" stroke-miterlimit="10" d="M748.209,351.148
				c0,8.152-3.477,13.483-7.797,11.896c-4.358-1.601-7.917-9.62-7.917-17.896c0-8.277,3.559-13.575,7.917-11.85
				C744.732,335.011,748.209,342.997,748.209,351.148z"/>
			<polygon fill="none" stroke="#3D78BD" stroke-width="2" stroke-miterlimit="10" points="743.516,349.743 739.232,348.058 
				739.232,340.07 743.516,341.8 			"/>
			<polygon fill="none" stroke="#3D78BD" stroke-width="2" stroke-miterlimit="10" points="741.374,355.699 737.089,354.014 
				737.089,346.026 741.374,347.756 			"/>
			<path fill="none" stroke="#84D2E0" stroke-width="4" stroke-miterlimit="10" d="M725.63,341.793
				c0,8.293-3.537,13.717-7.932,12.102c-4.434-1.629-8.056-9.787-8.056-18.207s3.622-13.811,8.056-12.054
				C722.093,325.377,725.63,333.501,725.63,341.793z"/>
				<line fill="none" stroke="#84D2E0" stroke-width="2" stroke-miterlimit="10" x1="713.031" y1="341.068" x2="722.242" y2="345.363"/>
			<path fill="none" stroke="#FBB359" stroke-width="4" stroke-miterlimit="10" d="M771.828,361.706
				c0,8.293-3.537,13.717-7.932,12.102c-4.434-1.629-8.055-9.786-8.055-18.206c0-8.42,3.621-13.811,8.055-12.054
				C768.291,345.29,771.828,353.414,771.828,361.706z"/>
			<g>
				<g>
					<path fill="#FBB359" d="M764.009,360.882c-0.958,2.395-1.419,3.449-1.457,4.488c0.002,0.192-0.046,0.2-0.177,0.056
						c-0.118-0.129-0.264-0.328-0.453-0.588s-0.37-0.515-0.521-0.781c-0.135-0.237-0.205-0.41-0.206-0.518
						c-0.005-0.613,0.197-1.343,0.449-2.165s0.578-1.768,1.075-3.061c-0.643-1.235-1.082-2.182-1.425-3.024
						s-0.625-1.611-0.718-2.263c-0.023-0.143,0.02-0.319,0.116-0.53c0.114-0.25,0.27-0.491,0.449-0.741
						c0.179-0.25,0.325-0.43,0.449-0.535c0.141-0.118,0.21-0.099,0.237,0.088c0.155,1.094,0.647,2.256,1.81,4.632
						c0.906-2.198,1.327-3.146,1.381-4.125c0.006-0.155,0.058-0.16,0.176-0.037c0.105,0.11,0.241,0.293,0.422,0.545
						c0.181,0.251,0.355,0.499,0.497,0.761c0.138,0.255,0.204,0.428,0.204,0.501c0.006,0.584-0.173,1.263-0.4,2.025
						s-0.522,1.65-0.98,2.866c0.694,1.34,1.182,2.34,1.557,3.261s0.677,1.761,0.748,2.441c0.018,0.117-0.025,0.281-0.127,0.493
						c-0.138,0.287-0.313,0.542-0.5,0.795c-0.186,0.252-0.327,0.431-0.436,0.531c-0.128,0.119-0.185,0.098-0.208-0.104
						c-0.064-0.568-0.309-1.272-0.618-2.05S764.646,362.173,764.009,360.882z"/>
				</g>
			</g>
		</g>
	</g>
</g>
<g id="squares">
	<polygon fill="none" stroke="#84D2E0" stroke-width="4" stroke-miterlimit="10" points="448.413,88.734 435.153,91.835 
		433.292,70.704 441.801,68.714 	"/>
	<polygon fill="none" stroke="#84D2E0" stroke-width="4" stroke-miterlimit="10" points="943,982.229 955.857,968.375 973,971.515 
		973,982.229 	"/>
	<polygon fill="none" stroke="#84D2E0" stroke-width="3" stroke-miterlimit="10" points="1048.924,466.026 1057.263,476.466 
		1061.95,472.722 1056.737,459.786 	"/>
	<polygon fill="none" stroke="#84D2E0" stroke-width="2" stroke-miterlimit="10" points="1609,521 1615,526 1609,534 
		1603.385,527.5 	"/>
	<polygon fill="none" stroke="#84D2E0" stroke-width="3" stroke-miterlimit="10" points="165.131,571.736 177.13,558.067 
		183.13,571.736 174.13,580.588 	"/>
	<polygon fill="none" stroke="#84D2E0" stroke-width="4" stroke-miterlimit="10" points="1619.062,834.258 1631.139,819.259 
		1651.67,834.258 1631.004,842.686 	"/>
	<polygon fill="none" stroke="#84D2E0" stroke-width="3" stroke-miterlimit="10" points="532.56,857.801 534.229,880.575 
		544.589,880.575 547.995,857.801 	"/>
	<polygon fill="none" stroke="#84D2E0" stroke-width="3" stroke-miterlimit="10" points="119.398,972.946 122.288,991.514 
		135.133,991.514 135.133,972.946 	"/>
	<polygon fill="none" stroke="#84D2E0" stroke-width="4" stroke-miterlimit="10" points="794.417,169.734 794.417,182.684 
		814.917,182.684 814.917,160.973 	"/>
	<polygon fill="none" stroke="#84D2E0" stroke-width="4" stroke-miterlimit="10" points="1766.548,59.195 1777,78.234 
		1794.768,78.234 1786.102,59.195 	"/>
	<polygon fill="none" stroke="#84D2E0" stroke-width="3" stroke-miterlimit="10" points="1303.149,105.168 1311.939,114.868 
		1316.498,110.018 1311.939,98.656 	"/>
	<polygon fill="none" stroke="#84D2E0" stroke-width="3" stroke-miterlimit="10" points="1851.046,662.904 1860.527,655.404 
		1855.787,638.905 1833.501,650.905 	"/>
	<polygon fill="none" stroke="#84D2E0" stroke-width="3" stroke-miterlimit="10" points="1307.294,803.463 1323.975,807.859 
		1330.333,798.893 1317.271,794.541 	"/>
	<polygon fill="none" stroke="#84D2E0" stroke-width="3" stroke-miterlimit="10" points="1810.157,307.579 1817.079,313.186 
		1831.939,304.444 1816.018,291.411 	"/>
	<polygon fill="none" stroke="#84D2E0" stroke-width="2" stroke-miterlimit="10" points="954,685.546 954,678.295 960.5,678.533 
		960.5,688.111 	"/>
	<polygon fill="none" stroke="#84D2E0" stroke-width="2" stroke-miterlimit="10" points="171.276,155.961 181.489,156.957 
		180.261,166.079 166.771,164.764 	"/>
	<polygon fill="none" stroke="#84D2E0" stroke-width="2" stroke-miterlimit="10" points="1058.131,14.478 1048.018,28.452 
		1054.09,37.615 1062.856,27 	"/>
	<polygon fill="none" stroke="#84D2E0" stroke-width="2" stroke-miterlimit="10" points="1563.442,1065.897 1566.342,1057.474 
		1553.043,1046.503 1546.244,1065.924 	"/>
</g>
</svg>
